<svg width="60" height="60" viewBox="0 0 60 60" fill="none" xmlns="http://www.w3.org/2000/svg">
<g clip-path="url(#clip0_1_486)">
<path d="M19.2898 16.9243C18.8037 16.9243 18.2084 16.8512 17.8016 16.3962C17.6594 16.2401 17.5337 16.0908 17.4148 15.9645C16.4427 14.9383 14.7694 16.3629 15.7846 17.6912L16.0259 18.0099C16.1879 18.2091 16.4723 18.4415 16.8857 18.7038C17.2859 18.9596 17.7323 19.1456 18.2283 19.2584V20.5633C18.2283 21.968 20.4239 22.1108 20.4239 20.4671C20.4373 20.331 20.4471 20.1748 20.4471 19.9956V19.2453C21.2407 19.0593 21.9186 18.674 22.4775 18.0865C23.0364 17.4987 23.3174 16.7181 23.3174 15.7454C23.3174 15.0844 23.1884 14.53 22.9338 14.0883C22.6791 13.6467 22.365 13.3381 21.9947 13.162C21.621 12.9861 21.2109 12.8333 20.7613 12.7038C20.3148 12.5709 19.9046 12.4779 19.5312 12.4215C19.1575 12.3651 18.8467 12.2522 18.5887 12.0861C18.334 11.9169 18.2084 11.6944 18.2084 11.4221C18.2084 10.1105 20.1231 10.2699 20.9662 10.9838C22.2129 12.033 23.6051 10.1105 22.16 9.02467L21.9947 8.87537C21.8823 8.78561 21.6838 8.67603 21.3961 8.53658C21.1118 8.40041 20.7942 8.29424 20.4471 8.21783V7.95205V7.4042V6.93932C20.4471 5.49158 18.248 5.49158 18.248 6.93932V7.95205V8.20436C17.4378 8.36045 16.7699 8.76557 16.307 9.35982C15.8374 9.96428 15.5959 10.6349 15.5959 11.3821C15.5959 12.1325 15.7712 12.7503 16.1186 13.235C16.4691 13.7231 16.8889 14.0651 17.3882 14.2678C17.8843 14.467 18.3837 14.6265 18.8796 14.7426C19.3757 14.8622 19.7989 14.9984 20.1462 15.1477C20.4967 15.2972 20.6686 15.5097 20.6686 15.7819C20.6687 16.5455 20.209 16.9243 19.2898 16.9243Z" fill="#196FF1"/>
<path d="M27.8225 13.3985H41.2779C41.9306 13.3985 42.4596 12.8694 42.4596 12.2169C42.4596 11.5643 41.9305 11.0352 41.2779 11.0352H27.8225C27.1698 11.0352 26.6407 11.5643 26.6407 12.2169C26.6407 12.8695 27.1698 13.3985 27.8225 13.3985Z" fill="#196FF1"/>
<path d="M27.8225 18.4219H41.2779C41.9306 18.4219 42.4596 17.8928 42.4596 17.2403C42.4596 16.5877 41.9305 16.0586 41.2779 16.0586H27.8225C27.1698 16.0586 26.6407 16.5877 26.6407 17.2403C26.6407 17.8929 27.1698 18.4219 27.8225 18.4219Z" fill="#196FF1"/>
<path d="M58.474 34.0295L51.5904 25.1866V8.32406C51.5904 8.13105 51.5421 7.93922 51.4514 7.76894C51.4283 7.7257 51.309 7.4884 51.2442 7.4884L44.1332 0.347812C43.8848 0.140742 43.6298 0 43.2958 0H9.40433C7.59483 0 6.12273 1.47727 6.12273 3.29344V9.84152C6.12273 10.4941 6.65183 11.0232 7.30456 11.0232C7.95718 11.0232 8.48628 10.4941 8.48628 9.84152V3.29344C8.48628 2.78062 8.89808 2.3632 9.40433 2.3632H42.1139V6.21211C42.1139 8.02828 43.586 9.50555 45.3955 9.50555H49.2267V22.1501L48.9446 21.7875C48.3007 20.9584 47.3244 20.4829 46.2662 20.4829C45.5168 20.4829 44.8074 20.7223 44.215 21.1751L37.9781 25.94C37.263 26.4868 36.8057 27.2804 36.6907 28.1748C36.674 28.3051 36.6656 28.4353 36.6639 28.5647C34.2891 28.3836 31.836 28.5666 29.4502 30.1219L29.348 30.1884L23.3311 29.2657C23.3428 29.0582 23.336 28.8482 23.3086 28.6376C23.193 27.7452 22.7364 26.9535 22.0226 26.408L15.7847 21.6444C15.1934 21.1908 14.4843 20.951 13.7344 20.951C12.6774 20.951 11.7007 21.426 11.0541 22.255L8.48628 25.5551V19.4679C8.48628 18.8153 7.95706 18.2862 7.30456 18.2862C6.65183 18.2862 6.12273 18.8153 6.12273 19.4679V28.5925L1.52816 34.4969C0.974093 35.2072 0.732804 36.091 0.848819 36.9855C0.964601 37.8791 1.42245 38.6711 2.13566 39.2139L6.12273 42.2623V50.9927C6.12273 52.8088 7.59483 54.2863 9.40433 54.2863H18.7267C19.1411 55.0795 19.8646 55.7116 20.7286 55.9937C21.0188 56.0884 21.3114 56.1375 21.6013 56.1471C21.7153 56.6235 21.9528 57.0834 22.3166 57.487C22.8823 58.1143 23.7072 58.5158 24.6119 58.5157C25.2666 58.5157 25.9632 58.3041 26.6329 57.8166L27.9466 59.046C28.6237 59.6822 29.4769 59.9999 30.3222 59.9999C31.1781 59.9996 32.0258 59.6741 32.6733 59.0239C33.0573 58.64 33.3556 58.1825 33.549 57.7003C33.8746 57.7982 34.1929 57.8448 34.4983 57.8447C35.367 57.8446 36.134 57.4781 36.6842 56.9123C37.1349 56.4489 37.4582 55.832 37.6022 55.1746C37.6448 55.1766 37.6875 55.1786 37.7304 55.1789C37.742 55.179 37.7536 55.1791 37.7652 55.1791C38.6431 55.1791 39.4868 54.8559 40.1076 54.2863H48.3057C50.117 54.2863 51.5905 52.8088 51.5905 50.9927V43.5388C51.6021 43.5303 51.6143 43.523 51.6257 43.5141L57.8637 38.7473C58.5771 38.2044 59.0342 37.4143 59.1508 36.5228C59.2678 35.6277 59.0277 34.7427 58.474 34.0295ZM45.3955 7.14234C44.8893 7.14234 44.4775 6.72492 44.4775 6.21211V4.04297L47.564 7.14234H45.3955ZM37.6662 31.0405L45.9394 41.6693C45.0664 43.241 44.6025 43.7412 42.4961 45.427L35.0158 38.755L32.651 36.5955C32.2907 36.2665 31.765 36.1929 31.3279 36.41L27.5541 38.2868C26.525 38.7311 25.5455 38.3229 25.189 37.6659C24.7066 36.7766 25.4256 35.5612 27.0658 34.4941L30.7404 32.1027C32.7299 30.8057 34.8153 30.7061 37.6662 31.0405ZM3.56909 37.3349C3.36038 37.176 3.22667 36.9439 3.19269 36.6818C3.15858 36.4186 3.22937 36.1589 3.39273 35.9495L12.9187 23.7079C13.1135 23.458 13.411 23.3148 13.7345 23.3148C13.8914 23.3148 14.1252 23.3505 14.3484 23.5216L20.5879 28.2864C20.7969 28.4462 20.9308 28.6789 20.9649 28.942C20.9942 29.1679 20.9464 29.3907 20.8314 29.5811C20.8226 29.5942 20.8136 29.6073 20.8054 29.621C20.7927 29.6398 20.7804 29.6585 20.7665 29.6766L11.2366 41.9184C11.0427 42.1672 10.7457 42.3101 10.4215 42.3101C10.2641 42.3101 10.0299 42.2743 9.8078 42.1048L3.56909 37.3349ZM14.6866 46.4474C14.6877 46.4463 14.6888 46.4453 14.6898 46.4445L18.6326 42.9329C18.9601 42.6411 19.2891 42.4868 19.5837 42.4868C20.0119 42.4868 20.3332 42.8143 20.4505 43.1186C20.577 43.4464 20.5019 43.7387 20.2282 43.9866L19.5496 44.6009C19.5463 44.6037 19.5429 44.6064 19.5396 44.6093C19.5362 44.6122 19.533 44.6153 19.5296 44.6183C19.3323 44.797 19.1189 44.9904 18.8991 45.1897L15.8665 47.9347C15.6903 48.0941 15.52 48.1751 15.3604 48.1751C15.03 48.1751 14.6442 47.8412 14.4819 47.4152C14.3337 47.0259 14.4017 46.701 14.6841 46.4495L14.6866 46.4474ZM9.40433 51.923C8.89808 51.923 8.48628 51.5055 8.48628 50.9926V44.0621C9.05429 44.4608 9.71956 44.6733 10.4216 44.6733C10.8413 44.6733 11.2475 44.5976 11.6259 44.4558L12.4238 45.5504C11.9849 46.356 11.9179 47.3229 12.2732 48.2561C12.7787 49.5841 13.9671 50.4855 15.2529 50.5338C15.293 50.7223 15.3484 50.9108 15.4238 51.0973C15.5447 51.3968 15.7032 51.6727 15.8888 51.9231H9.40433V51.923ZM19.0514 50.7381C18.8768 50.8923 18.711 50.9674 18.5447 50.9674C18.1947 50.9674 17.7865 50.6358 17.6154 50.2124C17.4272 49.7462 17.6486 49.5326 17.7195 49.4641C17.77 49.4156 17.8316 49.3564 17.8953 49.2865C18.0987 49.104 19.4434 47.886 20.4414 46.9816L21.1203 46.3671C21.4359 46.0914 21.7547 45.9451 22.0431 45.9451C22.5008 45.9451 22.8426 46.298 22.9664 46.6257C23.09 46.9521 23.0168 47.2373 22.7488 47.4736L22.5073 47.6869C22.5053 47.6886 22.5033 47.6902 22.5013 47.6918C22.5006 47.6925 22.5 47.6932 22.4993 47.6939L19.0514 50.7381ZM22.5365 53.2675C22.5201 53.2821 22.5048 53.2977 22.4888 53.3126L22.2151 53.5602C21.9757 53.7773 21.7366 53.8364 21.462 53.747C21.1108 53.6324 20.8033 53.2945 20.7307 52.9438C20.6678 52.6393 20.7892 52.3573 21.0989 52.084L21.4892 51.7419C21.5025 51.7302 21.5141 51.7175 21.5268 51.7053L24.0825 49.449C24.9483 48.6878 25.4841 49.0977 25.6748 49.3105C25.7315 49.3737 26.2118 49.9436 25.628 50.4717L24.0566 51.8937C24.0403 51.9081 24.0236 51.9213 24.0075 51.9359C24.0016 51.9414 23.9966 51.9477 23.9908 51.9532L22.5548 53.2528C22.5489 53.2581 22.5423 53.262 22.5365 53.2675ZM26.9658 54.3686L25.8954 55.3332C25.8904 55.3376 25.8856 55.3421 25.8807 55.3466L25.4162 55.7653C24.6838 56.4234 24.2322 56.0818 24.072 55.9043C23.9491 55.768 23.7116 55.4148 24.1 55.042L25.6575 53.6326C25.7758 53.531 25.8933 53.4482 26.0154 53.3831C26.635 53.0523 26.9724 53.438 27.0609 53.5639C27.1762 53.7282 27.3171 54.0513 26.9658 54.3686ZM42.581 49.7116C42.5093 50.0051 42.3004 50.2162 42.0078 50.2907C41.5197 50.4148 40.9001 50.1397 40.3327 49.5531C40.2917 49.5076 40.2496 49.463 40.2059 49.4196L35.7913 45.0431C35.3277 44.5836 34.5795 44.5869 34.12 45.0503C33.6605 45.5137 33.6638 46.262 34.1271 46.7215L38.535 51.0913C38.5403 51.097 38.5456 51.1024 38.5508 51.108C38.7296 51.2907 38.8287 51.5351 38.8294 51.7986C38.8302 52.0731 38.7262 52.329 38.5362 52.5197C38.3488 52.7077 38.0577 52.8186 37.7532 52.8155C37.489 52.8129 37.248 52.7251 37.0776 52.571C37.0039 52.4756 36.9236 52.3829 36.8353 52.2942L33.6079 49.0501C33.1474 48.5873 32.3992 48.5853 31.9366 49.0458C31.4738 49.5061 31.4719 50.2543 31.9322 50.7171L34.9924 53.7929C35.0297 53.8473 35.0708 53.8999 35.1182 53.949L35.2466 54.0819C35.4092 54.3977 35.3041 54.9414 34.9898 55.2646C34.5018 55.7662 33.812 55.3184 33.3202 54.8552L31.938 53.5502C31.4635 53.102 30.7155 53.1237 30.2673 53.598C29.8193 54.0727 29.8408 54.8207 30.3154 55.2687L31.3721 56.2664C31.3743 56.2685 31.3762 56.271 31.3785 56.2731C31.4016 56.2949 31.4364 56.3276 31.4382 56.4444C31.4424 56.7183 31.2631 57.0918 31.0003 57.3544C30.6199 57.7364 29.9896 57.7229 29.5633 57.3223L28.4131 56.2459L28.5488 56.1234C29.7012 55.0833 29.8846 53.4722 28.9948 52.2056C28.7092 51.799 28.3526 51.4826 27.9526 51.2614C28.5218 50.1333 28.3594 48.7643 27.4348 47.7329C26.9176 47.1558 26.1891 46.7607 25.376 46.6706C25.352 46.3772 25.2876 46.0816 25.1774 45.7901C24.7794 44.7373 23.8978 43.9615 22.86 43.6893C22.9025 43.2212 22.8371 42.7379 22.6558 42.268C22.161 40.9853 20.9264 40.1232 19.5837 40.1232C18.7001 40.1232 17.8275 40.4845 17.0605 41.168L14.0854 43.8175L13.4412 42.9339L22.3382 31.5048L26.3745 32.1237L25.7764 32.513C22.4676 34.6659 22.2303 37.1685 23.1114 38.7928C23.8143 40.0886 25.213 40.8291 26.6969 40.8289C27.3088 40.8288 27.9355 40.703 28.5334 40.4378C28.5492 40.4307 28.5651 40.4235 28.5807 40.4156L31.6551 38.8867L33.428 40.5056C33.4296 40.5071 33.4315 40.5083 33.4332 40.5098C33.4349 40.5115 33.4364 40.5132 33.4382 40.5149L41.6656 47.8534C42.3696 48.4812 42.7118 49.1757 42.581 49.7116ZM49.2269 50.9927C49.2269 51.5057 48.8135 51.9231 48.3055 51.9231L43.7045 52.0481C44.2796 51.6175 44.7004 50.9963 44.8771 50.2721C45.1328 49.2247 44.8738 48.1212 44.1647 47.1177C45.9917 45.6451 46.7348 44.9152 47.5723 43.5541C48.0536 43.9057 48.6216 44.1238 49.2267 44.1851V50.9927H49.2269ZM56.8071 36.2163C56.7729 36.4777 56.6398 36.7086 56.4304 36.868L50.1908 41.6359C49.9698 41.8048 49.7363 41.8403 49.5792 41.8403C49.2544 41.8403 48.9563 41.6967 48.762 41.4476L39.2343 29.2072C39.072 28.9991 39.0012 28.7395 39.0351 28.4763C39.0689 28.2125 39.2033 27.9787 39.4135 27.8182L45.6502 23.0531C45.8735 22.8825 46.1085 22.8466 46.2662 22.8466C46.5891 22.8466 46.885 22.989 47.0787 23.2384L56.6079 35.48C56.771 35.6902 56.8418 35.9515 56.8071 36.2163Z" fill="#196FF1"/>
<path d="M7.3069 15.703C7.95951 15.703 8.48862 15.1739 8.48862 14.5213V14.4981C8.48862 13.8455 7.95951 13.3164 7.3069 13.3164C6.65416 13.3164 6.12506 13.8455 6.12506 14.4981V14.5213C6.12506 15.1741 6.65405 15.703 7.3069 15.703Z" fill="#196FF1"/>
</g>
<defs>
<clipPath id="clip0_1_486">
<rect width="60" height="60" fill="white"/>
</clipPath>
</defs>
</svg>
