<svg width="60" height="60" viewBox="0 0 60 60" fill="none" xmlns="http://www.w3.org/2000/svg">
<g clip-path="url(#clip0_1_505)">
<path d="M35.0234 47.168C33.6992 48.5508 31.918 49.3125 30.0078 49.3125C28.0977 49.3125 26.3164 48.5508 24.9922 47.168L24.3594 46.5L23.7266 47.168C22.4023 48.5508 20.6211 49.3125 18.7109 49.3125C16.8008 49.3125 15.0195 48.5508 13.6953 47.168L13.0625 46.5L12.4297 47.168C11.1055 48.5508 9.32422 49.3125 7.41406 49.3125C5.50391 49.3125 3.72266 48.5508 2.39844 47.168L1.0625 48.3867C2.72656 50.1211 4.96484 51.0703 7.35547 51.0703C9.46484 51.0703 11.4336 50.332 13.0156 48.9844C14.5859 50.332 16.5664 51.0703 18.6758 51.0703C20.7852 51.0703 22.7539 50.332 24.3359 48.9844C25.9062 50.332 27.8867 51.0703 29.9961 51.0703C32.3984 51.0703 34.6367 50.1211 36.2891 48.3867L35.0234 47.168Z" fill="#196FF1" stroke="#196FF1" stroke-miterlimit="10"/>
<path d="M53.3945 55.957L52.7617 55.2891L52.1289 55.957C50.8047 57.3398 49.0234 58.1016 47.1133 58.1016C45.2031 58.1016 43.4219 57.3398 42.0977 55.957L41.4648 55.2891L40.832 55.957C39.5312 57.3047 37.7852 58.0664 35.9219 58.1016L35.9453 59.8711C37.9961 59.8359 39.9297 59.1094 41.4766 57.7852C43.0469 59.1328 45.0273 59.8711 47.1367 59.8711C49.2461 59.8711 51.2148 59.1328 52.7969 57.7852C54.3438 59.0977 56.2656 59.8359 58.3281 59.8711L58.3516 58.1016C56.4414 58.0664 54.6953 57.3047 53.3945 55.957Z" fill="#196FF1" stroke="#196FF1" stroke-miterlimit="10"/>
<path d="M59.6602 41.0391C57.3164 41.5078 54.9375 40.7578 53.2734 39.0352L53.1094 38.8711L46.2422 13.2305L25.3477 4.69922L11.5078 22.5234L16.2891 40.3594C15.293 40.8867 14.1914 41.168 13.0312 41.168C11.1211 41.168 9.33984 40.4062 8.01562 39.0234L7.38281 38.3555L6.75 39.0234C5.07422 40.7461 2.69531 41.4961 0.351562 41.0391L0 42.7734C2.64844 43.3008 5.34375 42.5859 7.35938 40.8633C8.92969 42.2109 10.9102 42.9492 13.0195 42.9492C15.1289 42.9492 17.0977 42.2109 18.6797 40.8633C20.25 42.2109 22.2305 42.9492 24.3398 42.9492C26.4492 42.9492 28.418 42.2109 30 40.8633C31.5703 42.2109 33.5508 42.9492 35.6602 42.9492C37.7695 42.9492 39.7383 42.2109 41.3203 40.8633C42.8906 42.2109 44.8711 42.9492 46.9805 42.9492C49.0898 42.9492 51.0586 42.2109 52.6406 40.8633C54.2227 42.2109 56.2148 42.9492 58.2773 42.9492C58.8516 42.9492 59.4258 42.8906 60 42.7734L59.6602 41.0391ZM30 38.3672L29.3672 39.0352C28.043 40.418 26.2617 41.1797 24.3516 41.1797C23.9648 41.1797 23.5781 41.1445 23.2031 41.0859L20.3086 30.2695C19.7578 28.2305 20.9766 26.1211 23.0156 25.582C25.0547 25.0313 27.1641 26.25 27.7031 28.2891L30.5625 38.9531L30 38.3672ZM46.9805 41.168C45.0703 41.168 43.2891 40.4062 41.9648 39.0234L41.332 38.3555L40.6992 39.0234C39.375 40.4062 37.5938 41.168 35.6836 41.168C34.6875 41.168 33.7266 40.957 32.8477 40.5703L29.4375 27.8203C28.6406 24.8437 25.5586 23.0625 22.582 23.8594C19.6055 24.6562 17.8242 27.7383 18.6211 30.7148L21.2227 40.4062C20.543 40.0547 19.9102 39.5977 19.3594 39.0234L18.7266 38.3555L18.0938 39.0234C18.0234 39.1055 17.9414 39.1758 17.8711 39.2461L13.4883 22.9102L25.9219 6.84375L44.7656 14.5312L51.4688 39.5391C50.2148 40.5938 48.6445 41.168 46.9805 41.168Z" fill="#196FF1" stroke="#196FF1" stroke-miterlimit="10"/>
<path d="M44.3594 19.8516L32.4062 23.0508L34.9961 32.7305L46.9492 29.5313L44.3594 19.8516ZM34.5742 24.3047L43.1172 22.0195L44.793 28.2773L36.25 30.5625L34.5742 24.3047Z" fill="#196FF1" stroke="#196FF1" stroke-miterlimit="10"/>
<path d="M24.1289 0.140625L18.0937 7.91016L17.1914 4.54688L9.33984 6.65625L11.8359 15.9844L5.57812 24.0586L6.97266 25.1484L24.7031 2.29688L51.4805 13.2188L52.1484 11.5781L24.1289 0.140625ZM13.1953 14.2266L11.4961 7.91016L15.9375 6.71484L16.7227 9.66797L13.1953 14.2266Z" fill="#196FF1" stroke="#196FF1" stroke-miterlimit="10"/>
<path d="M31.7457 13.7691C31.1949 11.7301 29.0972 10.5113 27.0582 11.0621C25.0191 11.6129 23.8004 13.7105 24.3511 15.7496C24.8082 17.4605 26.3668 18.5855 28.0543 18.5855C28.3824 18.5855 28.7105 18.5386 29.0504 18.4566C31.0777 17.9176 32.2847 15.8082 31.7457 13.7691ZM28.5816 16.7574C27.4801 17.0504 26.3551 16.3941 26.0504 15.3043C25.7574 14.2027 26.4136 13.0777 27.5035 12.773C27.6793 12.7261 27.8551 12.7027 28.0426 12.7027C28.9566 12.7027 29.7886 13.3121 30.0347 14.2261C30.3277 15.3277 29.6715 16.4644 28.5816 16.7574Z" fill="#196FF1" stroke="#196FF1" stroke-miterlimit="10"/>
<path d="M54.9414 1.32422H53.1719V3.09375H54.9414V1.32422Z" fill="#196FF1" stroke="#196FF1" stroke-miterlimit="10"/>
<path d="M54.9414 4.86328H53.1719V6.63281H54.9414V4.86328Z" fill="#196FF1" stroke="#196FF1" stroke-miterlimit="10"/>
<path d="M54.9414 8.40234H53.1719V10.1719H54.9414V8.40234Z" fill="#196FF1" stroke="#196FF1" stroke-miterlimit="10"/>
<path d="M59.6445 10.5234H57.875V12.293H59.6445V10.5234Z" fill="#196FF1" stroke="#196FF1" stroke-miterlimit="10"/>
<path d="M59.6445 6.98438H57.875V8.75391H59.6445V6.98438Z" fill="#196FF1" stroke="#196FF1" stroke-miterlimit="10"/>
<path d="M59.6445 14.0625H57.875V15.832H59.6445V14.0625Z" fill="#196FF1" stroke="#196FF1" stroke-miterlimit="10"/>
<path d="M1.76953 29.7422H0V31.5117H1.76953V29.7422Z" fill="#196FF1" stroke="#196FF1" stroke-miterlimit="10"/>
<path d="M1.76953 26.2031H0V27.9727H1.76953V26.2031Z" fill="#196FF1" stroke="#196FF1" stroke-miterlimit="10"/>
<path d="M1.76953 22.6641H0V24.4336H1.76953V22.6641Z" fill="#196FF1" stroke="#196FF1" stroke-miterlimit="10"/>
<path d="M6.48047 35.4023H4.71094V37.1719H6.48047V35.4023Z" fill="#196FF1" stroke="#196FF1" stroke-miterlimit="10"/>
<path d="M6.48047 28.3242H4.71094V30.0937H6.48047V28.3242Z" fill="#196FF1" stroke="#196FF1" stroke-miterlimit="10"/>
<path d="M6.48047 31.8633H4.71094V33.6328H6.48047V31.8633Z" fill="#196FF1" stroke="#196FF1" stroke-miterlimit="10"/>
<path d="M12.5508 55.3828H10.7812V57.1523H12.5508V55.3828Z" fill="#196FF1" stroke="#196FF1" stroke-miterlimit="10"/>
<path d="M21.3945 55.3828H19.625V57.1523H21.3945V55.3828Z" fill="#196FF1" stroke="#196FF1" stroke-miterlimit="10"/>
<path d="M17.8594 55.3828H14.3203V57.1523H17.8594V55.3828Z" fill="#196FF1" stroke="#196FF1" stroke-miterlimit="10"/>
<path d="M46.3945 45.7148H44.625V47.4844H46.3945V45.7148Z" fill="#196FF1" stroke="#196FF1" stroke-miterlimit="10"/>
<path d="M55.2266 45.7148H48.1484V47.4844H55.2266V45.7148Z" fill="#196FF1" stroke="#196FF1" stroke-miterlimit="10"/>
<path d="M58.7695 45.7148H57V47.4844H58.7695V45.7148Z" fill="#196FF1" stroke="#196FF1" stroke-miterlimit="10"/>
<path d="M38.0117 51.7266H36.3594V53.4961H38.0117V51.7266Z" fill="#196FF1" stroke="#196FF1" stroke-miterlimit="10"/>
<path d="M45.0898 51.7266H43.3203V53.4961H45.0898V51.7266Z" fill="#196FF1" stroke="#196FF1" stroke-miterlimit="10"/>
<path d="M41.5508 51.7266H39.7812V53.4961H41.5508V51.7266Z" fill="#196FF1" stroke="#196FF1" stroke-miterlimit="10"/>
<path d="M17.7383 44.1797H15.9688V45.9492H17.7383V44.1797Z" fill="#196FF1" stroke="#196FF1" stroke-miterlimit="10"/>
<path d="M21.2773 44.1797H19.5078V45.9492H21.2773V44.1797Z" fill="#196FF1" stroke="#196FF1" stroke-miterlimit="10"/>
<path d="M34.6213 12.2872L33.9531 13.9258L38.934 15.9569L39.6022 14.3183L34.6213 12.2872Z" fill="#196FF1" stroke="#196FF1" stroke-miterlimit="10"/>
<path d="M41.2385 14.9864L40.5703 16.625L42.2089 17.2932L42.8771 15.6546L41.2385 14.9864Z" fill="#196FF1" stroke="#196FF1" stroke-miterlimit="10"/>
</g>
<defs>
<clipPath id="clip0_1_505">
<rect width="60" height="60" fill="white"/>
</clipPath>
</defs>
</svg>
