<svg width="60" height="60" viewBox="0 0 60 60" fill="none" xmlns="http://www.w3.org/2000/svg">
<g clip-path="url(#clip0_1_600)">
<path d="M37.4941 27.1169C34.8438 27.1169 32.6875 29.2732 32.6875 31.9235C32.6875 34.5738 34.8438 36.7301 37.4941 36.7301C40.1444 36.7301 42.3006 34.5738 42.3006 31.9235C42.3006 29.2732 40.1445 27.1169 37.4941 27.1169ZM37.4941 34.8075C35.9041 34.8075 34.6101 33.5135 34.6101 31.9235C34.6101 30.3335 35.9041 29.0395 37.4941 29.0395C39.0841 29.0395 40.378 30.3335 40.378 31.9235C40.378 33.5135 39.0841 34.8075 37.4941 34.8075Z" fill="#196FF1"/>
<path d="M37.4925 32.8833C38.0234 32.8833 38.4538 32.4529 38.4538 31.922C38.4538 31.3911 38.0234 30.9607 37.4925 30.9607C36.9616 30.9607 36.5312 31.3911 36.5312 31.922C36.5312 32.4529 36.9616 32.8833 37.4925 32.8833Z" fill="#196FF1"/>
<path d="M37.4916 13.658C27.4198 13.658 19.2266 21.8514 19.2266 31.923C19.2266 41.9947 27.42 50.1881 37.4916 50.1881C47.5633 50.1881 55.7567 41.9947 55.7567 31.923C55.7567 21.8514 47.5634 13.658 37.4916 13.658ZM37.4916 48.2655C28.4802 48.2655 21.1491 40.9345 21.1491 31.923C21.1491 22.9116 28.4802 15.5805 37.4916 15.5805C46.5031 15.5805 53.8341 22.9116 53.8341 31.923C53.8341 40.9345 46.5031 48.2655 37.4916 48.2655Z" fill="#196FF1"/>
<path d="M37.4901 17.5037C29.5391 17.5037 23.0703 23.9724 23.0703 31.9235C23.0703 39.8745 29.5391 46.3433 37.4901 46.3433C45.4412 46.3433 51.9099 39.8745 51.9099 31.9235C51.9099 23.9724 45.4413 17.5037 37.4901 17.5037ZM49.9873 31.9236C49.9873 32.2485 49.9633 32.5667 49.9384 32.8849H46.1421V30.9622H49.9384C49.9633 31.2805 49.9873 31.5986 49.9873 31.9236ZM46.1421 29.0396C45.0818 29.0396 44.2194 29.9019 44.2194 30.9623V32.885C44.2194 33.9453 45.0816 34.8077 46.1421 34.8077H49.6384C49.3259 36.1218 48.8068 37.3523 48.1156 38.4704L45.6479 36.0026C44.9 35.2548 43.6791 35.2538 42.9283 36.0026L41.5691 37.3619C40.8192 38.1107 40.8192 39.3317 41.5691 40.0805L44.0368 42.5483C42.9188 43.2394 41.6882 43.7595 40.3741 44.071V40.5757C40.3741 39.5153 39.5118 38.653 38.4514 38.653H36.5287C35.4684 38.653 34.606 39.5152 34.606 40.5757V44.0719C33.2919 43.7595 32.0614 43.2404 30.9433 42.5492L33.4111 40.0815C34.1609 39.3326 34.1609 38.1117 33.4111 37.3628L32.0518 36.0036C31.3019 35.2537 30.0811 35.2548 29.3322 36.0036L26.8645 38.4713C26.1733 37.3534 25.6532 36.1228 25.3418 34.8086H28.838C29.8984 34.8086 30.7607 33.9464 30.7607 32.8859V30.9632C30.7607 29.9029 29.8985 29.0405 28.838 29.0405H25.3418C25.6542 27.7264 26.1733 26.495 26.8645 25.3778L29.3322 27.8465C29.7071 28.2214 30.1993 28.4089 30.6925 28.4089C31.1847 28.4089 31.6769 28.2214 32.0518 27.8465L33.4111 26.4873C34.1609 25.7374 34.1609 24.5175 33.4111 23.7677L30.9424 21.3C32.0604 20.6088 33.2909 20.0887 34.6051 19.7772V23.2716C34.6051 24.3319 35.4673 25.1943 36.5278 25.1943H38.4505C39.5108 25.1943 40.3732 24.3321 40.3732 23.2716V19.7753C41.6873 20.0878 42.9187 20.6069 44.0359 21.2981L41.5672 23.7658C40.8173 24.5157 40.8173 25.7356 41.5672 26.4854L42.9264 27.8446C43.3013 28.2195 43.7935 28.407 44.2857 28.407C44.7779 28.407 45.271 28.2195 45.646 27.8446L48.1138 25.376C48.8049 26.4939 49.325 27.7245 49.6365 29.0387H46.1421V29.0396ZM24.9929 31.9236C24.9929 31.5986 25.0169 31.2805 25.0419 30.9623H28.8382V32.885H25.0419C25.017 32.5667 24.9929 32.2484 24.9929 31.9236ZM46.9707 23.8032L44.2877 26.4862L42.9284 25.1259L45.6114 22.4438C46.0978 22.8611 46.5526 23.3158 46.9707 23.8032ZM38.4514 19.4753V23.2716H36.5287V19.4753C36.8469 19.4504 37.1652 19.4264 37.49 19.4264C37.8151 19.4264 38.1332 19.4504 38.4514 19.4753ZM29.3698 22.443L32.0529 25.126L30.6925 26.4853L28.0105 23.8023C28.4278 23.3158 28.8825 22.8611 29.3698 22.443ZM28.0106 40.0439L30.6936 37.3618L32.0529 38.721L29.3698 41.4031C28.8825 40.9859 28.4278 40.5312 28.0106 40.0439ZM36.5288 44.3717V40.5754H38.4515V44.3717C38.1334 44.3967 37.8151 44.4207 37.4902 44.4207C37.1652 44.4207 36.847 44.3967 36.5288 44.3717ZM45.6104 41.4031L42.9274 38.721L44.2877 37.3618L46.9698 40.0439C46.5526 40.5312 46.0978 40.9859 45.6104 41.4031Z" fill="#196FF1"/>
<path d="M47.1094 53.0712C47.1094 54.6612 48.4034 55.9552 49.9934 55.9552C51.5834 55.9552 52.8773 54.6612 52.8773 53.0712C52.8773 51.4812 51.5834 50.1873 49.9934 50.1873C48.4034 50.1873 47.1094 51.4812 47.1094 53.0712ZM50.9546 53.0712C50.9546 53.6019 50.523 54.0325 49.9934 54.0325C49.4637 54.0325 49.0321 53.6019 49.0321 53.0712C49.0321 52.5406 49.4637 52.1099 49.9934 52.1099C50.523 52.1099 50.9546 52.5406 50.9546 53.0712Z" fill="#196FF1"/>
<path d="M11.5312 15.5798H13.4539V17.5025H11.5312V15.5798Z" fill="#196FF1"/>
<path d="M11.5312 19.4255H13.4539V21.3482H11.5312V19.4255Z" fill="#196FF1"/>
<path d="M11.5312 23.2693H13.4539V25.192H11.5312V23.2693Z" fill="#196FF1"/>
<path d="M4.80504 28.0786C5.33594 28.0786 5.76633 27.6482 5.76633 27.1173C5.76633 26.5864 5.33594 26.156 4.80504 26.156C4.27413 26.156 3.84375 26.5864 3.84375 27.1173C3.84375 27.6482 4.27413 28.0786 4.80504 28.0786Z" fill="#196FF1"/>
<path d="M14.4152 40.574C12.8252 40.574 11.5312 41.868 11.5312 43.458C11.5312 45.048 12.8252 46.3419 14.4152 46.3419C16.0052 46.3419 17.2992 45.048 17.2992 43.458C17.2992 41.868 16.0054 40.574 14.4152 40.574ZM14.4152 44.4193C13.8855 44.4193 13.4539 43.9886 13.4539 43.458C13.4539 42.9273 13.8855 42.4967 14.4152 42.4967C14.9449 42.4967 15.3765 42.9273 15.3765 43.458C15.3765 43.9886 14.9449 44.4193 14.4152 44.4193Z" fill="#196FF1"/>
<path d="M20.1877 21.3481C20.7186 21.3481 21.149 20.9177 21.149 20.3868C21.149 19.8559 20.7186 19.4255 20.1877 19.4255C19.6568 19.4255 19.2264 19.8559 19.2264 20.3868C19.2264 20.9177 19.6568 21.3481 20.1877 21.3481Z" fill="#196FF1"/>
<path d="M59.602 18.4642C59.602 17.2404 59.1281 16.1348 58.3725 15.2851L60 13.6575L50.9501 4.60757L47.9565 7.60112L45.6445 5.98323C44.4573 2.6196 41.2552 0.198975 37.4916 0.198975C32.7214 0.198975 28.8396 4.08081 28.8396 8.85093C28.8396 9.75456 28.9809 10.6342 29.2511 11.4792C26.9112 12.4338 24.6858 13.7855 22.6977 15.5802H17.3037V11.7349H7.69055V15.5802H2.88398V22.3094H0V31.9227H3.84527V38.254V38.6519V51.5163L0 53.439V59.801H9.04992L13.4585 55.3924V54.0332H25.4414L29.2867 59.8011H56.718V50.8828L54.8916 47.8383L56.2826 48.1863C56.4932 48.2392 56.7103 48.2652 56.9286 48.2652C58.4024 48.2652 59.602 47.0654 59.602 45.5918V43.5557C59.602 42.5357 59.0358 41.6205 58.1245 41.1648L57.6275 40.9158C60.2904 35.02 60.2154 28.2687 57.4574 22.4555C58.7801 21.5769 59.602 20.1061 59.602 18.4642ZM48.1758 10.1006L50.9502 7.3262L57.2815 13.6575L56.8191 14.1199C56.2018 13.8306 55.5203 13.6575 54.7955 13.6575C53.6014 13.6575 52.4613 14.1094 51.5876 14.8918C49.7947 13.4027 47.8221 12.2491 45.7514 11.4166C46.008 10.5908 46.1436 9.73241 46.1436 8.85081C46.1436 8.79023 46.1359 8.73257 46.135 8.67198L48.1758 10.1006ZM30.7623 8.85093C30.7623 5.14019 33.7808 2.12167 37.4916 2.12167C41.2023 2.12167 44.2208 5.14019 44.2208 8.85093C44.2208 9.51034 44.1209 10.1535 43.9363 10.7726C43.3229 10.5871 42.7038 10.4226 42.079 10.2919C42.2231 9.82944 42.2981 9.34499 42.2981 8.85081C42.2981 6.2005 40.1419 4.04425 37.4916 4.04425C34.8413 4.04425 32.685 6.2005 32.685 8.85081C32.685 9.36421 32.7676 9.86601 32.9244 10.3438C32.2996 10.4794 31.6795 10.6418 31.0652 10.8312C30.8681 10.1939 30.7623 9.53155 30.7623 8.85093ZM34.8595 10.0141C34.698 9.6498 34.6077 9.25757 34.6077 8.85093C34.6077 7.26093 35.9017 5.96694 37.4917 5.96694C39.0817 5.96694 40.3757 7.26093 40.3757 8.85093C40.3757 9.24222 40.2911 9.62097 40.1411 9.9737C38.3876 9.76804 36.6149 9.79581 34.8595 10.0141ZM1.9227 30V24.232H4.80668V17.5028H7.69066V34.4086L5.76797 36.3313V30H1.9227ZM57.264 42.8836C57.5197 43.0114 57.6793 43.2681 57.6793 43.5546V45.5907C57.6793 46.0666 57.192 46.429 56.7469 46.3203L54.6002 45.784C55.4164 44.7775 56.1403 43.7258 56.7546 42.6289L57.264 42.8836ZM52.17 45.6859L51.6759 46.2156L54.7955 51.4154V57.8784H30.3154L26.4701 52.1105H13.4585V50.1109C13.7739 50.1561 14.093 50.1878 14.4198 50.1878C18.1305 50.1878 21.1491 47.1682 21.1491 43.4585H19.2264C19.2264 46.1088 17.0701 48.2651 14.4198 48.2651C11.7695 48.2651 9.61324 46.1088 9.61324 43.4585C9.61324 40.8082 11.7695 38.6519 14.4198 38.6519V36.7292C10.7091 36.7292 7.69055 39.7488 7.69055 43.4585C7.69055 46.1358 9.26613 48.4459 11.5358 49.5293V54.5965L8.25387 57.8784H1.9227V54.6272L5.76797 52.7045V39.0499L9.61324 35.2046V13.6575H15.3812V26.1547H17.3039V17.5028H23.4506L23.7275 17.2441C31.743 9.76311 44.0596 9.93995 51.7664 17.6478C59.4732 25.3549 59.651 37.6704 52.17 45.6859ZM56.5536 20.7492C55.6202 19.1611 54.4916 17.6537 53.1255 16.2887C53.0947 16.2579 53.0602 16.232 53.0295 16.2012C53.5312 15.8108 54.1474 15.5802 54.7954 15.5802C56.3854 15.5802 57.6793 16.8742 57.6793 18.4642C57.6793 19.3822 57.2535 20.2138 56.5536 20.7492Z" fill="#196FF1"/>
<path d="M50.2656 11.4568L51.6249 10.0975L53.547 12.0196L52.1877 13.3789L50.2656 11.4568Z" fill="#196FF1"/>
</g>
<defs>
<clipPath id="clip0_1_600">
<rect width="60" height="60" fill="white"/>
</clipPath>
</defs>
</svg>
