<svg width="60" height="60" viewBox="0 0 60 60" fill="none" xmlns="http://www.w3.org/2000/svg">
<path d="M58.8281 34.6875H55.3125V27.6562H58.8281C59.4754 27.6562 60 27.1317 60 26.4844C60 25.8376 59.4754 25.3125 58.8281 25.3125H55.3125V24.1406C55.3125 23.4933 54.7879 22.9688 54.1406 22.9688H49.4531C48.8058 22.9688 48.2812 23.4933 48.2812 24.1406H39.3755C39.0161 23.6623 38.6238 23.2159 38.2031 22.803V15.9375C38.2031 15.2907 37.6785 14.7656 37.0312 14.7656H33.5156V10.0781H37.0312C38.9699 10.0781 40.5469 8.50113 40.5469 6.5625C40.5469 4.62387 38.9699 3.04688 37.0312 3.04688H33.5156C32.8683 3.04688 32.3438 3.57147 32.3438 4.21875C32.3438 4.86603 32.8683 5.39062 33.5156 5.39062H37.0312C37.6776 5.39062 38.2031 5.91614 38.2031 6.5625C38.2031 7.20886 37.6776 7.73438 37.0312 7.73438H22.9688C22.3228 7.73438 21.7969 7.20886 21.7969 6.5625C21.7969 5.91614 22.3228 5.39062 22.9688 5.39062C23.616 5.39062 24.1406 4.86603 24.1406 4.21875C24.1406 3.57147 23.616 3.04688 22.9688 3.04688C21.0301 3.04688 19.4531 4.62387 19.4531 6.5625C19.4531 8.50113 21.0301 10.0781 22.9688 10.0781H26.4844V14.7656H22.9688C22.3215 14.7656 21.7969 15.2907 21.7969 15.9375V22.803C21.3762 23.2159 20.9839 23.6618 20.625 24.1406H11.7188C11.7188 23.4933 11.1942 22.9688 10.5469 22.9688H5.85938C5.21255 22.9688 4.6875 23.4933 4.6875 24.1406V25.3125H1.17188C0.524597 25.3125 0 25.8376 0 26.4844C0 27.1317 0.524597 27.6562 1.17188 27.6562H4.6875V34.6875H1.17188C0.524597 34.6875 0 35.2121 0 35.8594C0 36.5062 0.524597 37.0312 1.17188 37.0312H4.6875V38.2031C4.6875 38.8504 5.2121 39.375 5.85938 39.375H10.5469C11.1942 39.375 11.7188 38.8504 11.7188 38.2031H20.6245C22.8346 41.1484 26.2907 42.8888 29.994 42.8906C29.9959 42.8906 29.9973 42.8911 29.9991 42.8911C30.0005 42.8911 30.0018 42.8906 30.0032 42.8906C33.7074 42.8897 37.1654 41.1488 39.3755 38.2031H48.2812C48.2812 38.8504 48.8058 39.375 49.4531 39.375H54.1406C54.7879 39.375 55.3125 38.8504 55.3125 38.2031V37.0312H58.8281C59.4754 37.0312 60 36.5062 60 35.8594C60 35.2121 59.4754 34.6875 58.8281 34.6875ZM28.8281 10.0781H31.1719V14.7656H28.8281V10.0781ZM24.1406 17.1094H35.8594V21.0214C34.1048 20.0084 32.092 19.4531 30 19.4531C27.9085 19.4531 25.8952 20.0084 24.1406 21.0214V17.1094ZM9.375 37.0312H7.03125V25.3125H9.375V37.0312ZM38.7703 35.8594C38.3794 35.8594 38.0141 36.0544 37.7966 36.3794C36.47 38.3611 34.4696 39.7353 32.2115 40.2827L32.5392 39.7289C32.7571 39.3608 32.7571 38.9035 32.5392 38.5355L31.3618 36.5451L32.5392 34.5552C32.8688 33.9981 32.6843 33.2794 32.1272 32.9498C31.5706 32.6207 30.8514 32.8047 30.5219 33.3618L28.9915 35.9486C28.7737 36.3167 28.7737 36.774 28.9915 37.142L30.1689 39.1319L29.3459 40.5235C26.4629 40.323 23.8284 38.8069 22.2034 36.3799C21.9859 36.0548 21.6206 35.8598 21.2297 35.8598H11.7188V26.4844H21.2297C21.6206 26.4844 21.9859 26.2894 22.2034 25.9644C23.9502 23.3546 26.8648 21.7969 30 21.7969C33.1348 21.7969 36.0493 23.3546 37.7962 25.9644C38.0136 26.2894 38.3789 26.4844 38.7703 26.4844H48.2812V31.1719H45.352C44.7047 31.1719 44.1801 31.6965 44.1801 32.3438C44.1801 32.991 44.7047 33.5156 45.352 33.5156H48.2812V35.8594H38.7703ZM52.9688 37.0312H50.625V25.3125H52.9688V37.0312Z" fill="#196FF1"/>
<path d="M30.8656 45.6166C30.6436 45.3731 30.3296 45.2344 30 45.2344C29.6704 45.2344 29.3564 45.3731 29.1344 45.6166C29.0735 45.683 29.0071 45.7553 28.9352 45.8336C27.6801 47.1959 25.3436 49.7314 25.3436 52.2972C25.3436 54.8643 27.4324 56.9531 30 56.9531C32.5671 56.9531 34.6559 54.8643 34.6559 52.2972C34.6559 49.7314 32.3199 47.1959 31.0648 45.8336C30.9929 45.7553 30.9265 45.683 30.8656 45.6166ZM30 54.6094C28.7251 54.6094 27.6878 53.5721 27.6878 52.2972C27.6878 50.9807 29.0126 49.276 30 48.1503C30.9874 49.276 32.3126 50.9802 32.3126 52.2972C32.3126 53.5721 31.2749 54.6094 30 54.6094Z" fill="#196FF1"/>
<path d="M40.0786 31.1719H40.0777C39.4304 31.1719 38.9062 31.6965 38.9062 32.3438C38.9062 32.991 39.4313 33.5156 40.0786 33.5156C40.7259 33.5156 41.2505 32.991 41.2505 32.3438C41.2505 31.6965 40.7259 31.1719 40.0786 31.1719Z" fill="#196FF1"/>
<path d="M28.2426 5.39062C28.8899 5.39062 29.4145 4.86603 29.4145 4.21875C29.4145 3.57147 28.8899 3.04688 28.2426 3.04688H28.2417C27.5945 3.04688 27.0703 3.57147 27.0703 4.21875C27.0703 4.86603 27.5954 5.39062 28.2426 5.39062Z" fill="#196FF1"/>
</svg>
