<svg width="60" height="60" viewBox="0 0 60 60" fill="none" xmlns="http://www.w3.org/2000/svg">
<g clip-path="url(#clip0_1_643)">
<path d="M60.0039 36.7852C60.0039 36.7734 60.0039 36.75 60.0039 36.7383C60.0039 36.7266 60.0039 36.7148 60.0039 36.7031C60.0039 36.6797 60.0039 36.668 59.9922 36.6445C59.9922 36.6328 59.9922 36.6211 59.9922 36.6211C59.9922 36.5977 59.9805 36.5625 59.9805 36.5391L51.2148 1.54688C51.0742 0.984375 50.582 0.597656 50.0078 0.597656H10C9.42578 0.597656 8.92188 0.984375 8.79297 1.54688L0.0390625 36.5391C0.0273438 36.5625 0.0273438 36.5977 0.0273438 36.6211C0.0273438 36.6328 0.0273438 36.6445 0.0273438 36.6445C0.0273438 36.6562 0.0273438 36.6797 0.015625 36.6914C0.015625 36.7031 0.015625 36.7148 0.015625 36.7266C0.015625 36.7383 0.015625 36.7617 0.015625 36.7734C0.015625 36.7852 0.015625 36.7969 0.015625 36.8086C0.015625 36.8203 0.015625 36.832 0.015625 36.832V40.582C0.015625 40.9922 0.214844 41.3672 0.542969 41.6016C0.871094 41.8359 1.29297 41.8945 1.67969 41.7656L8.42969 39.4102L15.2383 41.7656C15.4961 41.8594 15.7891 41.8594 16.0586 41.7656L22.832 39.4102L29.6055 41.7656C29.8633 41.8594 30.1562 41.8594 30.4258 41.7656L37.1992 39.4102L43.9727 41.7656C44.2422 41.8594 44.5352 41.8594 44.793 41.7656L51.5664 39.4102L58.3398 41.7656C58.4687 41.8125 58.6094 41.8359 58.75 41.8359C59.0078 41.8359 59.2656 41.7539 59.4766 41.6016C59.8047 41.3672 60.0039 40.9922 60.0039 40.582V36.832C60.0039 36.8203 60.0039 36.8086 60.0039 36.8086C60.0039 36.8086 60.0039 36.7969 60.0039 36.7852ZM56.9805 34.9102L51.9766 33.1641C51.707 33.0703 51.4258 33.0703 51.1562 33.1641L45.4258 35.1562L44.1836 25.1953L49.293 23.4258L54.5781 25.2891L56.9805 34.9102ZM51.7656 14.0625L53.8516 22.3945L49.7148 20.9297C49.4453 20.8359 49.1523 20.8359 48.8945 20.9297L43.8789 22.6641L42.7773 13.9453L47.0547 12.4453L51.7656 14.0625ZM49.0234 3.09375L51.0391 11.168L47.4648 9.9375C47.1953 9.84375 46.9141 9.84375 46.6445 9.9375L42.4609 11.4023L41.418 3.09375H49.0234ZM31.2578 3.09375H38.8984L39.918 11.2617L36.0977 9.9375C35.8398 9.84375 35.5469 9.84375 35.2773 9.9375L31.2578 11.332V3.09375ZM31.2578 13.9805L35.6875 12.4336L40.2695 14.0156L41.3242 22.4883L36.8477 20.918C36.5781 20.8242 36.2852 20.8242 36.0273 20.918L31.2578 22.582V13.9805ZM31.2578 25.2305L36.4375 23.4258L41.6758 25.2539L42.8945 34.9922L37.5977 33.1641C37.3281 33.0703 37.0352 33.0703 36.7773 33.1641L31.2461 35.0859L31.2578 25.2305ZM21.1094 3.09375H28.75V11.332L24.7305 9.9375C24.4727 9.84375 24.1797 9.84375 23.9102 9.9375L20.0898 11.2617L21.1094 3.09375ZM28.75 25.2305V35.0859L23.2305 33.1641C22.9727 33.0703 22.6797 33.0703 22.4102 33.1641L17.1133 35.0039L18.332 25.2656L23.5703 23.4258L28.75 25.2305ZM19.7383 14.0273L24.3203 12.4453L28.75 13.9922V22.5938L23.9805 20.9297C23.7109 20.8359 23.418 20.8359 23.1602 20.9297L18.6836 22.5L19.7383 14.0273ZM10.9844 3.09375H18.5898L17.5469 11.4023L13.3633 9.9375C13.0938 9.84375 12.8125 9.84375 12.543 9.9375L8.95703 11.168L10.9844 3.09375ZM8.24219 14.0625L12.9531 12.4453L17.2305 13.9453L16.1406 22.6641L11.1133 20.9297C10.8438 20.8359 10.5508 20.8359 10.293 20.9297L6.15625 22.3945L8.24219 14.0625ZM5.42969 25.3008L10.7148 23.4375L15.8242 25.1953L14.582 35.1562L8.82813 33.1641C8.69922 33.1172 8.55859 33.0938 8.41797 33.0938C8.27734 33.0938 8.13672 33.1172 8.00781 33.1641L3.03906 34.8984L5.42969 25.3008ZM57.5078 38.8359L51.9766 36.9141C51.707 36.8203 51.4258 36.8203 51.1562 36.9141L44.3828 39.2695L37.5977 36.9141C37.3281 36.8203 37.0352 36.8203 36.7773 36.9141L30.0039 39.2695L23.2305 36.9141C22.9727 36.8203 22.6797 36.8203 22.4102 36.9141L15.6367 39.2695L8.81641 36.9141C8.6875 36.8672 8.54688 36.8438 8.40625 36.8438C8.26562 36.8438 8.125 36.8672 7.99609 36.9141L2.5 38.8359V37.7344L8.40625 35.6719L15.2148 38.0273C15.2266 38.0273 15.2383 38.0391 15.25 38.0391C15.2734 38.0508 15.2969 38.0508 15.3203 38.0625C15.332 38.0625 15.3438 38.0742 15.3672 38.0742C15.3906 38.0742 15.4141 38.0859 15.4375 38.0859C15.4492 38.0859 15.4492 38.0859 15.4609 38.0859C15.4727 38.0859 15.4844 38.0859 15.4961 38.0859C15.5078 38.0859 15.5078 38.0859 15.5195 38.0859C15.5547 38.0859 15.5781 38.0859 15.6133 38.0859C15.6367 38.0859 15.6484 38.0859 15.6719 38.0859C15.6836 38.0859 15.6953 38.0859 15.7188 38.0859C15.7422 38.0859 15.7656 38.0859 15.7891 38.0742C15.8008 38.0742 15.8125 38.0742 15.8242 38.0742C15.8477 38.0742 15.8711 38.0625 15.8945 38.0625C15.9062 38.0625 15.918 38.0625 15.9297 38.0508C15.9531 38.0508 15.9648 38.0391 15.9883 38.0273C16 38.0273 16.0117 38.0273 16.0117 38.0156L22.7852 35.6602L29.5586 38.0156H29.5703C29.582 38.0156 29.6055 38.0273 29.6289 38.0273C29.6523 38.0273 29.6641 38.0391 29.6875 38.0391C29.7109 38.0391 29.7227 38.0508 29.7344 38.0508C29.7578 38.0508 29.7812 38.0625 29.8047 38.0625C29.8164 38.0625 29.8281 38.0625 29.8516 38.0625C29.8867 38.0625 29.9336 38.0625 29.9687 38.0625C30.0039 38.0625 30.0508 38.0625 30.0859 38.0625C30.0977 38.0625 30.1094 38.0625 30.1328 38.0625C30.1562 38.0625 30.1797 38.0508 30.2031 38.0508C30.2148 38.0508 30.2383 38.0391 30.2617 38.0391C30.2852 38.0391 30.2969 38.0273 30.3203 38.0273C30.3438 38.0273 30.3555 38.0156 30.3789 38.0156H30.3906L37.1641 35.6602L43.9375 38.0156C43.9492 38.0156 43.9609 38.0156 43.9609 38.0273C43.9844 38.0273 43.9961 38.0391 44.0195 38.0508C44.0312 38.0508 44.043 38.0508 44.0547 38.0625C44.0781 38.0625 44.1016 38.0742 44.125 38.0742C44.1367 38.0742 44.1484 38.0742 44.1602 38.0742C44.1836 38.0742 44.207 38.0742 44.2305 38.0859C44.2539 38.0859 44.2656 38.0859 44.2891 38.0859C44.3008 38.0859 44.3242 38.0859 44.3359 38.0859C44.3711 38.0859 44.3945 38.0859 44.4297 38.0859C44.4414 38.0859 44.4531 38.0859 44.4531 38.0859C44.4648 38.0859 44.4766 38.0859 44.4883 38.0859C44.5 38.0859 44.5 38.0859 44.5117 38.0859C44.5352 38.0859 44.5703 38.0742 44.5938 38.0742C44.6055 38.0742 44.6172 38.0742 44.6406 38.0625C44.6641 38.0625 44.6875 38.0508 44.7109 38.0391C44.7227 38.0391 44.7344 38.0273 44.7461 38.0273L51.5195 35.6719L57.4609 37.7344L57.5078 38.8359Z" fill="#196FF1"/>
<path d="M32.8477 47.0742C31.6992 45.1289 30.5742 43.5117 30.5273 43.4531C30.4102 43.2773 30.2109 43.1836 30 43.1836C29.7891 43.1836 29.5898 43.2891 29.4727 43.4531C29.4258 43.5234 28.3008 45.1289 27.1523 47.0742C25.5469 49.8047 24.7734 51.7031 24.7734 52.8867C24.7734 55.7695 27.1172 58.125 30.0117 58.125C32.9063 58.125 35.25 55.7812 35.25 52.8867C35.2266 51.6914 34.4531 49.793 32.8477 47.0742ZM30 56.8242C27.8203 56.8242 26.0508 55.0547 26.0508 52.875C26.0508 51.1875 28.5469 47.1094 30 44.9414C31.4531 47.1094 33.9492 51.1875 33.9492 52.875C33.9492 55.0547 32.1797 56.8242 30 56.8242Z" fill="#196FF1" stroke="#196FF1" stroke-miterlimit="10"/>
<path d="M28.5938 54.0361C28.2422 53.6494 28.0547 53.1455 28.0547 52.6181C28.0547 52.583 28.1016 52.1377 28.6289 50.9658C28.7813 50.6377 28.6289 50.2627 28.3125 50.1103C27.9844 49.958 27.6094 50.1103 27.457 50.4267C26.8359 51.7861 26.7656 52.4072 26.7656 52.6064C26.7656 53.4384 27.0703 54.247 27.6211 54.8799C27.75 55.0205 27.9258 55.1025 28.1016 55.1025C28.2539 55.1025 28.4062 55.0439 28.5234 54.9384C28.793 54.7041 28.8281 54.2939 28.5938 54.0361Z" fill="#196FF1" stroke="#196FF1" stroke-width="0.75" stroke-miterlimit="10"/>
</g>
<defs>
<clipPath id="clip0_1_643">
<rect width="60" height="60" fill="white"/>
</clipPath>
</defs>
</svg>
