<svg width="198" height="236" viewBox="0 0 198 236" fill="none" xmlns="http://www.w3.org/2000/svg">
<path d="M15 0.5C6.99187 0.5 0.5 6.99187 0.5 15V221C0.5 229.008 6.99188 235.5 15 235.5H183C191.008 235.5 197.5 229.008 197.5 221V15C197.5 6.99187 191.008 0.5 183 0.5H15Z" fill="white" stroke="#F1F1F4"/>
<path d="M73.8608 21V12.2727H79.4517V13.598H75.4418V15.9673H79.0682V17.2926H75.4418V21H73.8608ZM80.8239 21V14.4545H82.3665V21H80.8239ZM81.5994 13.5256C81.3551 13.5256 81.1449 13.4446 80.9688 13.2827C80.7926 13.1179 80.7045 12.9205 80.7045 12.6903C80.7045 12.4574 80.7926 12.2599 80.9688 12.098C81.1449 11.9332 81.3551 11.8509 81.5994 11.8509C81.8466 11.8509 82.0568 11.9332 82.2301 12.098C82.4063 12.2599 82.4943 12.4574 82.4943 12.6903C82.4943 12.9205 82.4063 13.1179 82.2301 13.2827C82.0568 13.4446 81.8466 13.5256 81.5994 13.5256ZM85.4954 17.1648V21H83.9528V14.4545H85.4272V15.5668H85.5039C85.6545 15.2003 85.8945 14.9091 86.2241 14.6932C86.5565 14.4773 86.967 14.3693 87.4556 14.3693C87.9073 14.3693 88.3008 14.4659 88.636 14.6591C88.9741 14.8523 89.2354 15.1321 89.4201 15.4986C89.6076 15.8651 89.6999 16.3097 89.6971 16.8324V21H88.1545V17.071C88.1545 16.6335 88.0408 16.2912 87.8136 16.044C87.5891 15.7969 87.2781 15.6733 86.8803 15.6733C86.6104 15.6733 86.3704 15.733 86.1602 15.8523C85.9528 15.9687 85.7894 16.1378 85.6701 16.3594C85.5536 16.581 85.4954 16.8494 85.4954 17.1648ZM93.1488 21.1321C92.734 21.1321 92.3604 21.0582 92.0281 20.9105C91.6985 20.7599 91.4371 20.5384 91.244 20.2457C91.0536 19.9531 90.9585 19.5923 90.9585 19.1634C90.9585 18.794 91.0266 18.4886 91.163 18.2472C91.2994 18.0057 91.4854 17.8125 91.7212 17.6676C91.957 17.5227 92.2227 17.4134 92.5181 17.3395C92.8164 17.2628 93.1246 17.2074 93.4428 17.1733C93.8263 17.1335 94.1374 17.098 94.3761 17.0668C94.6147 17.0327 94.788 16.9815 94.896 16.9134C95.0067 16.8423 95.0621 16.733 95.0621 16.5852V16.5597C95.0621 16.2386 94.967 15.9901 94.7766 15.8139C94.5863 15.6378 94.3121 15.5497 93.9542 15.5497C93.5763 15.5497 93.2766 15.6321 93.055 15.7969C92.8363 15.9616 92.6886 16.1562 92.6119 16.3807L91.1715 16.1761C91.2852 15.7784 91.4727 15.446 91.734 15.179C91.9954 14.9091 92.315 14.7074 92.6928 14.5739C93.0707 14.4375 93.4883 14.3693 93.9457 14.3693C94.261 14.3693 94.5749 14.4062 94.8874 14.4801C95.1999 14.554 95.4854 14.6761 95.744 14.8466C96.0025 15.0142 96.2099 15.2429 96.3661 15.5327C96.5252 15.8224 96.6048 16.1847 96.6048 16.6193V21H95.1218V20.1009H95.0707C94.9769 20.2827 94.8448 20.4531 94.6744 20.6122C94.5067 20.7685 94.2951 20.8949 94.0394 20.9915C93.7866 21.0852 93.4897 21.1321 93.1488 21.1321ZM93.5494 19.9986C93.859 19.9986 94.1275 19.9375 94.3548 19.8153C94.582 19.6903 94.7567 19.5256 94.8789 19.321C95.0039 19.1165 95.0664 18.8935 95.0664 18.652V17.8807C95.0181 17.9205 94.9357 17.9574 94.8192 17.9915C94.7056 18.0256 94.5778 18.0554 94.4357 18.081C94.2937 18.1065 94.1531 18.1293 94.0138 18.1491C93.8746 18.169 93.7539 18.1861 93.6516 18.2003C93.4215 18.2315 93.2156 18.2827 93.0337 18.3537C92.8519 18.4247 92.7085 18.5241 92.6033 18.652C92.4982 18.777 92.4457 18.9389 92.4457 19.1378C92.4457 19.4219 92.5494 19.6364 92.7567 19.7812C92.9641 19.9261 93.2283 19.9986 93.5494 19.9986ZM99.6985 17.1648V21H98.1559V14.4545H99.6303V15.5668H99.707C99.8576 15.2003 100.098 14.9091 100.427 14.6932C100.76 14.4773 101.17 14.3693 101.659 14.3693C102.11 14.3693 102.504 14.4659 102.839 14.6591C103.177 14.8523 103.439 15.1321 103.623 15.4986C103.811 15.8651 103.903 16.3097 103.9 16.8324V21H102.358V17.071C102.358 16.6335 102.244 16.2912 102.017 16.044C101.792 15.7969 101.481 15.6733 101.083 15.6733C100.814 15.6733 100.574 15.733 100.363 15.8523C100.156 15.9687 99.9925 16.1378 99.8732 16.3594C99.7567 16.581 99.6985 16.8494 99.6985 17.1648ZM108.324 21.1278C107.67 21.1278 107.109 20.9844 106.64 20.6974C106.174 20.4105 105.815 20.0142 105.562 19.5085C105.312 19 105.187 18.4148 105.187 17.7528C105.187 17.0881 105.315 16.5014 105.571 15.9929C105.826 15.4815 106.187 15.0838 106.653 14.7997C107.122 14.5128 107.676 14.3693 108.315 14.3693C108.846 14.3693 109.316 14.4673 109.725 14.6634C110.137 14.8565 110.466 15.1307 110.71 15.4858C110.954 15.8381 111.093 16.25 111.127 16.7216H109.653C109.593 16.4062 109.451 16.1435 109.227 15.9332C109.005 15.7202 108.708 15.6136 108.336 15.6136C108.021 15.6136 107.744 15.6989 107.505 15.8693C107.267 16.0369 107.081 16.2784 106.947 16.5938C106.816 16.9091 106.751 17.2869 106.751 17.7273C106.751 18.1733 106.816 18.5568 106.947 18.8778C107.078 19.196 107.261 19.4418 107.497 19.6151C107.735 19.7855 108.015 19.8707 108.336 19.8707C108.564 19.8707 108.767 19.8281 108.946 19.7429C109.127 19.6548 109.279 19.5284 109.402 19.3636C109.524 19.1989 109.608 18.9986 109.653 18.7628H111.127C111.091 19.2259 110.954 19.6364 110.718 19.9943C110.483 20.3494 110.162 20.6278 109.755 20.8295C109.349 21.0284 108.872 21.1278 108.324 21.1278ZM115.292 21.1278C114.636 21.1278 114.069 20.9915 113.592 20.7188C113.117 20.4432 112.752 20.054 112.496 19.5511C112.241 19.0455 112.113 18.4503 112.113 17.7656C112.113 17.0923 112.241 16.5014 112.496 15.9929C112.755 15.4815 113.116 15.0838 113.579 14.7997C114.042 14.5128 114.586 14.3693 115.211 14.3693C115.614 14.3693 115.995 14.4347 116.353 14.5653C116.714 14.6932 117.032 14.892 117.308 15.1619C117.586 15.4318 117.805 15.7756 117.964 16.1932C118.123 16.608 118.202 17.1023 118.202 17.6761V18.1491H112.837V17.1094H116.724C116.721 16.8139 116.657 16.5511 116.532 16.321C116.407 16.0881 116.232 15.9048 116.008 15.7713C115.786 15.6378 115.528 15.571 115.232 15.571C114.917 15.571 114.64 15.6477 114.401 15.8011C114.163 15.9517 113.977 16.1506 113.843 16.3977C113.712 16.642 113.646 16.9105 113.643 17.2031V18.1108C113.643 18.4915 113.712 18.8182 113.852 19.0909C113.991 19.3608 114.185 19.5682 114.435 19.7131C114.685 19.8551 114.978 19.9261 115.313 19.9261C115.538 19.9261 115.741 19.8949 115.923 19.8324C116.104 19.767 116.262 19.6719 116.396 19.5469C116.529 19.4219 116.63 19.267 116.698 19.0824L118.138 19.2443C118.048 19.625 117.874 19.9574 117.619 20.2415C117.366 20.5227 117.042 20.7415 116.647 20.8977C116.252 21.0511 115.8 21.1278 115.292 21.1278ZM124.681 16.1847L123.275 16.3381C123.235 16.196 123.165 16.0625 123.066 15.9375C122.969 15.8125 122.838 15.7116 122.674 15.6349C122.509 15.5582 122.307 15.5199 122.069 15.5199C121.748 15.5199 121.478 15.5895 121.259 15.7287C121.043 15.8679 120.936 16.0483 120.939 16.2699C120.936 16.4602 121.006 16.6151 121.148 16.7344C121.293 16.8537 121.532 16.9517 121.864 17.0284L122.98 17.267C123.6 17.4006 124.06 17.6122 124.361 17.902C124.665 18.1918 124.819 18.571 124.821 19.0398C124.819 19.4517 124.698 19.8153 124.459 20.1307C124.223 20.4432 123.895 20.6875 123.475 20.8636C123.054 21.0398 122.571 21.1278 122.026 21.1278C121.225 21.1278 120.58 20.9602 120.091 20.625C119.603 20.2869 119.311 19.8168 119.218 19.2145L120.722 19.0696C120.79 19.3651 120.935 19.5881 121.157 19.7386C121.378 19.8892 121.667 19.9645 122.022 19.9645C122.388 19.9645 122.682 19.8892 122.904 19.7386C123.128 19.5881 123.24 19.402 123.24 19.1804C123.24 18.9929 123.168 18.8381 123.023 18.7159C122.881 18.5937 122.659 18.5 122.358 18.4347L121.242 18.2003C120.614 18.0696 120.15 17.8494 119.848 17.5398C119.547 17.2273 119.398 16.8324 119.401 16.3551C119.398 15.9517 119.507 15.6023 119.729 15.3068C119.953 15.0085 120.265 14.7784 120.662 14.6165C121.063 14.4517 121.525 14.3693 122.047 14.3693C122.814 14.3693 123.418 14.5327 123.858 14.8594C124.301 15.1861 124.576 15.6278 124.681 16.1847Z" fill="#373737"/>
<circle cx="50" cy="195.5" r="2" fill="#6A65FF"/>
<path d="M56.8789 200V192H59.7305C60.3503 192 60.8646 192.107 61.2734 192.32C61.6849 192.534 61.9922 192.829 62.1953 193.207C62.3984 193.582 62.5 194.016 62.5 194.508C62.5 194.997 62.3971 195.428 62.1914 195.801C61.9883 196.171 61.681 196.458 61.2695 196.664C60.8607 196.87 60.3464 196.973 59.7266 196.973H57.5664V195.934H59.6172C60.0078 195.934 60.3255 195.878 60.5703 195.766C60.8177 195.654 60.9987 195.491 61.1133 195.277C61.2279 195.064 61.2852 194.807 61.2852 194.508C61.2852 194.206 61.2266 193.944 61.1094 193.723C60.9948 193.501 60.8138 193.332 60.5664 193.215C60.3216 193.095 60 193.035 59.6016 193.035H58.0859V200H56.8789ZM60.8281 196.391L62.8047 200H61.4297L59.4922 196.391H60.8281ZM66.3857 200.121C65.7946 200.121 65.2855 199.995 64.8584 199.742C64.4339 199.487 64.1058 199.129 63.874 198.668C63.6449 198.204 63.5303 197.661 63.5303 197.039C63.5303 196.424 63.6449 195.883 63.874 195.414C64.1058 194.945 64.4287 194.579 64.8428 194.316C65.2594 194.053 65.7464 193.922 66.3037 193.922C66.6423 193.922 66.9704 193.978 67.2881 194.09C67.6058 194.202 67.891 194.378 68.1436 194.617C68.3962 194.857 68.5954 195.168 68.7412 195.551C68.887 195.931 68.96 196.393 68.96 196.937V197.352H64.1904V196.477H67.8154C67.8154 196.169 67.7529 195.897 67.6279 195.66C67.5029 195.421 67.3271 195.232 67.1006 195.094C66.8766 194.956 66.6136 194.887 66.3115 194.887C65.9834 194.887 65.6969 194.967 65.4521 195.129C65.21 195.288 65.0225 195.496 64.8896 195.754C64.7594 196.009 64.6943 196.286 64.6943 196.586V197.27C64.6943 197.671 64.7646 198.012 64.9053 198.293C65.0485 198.574 65.2477 198.789 65.5029 198.937C65.7581 199.083 66.0563 199.156 66.3975 199.156C66.6188 199.156 66.8206 199.125 67.0029 199.062C67.1852 198.997 67.3428 198.901 67.4756 198.773C67.6084 198.646 67.71 198.488 67.7803 198.301L68.8857 198.5C68.7972 198.826 68.6383 199.111 68.4092 199.355C68.1826 199.598 67.8975 199.786 67.5537 199.922C67.2126 200.055 66.8232 200.121 66.3857 200.121ZM72.7832 200.121C72.2025 200.121 71.7025 199.99 71.2832 199.727C70.8665 199.461 70.5462 199.095 70.3223 198.629C70.0983 198.163 69.9863 197.629 69.9863 197.027C69.9863 196.418 70.1009 195.88 70.3301 195.414C70.5592 194.945 70.8822 194.579 71.2988 194.316C71.7155 194.053 72.2064 193.922 72.7715 193.922C73.2272 193.922 73.6335 194.007 73.9902 194.176C74.347 194.342 74.6348 194.577 74.8535 194.879C75.0749 195.181 75.2064 195.534 75.248 195.937H74.1113C74.0488 195.656 73.9056 195.414 73.6816 195.211C73.4603 195.008 73.1634 194.906 72.791 194.906C72.4655 194.906 72.1803 194.992 71.9355 195.164C71.6934 195.333 71.5046 195.576 71.3691 195.891C71.2337 196.203 71.166 196.573 71.166 197C71.166 197.437 71.2324 197.815 71.3652 198.133C71.498 198.451 71.6855 198.697 71.9277 198.871C72.1725 199.046 72.4603 199.133 72.791 199.133C73.0124 199.133 73.2129 199.092 73.3926 199.012C73.5749 198.928 73.7272 198.81 73.8496 198.656C73.9746 198.503 74.0618 198.318 74.1113 198.102H75.248C75.2064 198.49 75.0801 198.836 74.8691 199.141C74.6582 199.445 74.3757 199.685 74.0215 199.859C73.6699 200.034 73.2572 200.121 72.7832 200.121ZM79.083 200.121C78.4919 200.121 77.9827 199.995 77.5557 199.742C77.1312 199.487 76.8031 199.129 76.5713 198.668C76.3421 198.204 76.2275 197.661 76.2275 197.039C76.2275 196.424 76.3421 195.883 76.5713 195.414C76.8031 194.945 77.126 194.579 77.54 194.316C77.9567 194.053 78.4437 193.922 79.001 193.922C79.3395 193.922 79.6676 193.978 79.9854 194.09C80.3031 194.202 80.5882 194.378 80.8408 194.617C81.0934 194.857 81.2926 195.168 81.4385 195.551C81.5843 195.931 81.6572 196.393 81.6572 196.937V197.352H76.8877V196.477H80.5127C80.5127 196.169 80.4502 195.897 80.3252 195.66C80.2002 195.421 80.0244 195.232 79.7979 195.094C79.5739 194.956 79.3109 194.887 79.0088 194.887C78.6807 194.887 78.3942 194.967 78.1494 195.129C77.9072 195.288 77.7197 195.496 77.5869 195.754C77.4567 196.009 77.3916 196.286 77.3916 196.586V197.27C77.3916 197.671 77.4619 198.012 77.6025 198.293C77.7458 198.574 77.945 198.789 78.2002 198.937C78.4554 199.083 78.7536 199.156 79.0947 199.156C79.3161 199.156 79.5179 199.125 79.7002 199.062C79.8825 198.997 80.04 198.901 80.1729 198.773C80.3057 198.646 80.4072 198.488 80.4775 198.301L81.583 198.5C81.4945 198.826 81.3356 199.111 81.1064 199.355C80.8799 199.598 80.5947 199.786 80.251 199.922C79.9098 200.055 79.5205 200.121 79.083 200.121ZM82.9531 200V194H84.1211V200H82.9531ZM83.543 193.074C83.3398 193.074 83.1654 193.007 83.0195 192.871C82.8763 192.733 82.8047 192.569 82.8047 192.379C82.8047 192.186 82.8763 192.022 83.0195 191.887C83.1654 191.749 83.3398 191.68 83.543 191.68C83.7461 191.68 83.9193 191.749 84.0625 191.887C84.2083 192.022 84.2813 192.186 84.2813 192.379C84.2813 192.569 84.2083 192.733 84.0625 192.871C83.9193 193.007 83.7461 193.074 83.543 193.074ZM90.8252 194L88.6494 200H87.3994L85.2197 194H86.4736L87.9932 198.617H88.0557L89.5713 194H90.8252ZM94.3047 200.121C93.7135 200.121 93.2044 199.995 92.7773 199.742C92.3529 199.487 92.0247 199.129 91.793 198.668C91.5638 198.204 91.4492 197.661 91.4492 197.039C91.4492 196.424 91.5638 195.883 91.793 195.414C92.0247 194.945 92.3477 194.579 92.7617 194.316C93.1784 194.053 93.6654 193.922 94.2227 193.922C94.5612 193.922 94.8893 193.978 95.207 194.09C95.5247 194.202 95.8099 194.378 96.0625 194.617C96.3151 194.857 96.5143 195.168 96.6602 195.551C96.806 195.931 96.8789 196.393 96.8789 196.937V197.352H92.1094V196.477H95.7344C95.7344 196.169 95.6719 195.897 95.5469 195.66C95.4219 195.421 95.2461 195.232 95.0195 195.094C94.7956 194.956 94.5326 194.887 94.2305 194.887C93.9023 194.887 93.6159 194.967 93.3711 195.129C93.1289 195.288 92.9414 195.496 92.8086 195.754C92.6784 196.009 92.6133 196.286 92.6133 196.586V197.27C92.6133 197.671 92.6836 198.012 92.8242 198.293C92.9674 198.574 93.1667 198.789 93.4219 198.937C93.6771 199.083 93.9753 199.156 94.3164 199.156C94.5378 199.156 94.7396 199.125 94.9219 199.062C95.1042 198.997 95.2617 198.901 95.3945 198.773C95.5273 198.646 95.6289 198.488 95.6992 198.301L96.8047 198.5C96.7161 198.826 96.5573 199.111 96.3281 199.355C96.1016 199.598 95.8164 199.786 95.4727 199.922C95.1315 200.055 94.7422 200.121 94.3047 200.121ZM100.421 200.117C99.9365 200.117 99.5042 199.993 99.124 199.746C98.7464 199.496 98.4495 199.141 98.2334 198.68C98.0199 198.216 97.9131 197.66 97.9131 197.012C97.9131 196.363 98.0212 195.809 98.2373 195.348C98.4561 194.887 98.7555 194.534 99.1357 194.289C99.516 194.044 99.9469 193.922 100.429 193.922C100.801 193.922 101.101 193.984 101.327 194.109C101.556 194.232 101.733 194.375 101.858 194.539C101.986 194.703 102.085 194.848 102.155 194.973H102.226V192H103.394V200H102.253V199.066H102.155C102.085 199.194 101.983 199.34 101.851 199.504C101.72 199.668 101.541 199.811 101.312 199.934C101.082 200.056 100.785 200.117 100.421 200.117ZM100.679 199.121C101.015 199.121 101.299 199.033 101.53 198.855C101.765 198.676 101.942 198.427 102.062 198.109C102.184 197.792 102.245 197.422 102.245 197C102.245 196.583 102.185 196.219 102.065 195.906C101.946 195.594 101.77 195.35 101.538 195.176C101.306 195.001 101.02 194.914 100.679 194.914C100.327 194.914 100.034 195.005 99.7998 195.188C99.5654 195.37 99.3883 195.618 99.2686 195.934C99.1514 196.249 99.0928 196.604 99.0928 197C99.0928 197.401 99.1527 197.762 99.2725 198.082C99.3923 198.402 99.5693 198.656 99.8037 198.844C100.041 199.029 100.332 199.121 100.679 199.121ZM107.972 202.25V194H109.112V194.973H109.21C109.278 194.848 109.375 194.703 109.503 194.539C109.631 194.375 109.808 194.232 110.034 194.109C110.261 193.984 110.56 193.922 110.933 193.922C111.417 193.922 111.849 194.044 112.229 194.289C112.61 194.534 112.908 194.887 113.124 195.348C113.343 195.809 113.452 196.363 113.452 197.012C113.452 197.66 113.344 198.216 113.128 198.68C112.912 199.141 112.615 199.496 112.237 199.746C111.86 199.993 111.429 200.117 110.944 200.117C110.58 200.117 110.282 200.056 110.05 199.934C109.821 199.811 109.641 199.668 109.511 199.504C109.381 199.34 109.28 199.194 109.21 199.066H109.14V202.25H107.972ZM109.116 197C109.116 197.422 109.177 197.792 109.3 198.109C109.422 198.427 109.599 198.676 109.831 198.855C110.063 199.033 110.347 199.121 110.683 199.121C111.032 199.121 111.323 199.029 111.558 198.844C111.792 198.656 111.969 198.402 112.089 198.082C112.211 197.762 112.272 197.401 112.272 197C112.272 196.604 112.213 196.249 112.093 195.934C111.976 195.618 111.799 195.37 111.562 195.188C111.327 195.005 111.034 194.914 110.683 194.914C110.344 194.914 110.058 195.001 109.823 195.176C109.591 195.35 109.416 195.594 109.296 195.906C109.176 196.219 109.116 196.583 109.116 197ZM116.507 200.133C116.127 200.133 115.783 200.063 115.476 199.922C115.168 199.779 114.925 199.572 114.745 199.301C114.568 199.03 114.479 198.698 114.479 198.305C114.479 197.966 114.545 197.687 114.675 197.469C114.805 197.25 114.981 197.077 115.202 196.949C115.424 196.822 115.671 196.725 115.944 196.66C116.218 196.595 116.496 196.546 116.78 196.512C117.14 196.47 117.431 196.436 117.655 196.41C117.879 196.382 118.042 196.336 118.144 196.273C118.245 196.211 118.296 196.109 118.296 195.969V195.941C118.296 195.6 118.2 195.336 118.007 195.148C117.817 194.961 117.533 194.867 117.155 194.867C116.762 194.867 116.452 194.954 116.226 195.129C116.002 195.301 115.847 195.492 115.761 195.703L114.663 195.453C114.793 195.089 114.983 194.794 115.233 194.57C115.486 194.344 115.776 194.18 116.104 194.078C116.433 193.974 116.778 193.922 117.14 193.922C117.379 193.922 117.633 193.951 117.901 194.008C118.172 194.062 118.425 194.164 118.659 194.312C118.896 194.461 119.09 194.673 119.241 194.949C119.392 195.223 119.468 195.578 119.468 196.016V200H118.327V199.18H118.28C118.205 199.331 118.091 199.479 117.94 199.625C117.789 199.771 117.595 199.892 117.358 199.988C117.121 200.085 116.838 200.133 116.507 200.133ZM116.761 199.195C117.084 199.195 117.36 199.132 117.589 199.004C117.821 198.876 117.996 198.71 118.116 198.504C118.239 198.296 118.3 198.073 118.3 197.836V197.062C118.258 197.104 118.177 197.143 118.058 197.18C117.94 197.214 117.806 197.243 117.655 197.27C117.504 197.293 117.357 197.315 117.214 197.336C117.071 197.354 116.951 197.37 116.854 197.383C116.628 197.411 116.421 197.46 116.233 197.527C116.049 197.595 115.9 197.693 115.788 197.82C115.679 197.945 115.624 198.112 115.624 198.32C115.624 198.609 115.731 198.828 115.944 198.977C116.158 199.122 116.43 199.195 116.761 199.195ZM121.547 202.25C121.372 202.25 121.214 202.236 121.07 202.207C120.927 202.181 120.82 202.152 120.75 202.121L121.031 201.164C121.245 201.221 121.435 201.246 121.602 201.238C121.768 201.23 121.915 201.168 122.043 201.051C122.173 200.934 122.288 200.742 122.387 200.477L122.531 200.078L120.336 194H121.586L123.105 198.656H123.168L124.688 194H125.941L123.469 200.801C123.354 201.113 123.208 201.378 123.031 201.594C122.854 201.813 122.643 201.977 122.398 202.086C122.154 202.195 121.87 202.25 121.547 202.25ZM129.362 200.121C128.8 200.121 128.309 199.992 127.89 199.734C127.47 199.477 127.145 199.116 126.913 198.652C126.681 198.189 126.565 197.647 126.565 197.027C126.565 196.405 126.681 195.861 126.913 195.395C127.145 194.928 127.47 194.566 127.89 194.309C128.309 194.051 128.8 193.922 129.362 193.922C129.925 193.922 130.416 194.051 130.835 194.309C131.254 194.566 131.58 194.928 131.812 195.395C132.043 195.861 132.159 196.405 132.159 197.027C132.159 197.647 132.043 198.189 131.812 198.652C131.58 199.116 131.254 199.477 130.835 199.734C130.416 199.992 129.925 200.121 129.362 200.121ZM129.366 199.141C129.731 199.141 130.033 199.044 130.272 198.852C130.512 198.659 130.689 198.402 130.804 198.082C130.921 197.762 130.979 197.409 130.979 197.023C130.979 196.641 130.921 196.289 130.804 195.969C130.689 195.646 130.512 195.387 130.272 195.191C130.033 194.996 129.731 194.898 129.366 194.898C128.999 194.898 128.694 194.996 128.452 195.191C128.213 195.387 128.034 195.646 127.917 195.969C127.802 196.289 127.745 196.641 127.745 197.023C127.745 197.409 127.802 197.762 127.917 198.082C128.034 198.402 128.213 198.659 128.452 198.852C128.694 199.044 128.999 199.141 129.366 199.141ZM137.264 197.512V194H138.436V200H137.287V198.961H137.225C137.087 199.281 136.865 199.548 136.561 199.762C136.258 199.973 135.882 200.078 135.432 200.078C135.046 200.078 134.705 199.993 134.408 199.824C134.114 199.652 133.882 199.398 133.713 199.062C133.546 198.727 133.463 198.311 133.463 197.816V194H134.631V197.676C134.631 198.085 134.744 198.41 134.971 198.652C135.197 198.895 135.492 199.016 135.854 199.016C136.072 199.016 136.29 198.961 136.506 198.852C136.725 198.742 136.906 198.577 137.049 198.355C137.195 198.134 137.266 197.853 137.264 197.512ZM142.806 194V194.937H139.528V194H142.806ZM140.407 192.562H141.575V198.238C141.575 198.465 141.609 198.635 141.677 198.75C141.744 198.862 141.832 198.939 141.938 198.98C142.048 199.02 142.166 199.039 142.294 199.039C142.388 199.039 142.47 199.033 142.54 199.02C142.61 199.007 142.665 198.996 142.704 198.988L142.915 199.953C142.847 199.979 142.751 200.005 142.626 200.031C142.501 200.06 142.345 200.076 142.157 200.078C141.85 200.083 141.563 200.029 141.298 199.914C141.032 199.799 140.817 199.622 140.653 199.383C140.489 199.143 140.407 198.842 140.407 198.48V192.562ZM148.497 195.465L147.438 195.652C147.394 195.517 147.324 195.388 147.228 195.266C147.134 195.143 147.006 195.043 146.845 194.965C146.683 194.887 146.481 194.848 146.239 194.848C145.909 194.848 145.632 194.922 145.411 195.07C145.19 195.216 145.079 195.405 145.079 195.637C145.079 195.837 145.153 195.999 145.302 196.121C145.45 196.243 145.69 196.344 146.021 196.422L146.974 196.641C147.526 196.768 147.937 196.965 148.208 197.23C148.479 197.496 148.614 197.841 148.614 198.266C148.614 198.625 148.51 198.945 148.302 199.227C148.096 199.505 147.808 199.724 147.438 199.883C147.071 200.042 146.646 200.121 146.161 200.121C145.489 200.121 144.941 199.978 144.517 199.691C144.092 199.402 143.832 198.992 143.735 198.461L144.864 198.289C144.935 198.583 145.079 198.806 145.298 198.957C145.517 199.105 145.802 199.18 146.153 199.18C146.536 199.18 146.842 199.1 147.071 198.941C147.3 198.78 147.415 198.583 147.415 198.352C147.415 198.164 147.345 198.007 147.204 197.879C147.066 197.751 146.854 197.655 146.567 197.59L145.552 197.367C144.992 197.24 144.578 197.036 144.31 196.758C144.044 196.479 143.911 196.126 143.911 195.699C143.911 195.345 144.01 195.035 144.208 194.77C144.406 194.504 144.679 194.297 145.028 194.148C145.377 193.997 145.777 193.922 146.228 193.922C146.876 193.922 147.386 194.062 147.759 194.344C148.131 194.622 148.377 194.996 148.497 195.465Z" fill="#373737"/>
<circle cx="50" cy="214.5" r="2" fill="#DAD3FF"/>
<path d="M58.4453 219L56.2266 211H57.4961L59.0547 217.195H59.1289L60.75 211H62.0078L63.6289 217.199H63.7031L65.2578 211H66.5313L64.3086 219H63.0938L61.4102 213.008H61.3477L59.6641 219H58.4453ZM67.5381 219V213H68.7061V219H67.5381ZM68.1279 212.074C67.9248 212.074 67.7503 212.007 67.6045 211.871C67.4613 211.733 67.3896 211.569 67.3896 211.379C67.3896 211.186 67.4613 211.022 67.6045 210.887C67.7503 210.749 67.9248 210.68 68.1279 210.68C68.3311 210.68 68.5042 210.749 68.6475 210.887C68.7933 211.022 68.8662 211.186 68.8662 211.379C68.8662 211.569 68.7933 211.733 68.6475 211.871C68.5042 212.007 68.3311 212.074 68.1279 212.074ZM73.0781 213V213.937H69.8008V213H73.0781ZM70.6797 211.562H71.8477V217.238C71.8477 217.465 71.8815 217.635 71.9492 217.75C72.0169 217.862 72.1042 217.939 72.2109 217.98C72.3203 218.02 72.4388 218.039 72.5664 218.039C72.6602 218.039 72.7422 218.033 72.8125 218.02C72.8828 218.007 72.9375 217.996 72.9766 217.988L73.1875 218.953C73.1198 218.979 73.0234 219.005 72.8984 219.031C72.7734 219.06 72.6172 219.076 72.4297 219.078C72.1224 219.083 71.8359 219.029 71.5703 218.914C71.3047 218.799 71.0898 218.622 70.9258 218.383C70.7617 218.143 70.6797 217.842 70.6797 217.48V211.562ZM75.667 215.437V219H74.499V211H75.6514V213.977H75.7256C75.8662 213.654 76.0811 213.397 76.3701 213.207C76.6592 213.017 77.0368 212.922 77.5029 212.922C77.9144 212.922 78.2738 213.007 78.5811 213.176C78.891 213.345 79.1305 213.598 79.2998 213.934C79.4717 214.267 79.5576 214.684 79.5576 215.184V219H78.3896V215.324C78.3896 214.884 78.2764 214.543 78.0498 214.301C77.8232 214.056 77.5081 213.934 77.1045 213.934C76.8285 213.934 76.5811 213.992 76.3623 214.109C76.1462 214.227 75.9756 214.398 75.8506 214.625C75.7282 214.849 75.667 215.12 75.667 215.437ZM83.3623 219.117C82.8779 219.117 82.4456 218.993 82.0654 218.746C81.6878 218.496 81.391 218.141 81.1748 217.68C80.9613 217.216 80.8545 216.66 80.8545 216.012C80.8545 215.363 80.9626 214.809 81.1787 214.348C81.3975 213.887 81.6969 213.534 82.0771 213.289C82.4574 213.044 82.8883 212.922 83.3701 212.922C83.7425 212.922 84.042 212.984 84.2686 213.109C84.4977 213.232 84.6748 213.375 84.7998 213.539C84.9274 213.703 85.0264 213.848 85.0967 213.973H85.167V211H86.335V219H85.1943V218.066H85.0967C85.0264 218.194 84.9248 218.34 84.792 218.504C84.6618 218.668 84.4821 218.811 84.2529 218.934C84.0238 219.056 83.7269 219.117 83.3623 219.117ZM83.6201 218.121C83.9561 218.121 84.2399 218.033 84.4717 217.855C84.7061 217.676 84.8831 217.427 85.0029 217.109C85.1253 216.792 85.1865 216.422 85.1865 216C85.1865 215.583 85.1266 215.219 85.0068 214.906C84.887 214.594 84.7113 214.35 84.4795 214.176C84.2477 214.001 83.9613 213.914 83.6201 213.914C83.2686 213.914 82.9756 214.005 82.7412 214.188C82.5068 214.37 82.3298 214.618 82.21 214.934C82.0928 215.249 82.0342 215.604 82.0342 216C82.0342 216.401 82.0941 216.762 82.2139 217.082C82.3337 217.402 82.5107 217.656 82.7451 217.844C82.9821 218.029 83.2738 218.121 83.6201 218.121ZM88.002 219V213H89.1309V213.953H89.1934C89.3027 213.63 89.4954 213.376 89.7715 213.191C90.0501 213.004 90.3652 212.91 90.7168 212.91C90.7897 212.91 90.8757 212.913 90.9746 212.918C91.0762 212.923 91.1556 212.93 91.2129 212.937V214.055C91.166 214.042 91.0827 214.027 90.9629 214.012C90.8431 213.993 90.7233 213.984 90.6035 213.984C90.3275 213.984 90.0814 214.043 89.8652 214.16C89.6517 214.275 89.4824 214.435 89.3574 214.641C89.2324 214.844 89.1699 215.076 89.1699 215.336V219H88.002ZM93.916 219.133C93.5358 219.133 93.1921 219.063 92.8848 218.922C92.5775 218.779 92.334 218.572 92.1543 218.301C91.9772 218.03 91.8887 217.698 91.8887 217.305C91.8887 216.966 91.9538 216.687 92.084 216.469C92.2142 216.25 92.39 216.077 92.6113 215.949C92.8327 215.822 93.0801 215.725 93.3535 215.66C93.627 215.595 93.9056 215.546 94.1895 215.512C94.5488 215.47 94.8405 215.436 95.0645 215.41C95.2884 215.382 95.4512 215.336 95.5527 215.273C95.6543 215.211 95.7051 215.109 95.7051 214.969V214.941C95.7051 214.6 95.6087 214.336 95.416 214.148C95.2259 213.961 94.9421 213.867 94.5645 213.867C94.1712 213.867 93.8613 213.954 93.6348 214.129C93.4108 214.301 93.2559 214.492 93.1699 214.703L92.0723 214.453C92.2025 214.089 92.3926 213.794 92.6426 213.57C92.8952 213.344 93.1855 213.18 93.5137 213.078C93.8418 212.974 94.1868 212.922 94.5488 212.922C94.7884 212.922 95.0423 212.951 95.3105 213.008C95.5814 213.062 95.834 213.164 96.0684 213.312C96.3053 213.461 96.4993 213.673 96.6504 213.949C96.8014 214.223 96.877 214.578 96.877 215.016V219H95.7363V218.18H95.6895C95.6139 218.331 95.5007 218.479 95.3496 218.625C95.1986 218.771 95.0046 218.892 94.7676 218.988C94.5306 219.085 94.2467 219.133 93.916 219.133ZM94.1699 218.195C94.4928 218.195 94.7689 218.132 94.998 218.004C95.2298 217.876 95.4056 217.71 95.5254 217.504C95.6478 217.296 95.709 217.073 95.709 216.836V216.062C95.6673 216.104 95.5866 216.143 95.4668 216.18C95.3496 216.214 95.2155 216.243 95.0645 216.27C94.9134 216.293 94.7663 216.315 94.623 216.336C94.4798 216.354 94.36 216.37 94.2637 216.383C94.0371 216.411 93.8301 216.46 93.6426 216.527C93.4577 216.595 93.3092 216.693 93.1973 216.82C93.0879 216.945 93.0332 217.112 93.0332 217.32C93.0332 217.609 93.14 217.828 93.3535 217.977C93.5671 218.122 93.8392 218.195 94.1699 218.195ZM99.7334 219L97.9678 213H99.1748L100.351 217.406H100.409L101.589 213H102.796L103.968 217.387H104.026L105.194 213H106.401L104.64 219H103.448L102.229 214.668H102.14L100.921 219H99.7334ZM113.276 213V213.937H109.886V213H113.276ZM110.815 219V212.305C110.815 211.93 110.897 211.618 111.062 211.371C111.226 211.121 111.443 210.935 111.714 210.812C111.985 210.687 112.279 210.625 112.597 210.625C112.831 210.625 113.032 210.645 113.198 210.684C113.365 210.72 113.489 210.754 113.569 210.785L113.296 211.73C113.241 211.715 113.171 211.697 113.085 211.676C112.999 211.652 112.895 211.641 112.772 211.641C112.489 211.641 112.285 211.711 112.163 211.852C112.043 211.992 111.983 212.195 111.983 212.461V219H110.815ZM118.282 216.512V213H119.454V219H118.306V217.961H118.243C118.105 218.281 117.884 218.548 117.579 218.762C117.277 218.973 116.901 219.078 116.45 219.078C116.065 219.078 115.724 218.993 115.427 218.824C115.132 218.652 114.901 218.398 114.731 218.062C114.565 217.727 114.481 217.311 114.481 216.816V213H115.649V216.676C115.649 217.085 115.763 217.41 115.989 217.652C116.216 217.895 116.51 218.016 116.872 218.016C117.091 218.016 117.308 217.961 117.524 217.852C117.743 217.742 117.924 217.577 118.067 217.355C118.213 217.134 118.285 216.853 118.282 216.512ZM122.191 215.437V219H121.023V213H122.145V213.977H122.219C122.357 213.659 122.573 213.404 122.867 213.211C123.164 213.018 123.538 212.922 123.988 212.922C124.397 212.922 124.755 213.008 125.063 213.18C125.37 213.349 125.608 213.602 125.777 213.937C125.947 214.273 126.031 214.689 126.031 215.184V219H124.863V215.324C124.863 214.889 124.75 214.549 124.523 214.305C124.297 214.057 123.986 213.934 123.59 213.934C123.319 213.934 123.078 213.992 122.867 214.109C122.659 214.227 122.493 214.398 122.371 214.625C122.251 214.849 122.191 215.12 122.191 215.437ZM129.844 219.117C129.359 219.117 128.927 218.993 128.547 218.746C128.169 218.496 127.872 218.141 127.656 217.68C127.443 217.216 127.336 216.66 127.336 216.012C127.336 215.363 127.444 214.809 127.66 214.348C127.879 213.887 128.178 213.534 128.559 213.289C128.939 213.044 129.37 212.922 129.852 212.922C130.224 212.922 130.523 212.984 130.75 213.109C130.979 213.232 131.156 213.375 131.281 213.539C131.409 213.703 131.508 213.848 131.578 213.973H131.648V211H132.816V219H131.676V218.066H131.578C131.508 218.194 131.406 218.34 131.273 218.504C131.143 218.668 130.964 218.811 130.734 218.934C130.505 219.056 130.208 219.117 129.844 219.117ZM130.102 218.121C130.438 218.121 130.721 218.033 130.953 217.855C131.188 217.676 131.365 217.427 131.484 217.109C131.607 216.792 131.668 216.422 131.668 216C131.668 215.583 131.608 215.219 131.488 214.906C131.368 214.594 131.193 214.35 130.961 214.176C130.729 214.001 130.443 213.914 130.102 213.914C129.75 213.914 129.457 214.005 129.223 214.188C128.988 214.37 128.811 214.618 128.691 214.934C128.574 215.249 128.516 215.604 128.516 216C128.516 216.401 128.576 216.762 128.695 217.082C128.815 217.402 128.992 217.656 129.227 217.844C129.464 218.029 129.755 218.121 130.102 218.121ZM138.979 214.465L137.921 214.652C137.877 214.517 137.806 214.388 137.71 214.266C137.616 214.143 137.489 214.043 137.327 213.965C137.166 213.887 136.964 213.848 136.722 213.848C136.391 213.848 136.115 213.922 135.894 214.07C135.672 214.216 135.562 214.405 135.562 214.637C135.562 214.837 135.636 214.999 135.784 215.121C135.933 215.243 136.172 215.344 136.503 215.422L137.456 215.641C138.008 215.768 138.42 215.965 138.69 216.23C138.961 216.496 139.097 216.841 139.097 217.266C139.097 217.625 138.993 217.945 138.784 218.227C138.578 218.505 138.291 218.724 137.921 218.883C137.554 219.042 137.128 219.121 136.644 219.121C135.972 219.121 135.424 218.978 134.999 218.691C134.575 218.402 134.314 217.992 134.218 217.461L135.347 217.289C135.417 217.583 135.562 217.806 135.78 217.957C135.999 218.105 136.284 218.18 136.636 218.18C137.019 218.18 137.325 218.1 137.554 217.941C137.783 217.78 137.897 217.583 137.897 217.352C137.897 217.164 137.827 217.007 137.687 216.879C137.549 216.751 137.336 216.655 137.05 216.59L136.034 216.367C135.474 216.24 135.06 216.036 134.792 215.758C134.526 215.479 134.394 215.126 134.394 214.699C134.394 214.345 134.493 214.035 134.69 213.77C134.888 213.504 135.162 213.297 135.511 213.148C135.86 212.997 136.259 212.922 136.71 212.922C137.358 212.922 137.869 213.062 138.241 213.344C138.614 213.622 138.86 213.996 138.979 214.465Z" fill="#373737"/>
<rect x="22.5" y="139" width="153" height="33" rx="14" fill="#DAD3FF"/>
<path d="M37.7422 154.102C37.7005 153.732 37.5286 153.445 37.2266 153.242C36.9245 153.036 36.5443 152.934 36.0859 152.934C35.7578 152.934 35.474 152.986 35.2344 153.09C34.9948 153.191 34.8086 153.332 34.6758 153.512C34.5456 153.689 34.4805 153.891 34.4805 154.117C34.4805 154.307 34.5247 154.471 34.6133 154.609C34.7044 154.747 34.8229 154.863 34.9688 154.957C35.1172 155.048 35.276 155.125 35.4453 155.188C35.6146 155.247 35.7773 155.297 35.9336 155.336L36.7148 155.539C36.9701 155.602 37.2318 155.686 37.5 155.793C37.7682 155.9 38.0169 156.04 38.2461 156.215C38.4753 156.389 38.6602 156.605 38.8008 156.863C38.944 157.121 39.0156 157.43 39.0156 157.789C39.0156 158.242 38.8984 158.645 38.6641 158.996C38.4323 159.348 38.0951 159.625 37.6523 159.828C37.2122 160.031 36.6797 160.133 36.0547 160.133C35.4557 160.133 34.9375 160.038 34.5 159.848C34.0625 159.658 33.7201 159.388 33.4727 159.039C33.2253 158.687 33.0885 158.271 33.0625 157.789H34.2734C34.2969 158.078 34.3906 158.319 34.5547 158.512C34.7214 158.702 34.9336 158.844 35.1914 158.937C35.4518 159.029 35.737 159.074 36.0469 159.074C36.388 159.074 36.6914 159.021 36.957 158.914C37.2253 158.805 37.4362 158.654 37.5898 158.461C37.7435 158.266 37.8203 158.038 37.8203 157.777C37.8203 157.54 37.7526 157.346 37.6172 157.195C37.4844 157.044 37.3034 156.919 37.0742 156.82C36.8477 156.721 36.5911 156.634 36.3047 156.559L35.3594 156.301C34.7188 156.126 34.2109 155.87 33.8359 155.531C33.4635 155.193 33.2773 154.745 33.2773 154.187C33.2773 153.727 33.4023 153.324 33.6523 152.98C33.9023 152.637 34.2409 152.37 34.668 152.18C35.0951 151.987 35.5768 151.891 36.1133 151.891C36.6549 151.891 37.1328 151.986 37.5469 152.176C37.9635 152.366 38.2917 152.628 38.5313 152.961C38.7708 153.292 38.8958 153.672 38.9063 154.102H37.7422ZM43.165 154V154.937H39.8877V154H43.165ZM40.7666 152.562H41.9346V158.238C41.9346 158.465 41.9684 158.635 42.0361 158.75C42.1038 158.862 42.1911 158.939 42.2979 158.98C42.4072 159.02 42.5257 159.039 42.6533 159.039C42.7471 159.039 42.8291 159.033 42.8994 159.02C42.9697 159.007 43.0244 158.996 43.0635 158.988L43.2744 159.953C43.2067 159.979 43.1104 160.005 42.9854 160.031C42.8604 160.06 42.7041 160.076 42.5166 160.078C42.2093 160.083 41.9229 160.029 41.6572 159.914C41.3916 159.799 41.1768 159.622 41.0127 159.383C40.8486 159.143 40.7666 158.842 40.7666 158.48V152.562ZM46.2031 160.133C45.8229 160.133 45.4792 160.063 45.1719 159.922C44.8646 159.779 44.6211 159.572 44.4414 159.301C44.2643 159.03 44.1758 158.698 44.1758 158.305C44.1758 157.966 44.2409 157.687 44.3711 157.469C44.5013 157.25 44.6771 157.077 44.8984 156.949C45.1198 156.822 45.3672 156.725 45.6406 156.66C45.9141 156.595 46.1927 156.546 46.4766 156.512C46.8359 156.47 47.1276 156.436 47.3516 156.41C47.5755 156.382 47.7383 156.336 47.8398 156.273C47.9414 156.211 47.9922 156.109 47.9922 155.969V155.941C47.9922 155.6 47.8958 155.336 47.7031 155.148C47.513 154.961 47.2292 154.867 46.8516 154.867C46.4583 154.867 46.1484 154.954 45.9219 155.129C45.6979 155.301 45.543 155.492 45.457 155.703L44.3594 155.453C44.4896 155.089 44.6797 154.794 44.9297 154.57C45.1823 154.344 45.4727 154.18 45.8008 154.078C46.1289 153.974 46.474 153.922 46.8359 153.922C47.0755 153.922 47.3294 153.951 47.5977 154.008C47.8685 154.062 48.1211 154.164 48.3555 154.312C48.5924 154.461 48.7865 154.673 48.9375 154.949C49.0885 155.223 49.1641 155.578 49.1641 156.016V160H48.0234V159.18H47.9766C47.901 159.331 47.7878 159.479 47.6367 159.625C47.4857 159.771 47.2917 159.892 47.0547 159.988C46.8177 160.085 46.5339 160.133 46.2031 160.133ZM46.457 159.195C46.7799 159.195 47.056 159.132 47.2852 159.004C47.5169 158.876 47.6927 158.71 47.8125 158.504C47.9349 158.296 47.9961 158.073 47.9961 157.836V157.062C47.9544 157.104 47.8737 157.143 47.7539 157.18C47.6367 157.214 47.5026 157.243 47.3516 157.27C47.2005 157.293 47.0534 157.315 46.9102 157.336C46.7669 157.354 46.6471 157.37 46.5508 157.383C46.3242 157.411 46.1172 157.46 45.9297 157.527C45.7448 157.595 45.5964 157.693 45.4844 157.82C45.375 157.945 45.3203 158.112 45.3203 158.32C45.3203 158.609 45.4271 158.828 45.6406 158.977C45.8542 159.122 46.1263 159.195 46.457 159.195ZM53.5205 154V154.937H50.2432V154H53.5205ZM51.1221 152.562H52.29V158.238C52.29 158.465 52.3239 158.635 52.3916 158.75C52.4593 158.862 52.5465 158.939 52.6533 158.98C52.7627 159.02 52.8812 159.039 53.0088 159.039C53.1025 159.039 53.1846 159.033 53.2549 159.02C53.3252 159.007 53.3799 158.996 53.4189 158.988L53.6299 159.953C53.5622 159.979 53.4658 160.005 53.3408 160.031C53.2158 160.06 53.0596 160.076 52.8721 160.078C52.5648 160.083 52.2783 160.029 52.0127 159.914C51.7471 159.799 51.5322 159.622 51.3682 159.383C51.2041 159.143 51.1221 158.842 51.1221 158.48V152.562ZM54.8125 160V154H55.9805V160H54.8125ZM55.4023 153.074C55.1992 153.074 55.0247 153.007 54.8789 152.871C54.7357 152.733 54.6641 152.569 54.6641 152.379C54.6641 152.186 54.7357 152.022 54.8789 151.887C55.0247 151.749 55.1992 151.68 55.4023 151.68C55.6055 151.68 55.7786 151.749 55.9219 151.887C56.0677 152.022 56.1406 152.186 56.1406 152.379C56.1406 152.569 56.0677 152.733 55.9219 152.871C55.7786 153.007 55.6055 153.074 55.4023 153.074ZM62.0479 155.465L60.9893 155.652C60.945 155.517 60.8747 155.388 60.7783 155.266C60.6846 155.143 60.557 155.043 60.3955 154.965C60.234 154.887 60.0322 154.848 59.79 154.848C59.4593 154.848 59.1833 154.922 58.9619 155.07C58.7406 155.216 58.6299 155.405 58.6299 155.637C58.6299 155.837 58.7041 155.999 58.8525 156.121C59.001 156.243 59.2406 156.344 59.5713 156.422L60.5244 156.641C61.0765 156.768 61.488 156.965 61.7588 157.23C62.0296 157.496 62.165 157.841 62.165 158.266C62.165 158.625 62.0609 158.945 61.8525 159.227C61.6468 159.505 61.359 159.724 60.9893 159.883C60.6221 160.042 60.1963 160.121 59.7119 160.121C59.04 160.121 58.4919 159.978 58.0674 159.691C57.6429 159.402 57.3825 158.992 57.2861 158.461L58.415 158.289C58.4854 158.583 58.6299 158.806 58.8486 158.957C59.0674 159.105 59.3525 159.18 59.7041 159.18C60.0869 159.18 60.3929 159.1 60.6221 158.941C60.8512 158.78 60.9658 158.583 60.9658 158.352C60.9658 158.164 60.8955 158.007 60.7549 157.879C60.6169 157.751 60.4046 157.655 60.1182 157.59L59.1025 157.367C58.5426 157.24 58.1286 157.036 57.8604 156.758C57.5947 156.479 57.4619 156.126 57.4619 155.699C57.4619 155.345 57.5609 155.035 57.7588 154.77C57.9567 154.504 58.2301 154.297 58.5791 154.148C58.9281 153.997 59.3278 153.922 59.7783 153.922C60.4268 153.922 60.9372 154.062 61.3096 154.344C61.682 154.622 61.9281 154.996 62.0479 155.465ZM66.25 154V154.937H62.9727V154H66.25ZM63.8516 152.562H65.0195V158.238C65.0195 158.465 65.0534 158.635 65.1211 158.75C65.1888 158.862 65.276 158.939 65.3828 158.98C65.4922 159.02 65.6107 159.039 65.7383 159.039C65.832 159.039 65.9141 159.033 65.9844 159.02C66.0547 159.007 66.1094 158.996 66.1484 158.988L66.3594 159.953C66.2917 159.979 66.1953 160.005 66.0703 160.031C65.9453 160.06 65.7891 160.076 65.6016 160.078C65.2943 160.083 65.0078 160.029 64.7422 159.914C64.4766 159.799 64.2617 159.622 64.0977 159.383C63.9336 159.143 63.8516 158.842 63.8516 158.48V152.562ZM67.542 160V154H68.71V160H67.542ZM68.1318 153.074C67.9287 153.074 67.7542 153.007 67.6084 152.871C67.4652 152.733 67.3936 152.569 67.3936 152.379C67.3936 152.186 67.4652 152.022 67.6084 151.887C67.7542 151.749 67.9287 151.68 68.1318 151.68C68.335 151.68 68.5081 151.749 68.6514 151.887C68.7972 152.022 68.8701 152.186 68.8701 152.379C68.8701 152.569 68.7972 152.733 68.6514 152.871C68.5081 153.007 68.335 153.074 68.1318 153.074ZM72.8086 160.121C72.2279 160.121 71.7279 159.99 71.3086 159.727C70.8919 159.461 70.5716 159.095 70.3477 158.629C70.1237 158.163 70.0117 157.629 70.0117 157.027C70.0117 156.418 70.1263 155.88 70.3555 155.414C70.5846 154.945 70.9076 154.579 71.3242 154.316C71.7409 154.053 72.2318 153.922 72.7969 153.922C73.2526 153.922 73.6589 154.007 74.0156 154.176C74.3724 154.342 74.6602 154.577 74.8789 154.879C75.1003 155.181 75.2318 155.534 75.2734 155.937H74.1367C74.0742 155.656 73.931 155.414 73.707 155.211C73.4857 155.008 73.1888 154.906 72.8164 154.906C72.4909 154.906 72.2057 154.992 71.9609 155.164C71.7188 155.333 71.5299 155.576 71.3945 155.891C71.2591 156.203 71.1914 156.573 71.1914 157C71.1914 157.437 71.2578 157.815 71.3906 158.133C71.5234 158.451 71.7109 158.697 71.9531 158.871C72.1979 159.046 72.4857 159.133 72.8164 159.133C73.0378 159.133 73.2383 159.092 73.418 159.012C73.6003 158.928 73.7526 158.81 73.875 158.656C74 158.503 74.0872 158.318 74.1367 158.102H75.2734C75.2318 158.49 75.1055 158.836 74.8945 159.141C74.6836 159.445 74.401 159.685 74.0469 159.859C73.6953 160.034 73.2826 160.121 72.8086 160.121ZM82.2891 154V154.937H78.8984V154H82.2891ZM79.8281 160V153.305C79.8281 152.93 79.9102 152.618 80.0742 152.371C80.2383 152.121 80.4557 151.935 80.7266 151.812C80.9974 151.687 81.2917 151.625 81.6094 151.625C81.8438 151.625 82.0443 151.645 82.2109 151.684C82.3776 151.72 82.5013 151.754 82.582 151.785L82.3086 152.73C82.2539 152.715 82.1836 152.697 82.0977 152.676C82.0117 152.652 81.9076 152.641 81.7852 152.641C81.5013 152.641 81.2982 152.711 81.1758 152.852C81.056 152.992 80.9961 153.195 80.9961 153.461V160H79.8281ZM85.7852 160.121C85.2227 160.121 84.7318 159.992 84.3125 159.734C83.8932 159.477 83.5677 159.116 83.3359 158.652C83.1042 158.189 82.9883 157.647 82.9883 157.027C82.9883 156.405 83.1042 155.861 83.3359 155.395C83.5677 154.928 83.8932 154.566 84.3125 154.309C84.7318 154.051 85.2227 153.922 85.7852 153.922C86.3477 153.922 86.8385 154.051 87.2578 154.309C87.6771 154.566 88.0026 154.928 88.2344 155.395C88.4661 155.861 88.582 156.405 88.582 157.027C88.582 157.647 88.4661 158.189 88.2344 158.652C88.0026 159.116 87.6771 159.477 87.2578 159.734C86.8385 159.992 86.3477 160.121 85.7852 160.121ZM85.7891 159.141C86.1536 159.141 86.4557 159.044 86.6953 158.852C86.9349 158.659 87.112 158.402 87.2266 158.082C87.3438 157.762 87.4023 157.409 87.4023 157.023C87.4023 156.641 87.3438 156.289 87.2266 155.969C87.112 155.646 86.9349 155.387 86.6953 155.191C86.4557 154.996 86.1536 154.898 85.7891 154.898C85.4219 154.898 85.1172 154.996 84.875 155.191C84.6354 155.387 84.457 155.646 84.3398 155.969C84.2253 156.289 84.168 156.641 84.168 157.023C84.168 157.409 84.2253 157.762 84.3398 158.082C84.457 158.402 84.6354 158.659 84.875 158.852C85.1172 159.044 85.4219 159.141 85.7891 159.141ZM89.8857 160V154H91.0146V154.953H91.0771C91.1865 154.63 91.3792 154.376 91.6553 154.191C91.9339 154.004 92.249 153.91 92.6006 153.91C92.6735 153.91 92.7594 153.913 92.8584 153.918C92.96 153.923 93.0394 153.93 93.0967 153.937V155.055C93.0498 155.042 92.9665 155.027 92.8467 155.012C92.7269 154.993 92.6071 154.984 92.4873 154.984C92.2113 154.984 91.9652 155.043 91.749 155.16C91.5355 155.275 91.3662 155.435 91.2412 155.641C91.1162 155.844 91.0537 156.076 91.0537 156.336V160H89.8857ZM99.5459 160.121C98.9652 160.121 98.4652 159.99 98.0459 159.727C97.6292 159.461 97.3089 159.095 97.085 158.629C96.861 158.163 96.749 157.629 96.749 157.027C96.749 156.418 96.8636 155.88 97.0928 155.414C97.3219 154.945 97.6449 154.579 98.0615 154.316C98.4782 154.053 98.9691 153.922 99.5342 153.922C99.9899 153.922 100.396 154.007 100.753 154.176C101.11 154.342 101.397 154.577 101.616 154.879C101.838 155.181 101.969 155.534 102.011 155.937H100.874C100.812 155.656 100.668 155.414 100.444 155.211C100.223 155.008 99.9261 154.906 99.5537 154.906C99.2282 154.906 98.943 154.992 98.6982 155.164C98.4561 155.333 98.2673 155.576 98.1318 155.891C97.9964 156.203 97.9287 156.573 97.9287 157C97.9287 157.437 97.9951 157.815 98.1279 158.133C98.2607 158.451 98.4482 158.697 98.6904 158.871C98.9352 159.046 99.223 159.133 99.5537 159.133C99.7751 159.133 99.9756 159.092 100.155 159.012C100.338 158.928 100.49 158.81 100.612 158.656C100.737 158.503 100.825 158.318 100.874 158.102H102.011C101.969 158.49 101.843 158.836 101.632 159.141C101.421 159.445 101.138 159.685 100.784 159.859C100.433 160.034 100.02 160.121 99.5459 160.121ZM105.787 160.121C105.225 160.121 104.734 159.992 104.314 159.734C103.895 159.477 103.57 159.116 103.338 158.652C103.106 158.189 102.99 157.647 102.99 157.027C102.99 156.405 103.106 155.861 103.338 155.395C103.57 154.928 103.895 154.566 104.314 154.309C104.734 154.051 105.225 153.922 105.787 153.922C106.35 153.922 106.84 154.051 107.26 154.309C107.679 154.566 108.005 154.928 108.236 155.395C108.468 155.861 108.584 156.405 108.584 157.027C108.584 157.647 108.468 158.189 108.236 158.652C108.005 159.116 107.679 159.477 107.26 159.734C106.84 159.992 106.35 160.121 105.787 160.121ZM105.791 159.141C106.156 159.141 106.458 159.044 106.697 158.852C106.937 158.659 107.114 158.402 107.229 158.082C107.346 157.762 107.404 157.409 107.404 157.023C107.404 156.641 107.346 156.289 107.229 155.969C107.114 155.646 106.937 155.387 106.697 155.191C106.458 154.996 106.156 154.898 105.791 154.898C105.424 154.898 105.119 154.996 104.877 155.191C104.637 155.387 104.459 155.646 104.342 155.969C104.227 156.289 104.17 156.641 104.17 157.023C104.17 157.409 104.227 157.762 104.342 158.082C104.459 158.402 104.637 158.659 104.877 158.852C105.119 159.044 105.424 159.141 105.791 159.141ZM109.888 160V154H111.009V154.977H111.083C111.208 154.646 111.412 154.388 111.696 154.203C111.98 154.016 112.32 153.922 112.716 153.922C113.117 153.922 113.453 154.016 113.724 154.203C113.997 154.391 114.199 154.648 114.329 154.977H114.392C114.535 154.656 114.763 154.401 115.075 154.211C115.388 154.018 115.76 153.922 116.192 153.922C116.737 153.922 117.181 154.092 117.524 154.434C117.871 154.775 118.044 155.289 118.044 155.977V160H116.876V156.086C116.876 155.68 116.765 155.385 116.544 155.203C116.323 155.021 116.058 154.93 115.751 154.93C115.371 154.93 115.075 155.047 114.864 155.281C114.653 155.513 114.548 155.811 114.548 156.176V160H113.384V156.012C113.384 155.686 113.282 155.424 113.079 155.227C112.876 155.029 112.612 154.93 112.286 154.93C112.065 154.93 111.86 154.988 111.673 155.105C111.488 155.22 111.338 155.38 111.224 155.586C111.112 155.792 111.056 156.03 111.056 156.301V160H109.888ZM119.609 160V154H120.73V154.977H120.805C120.93 154.646 121.134 154.388 121.418 154.203C121.702 154.016 122.042 153.922 122.438 153.922C122.839 153.922 123.174 154.016 123.445 154.203C123.719 154.391 123.921 154.648 124.051 154.977H124.113C124.257 154.656 124.484 154.401 124.797 154.211C125.109 154.018 125.482 153.922 125.914 153.922C126.458 153.922 126.902 154.092 127.246 154.434C127.592 154.775 127.766 155.289 127.766 155.977V160H126.598V156.086C126.598 155.68 126.487 155.385 126.266 155.203C126.044 155.021 125.78 154.93 125.473 154.93C125.092 154.93 124.797 155.047 124.586 155.281C124.375 155.513 124.27 155.811 124.27 156.176V160H123.105V156.012C123.105 155.686 123.004 155.424 122.801 155.227C122.598 155.029 122.333 154.93 122.008 154.93C121.786 154.93 121.582 154.988 121.395 155.105C121.21 155.22 121.06 155.38 120.945 155.586C120.833 155.792 120.777 156.03 120.777 156.301V160H119.609ZM129.331 160V154H130.499V160H129.331ZM129.921 153.074C129.718 153.074 129.543 153.007 129.397 152.871C129.254 152.733 129.183 152.569 129.183 152.379C129.183 152.186 129.254 152.022 129.397 151.887C129.543 151.749 129.718 151.68 129.921 151.68C130.124 151.68 130.297 151.749 130.44 151.887C130.586 152.022 130.659 152.186 130.659 152.379C130.659 152.569 130.586 152.733 130.44 152.871C130.297 153.007 130.124 153.074 129.921 153.074ZM136.566 155.465L135.508 155.652C135.464 155.517 135.393 155.388 135.297 155.266C135.203 155.143 135.076 155.043 134.914 154.965C134.753 154.887 134.551 154.848 134.309 154.848C133.978 154.848 133.702 154.922 133.48 155.07C133.259 155.216 133.148 155.405 133.148 155.637C133.148 155.837 133.223 155.999 133.371 156.121C133.52 156.243 133.759 156.344 134.09 156.422L135.043 156.641C135.595 156.768 136.007 156.965 136.277 157.23C136.548 157.496 136.684 157.841 136.684 158.266C136.684 158.625 136.579 158.945 136.371 159.227C136.165 159.505 135.878 159.724 135.508 159.883C135.141 160.042 134.715 160.121 134.23 160.121C133.559 160.121 133.01 159.978 132.586 159.691C132.161 159.402 131.901 158.992 131.805 158.461L132.934 158.289C133.004 158.583 133.148 158.806 133.367 158.957C133.586 159.105 133.871 159.18 134.223 159.18C134.605 159.18 134.911 159.1 135.141 158.941C135.37 158.78 135.484 158.583 135.484 158.352C135.484 158.164 135.414 158.007 135.273 157.879C135.135 157.751 134.923 157.655 134.637 157.59L133.621 157.367C133.061 157.24 132.647 157.036 132.379 156.758C132.113 156.479 131.98 156.126 131.98 155.699C131.98 155.345 132.079 155.035 132.277 154.77C132.475 154.504 132.749 154.297 133.098 154.148C133.447 153.997 133.846 153.922 134.297 153.922C134.945 153.922 135.456 154.062 135.828 154.344C136.201 154.622 136.447 154.996 136.566 155.465ZM142.464 155.465L141.405 155.652C141.361 155.517 141.291 155.388 141.194 155.266C141.101 155.143 140.973 155.043 140.812 154.965C140.65 154.887 140.448 154.848 140.206 154.848C139.875 154.848 139.599 154.922 139.378 155.07C139.157 155.216 139.046 155.405 139.046 155.637C139.046 155.837 139.12 155.999 139.269 156.121C139.417 156.243 139.657 156.344 139.987 156.422L140.94 156.641C141.493 156.768 141.904 156.965 142.175 157.23C142.446 157.496 142.581 157.841 142.581 158.266C142.581 158.625 142.477 158.945 142.269 159.227C142.063 159.505 141.775 159.724 141.405 159.883C141.038 160.042 140.612 160.121 140.128 160.121C139.456 160.121 138.908 159.978 138.483 159.691C138.059 159.402 137.799 158.992 137.702 158.461L138.831 158.289C138.901 158.583 139.046 158.806 139.265 158.957C139.483 159.105 139.769 159.18 140.12 159.18C140.503 159.18 140.809 159.1 141.038 158.941C141.267 158.78 141.382 158.583 141.382 158.352C141.382 158.164 141.312 158.007 141.171 157.879C141.033 157.751 140.821 157.655 140.534 157.59L139.519 157.367C138.959 157.24 138.545 157.036 138.276 156.758C138.011 156.479 137.878 156.126 137.878 155.699C137.878 155.345 137.977 155.035 138.175 154.77C138.373 154.504 138.646 154.297 138.995 154.148C139.344 153.997 139.744 153.922 140.194 153.922C140.843 153.922 141.353 154.062 141.726 154.344C142.098 154.622 142.344 154.996 142.464 155.465ZM143.865 160V154H145.033V160H143.865ZM144.455 153.074C144.252 153.074 144.077 153.007 143.932 152.871C143.788 152.733 143.717 152.569 143.717 152.379C143.717 152.186 143.788 152.022 143.932 151.887C144.077 151.749 144.252 151.68 144.455 151.68C144.658 151.68 144.831 151.749 144.975 151.887C145.12 152.022 145.193 152.186 145.193 152.379C145.193 152.569 145.12 152.733 144.975 152.871C144.831 153.007 144.658 153.074 144.455 153.074ZM149.132 160.121C148.569 160.121 148.078 159.992 147.659 159.734C147.24 159.477 146.914 159.116 146.683 158.652C146.451 158.189 146.335 157.647 146.335 157.027C146.335 156.405 146.451 155.861 146.683 155.395C146.914 154.928 147.24 154.566 147.659 154.309C148.078 154.051 148.569 153.922 149.132 153.922C149.694 153.922 150.185 154.051 150.604 154.309C151.024 154.566 151.349 154.928 151.581 155.395C151.813 155.861 151.929 156.405 151.929 157.027C151.929 157.647 151.813 158.189 151.581 158.652C151.349 159.116 151.024 159.477 150.604 159.734C150.185 159.992 149.694 160.121 149.132 160.121ZM149.136 159.141C149.5 159.141 149.802 159.044 150.042 158.852C150.282 158.659 150.459 158.402 150.573 158.082C150.69 157.762 150.749 157.409 150.749 157.023C150.749 156.641 150.69 156.289 150.573 155.969C150.459 155.646 150.282 155.387 150.042 155.191C149.802 154.996 149.5 154.898 149.136 154.898C148.769 154.898 148.464 154.996 148.222 155.191C147.982 155.387 147.804 155.646 147.687 155.969C147.572 156.289 147.515 156.641 147.515 157.023C147.515 157.409 147.572 157.762 147.687 158.082C147.804 158.402 147.982 158.659 148.222 158.852C148.464 159.044 148.769 159.141 149.136 159.141ZM154.4 156.437V160H153.232V154H154.354V154.977H154.428C154.566 154.659 154.782 154.404 155.076 154.211C155.373 154.018 155.747 153.922 156.197 153.922C156.606 153.922 156.964 154.008 157.271 154.18C157.579 154.349 157.817 154.602 157.986 154.937C158.156 155.273 158.24 155.689 158.24 156.184V160H157.072V156.324C157.072 155.889 156.959 155.549 156.732 155.305C156.506 155.057 156.195 154.934 155.799 154.934C155.528 154.934 155.287 154.992 155.076 155.109C154.868 155.227 154.702 155.398 154.58 155.625C154.46 155.849 154.4 156.12 154.4 156.437ZM164.303 155.465L163.244 155.652C163.2 155.517 163.13 155.388 163.033 155.266C162.939 155.143 162.812 155.043 162.65 154.965C162.489 154.887 162.287 154.848 162.045 154.848C161.714 154.848 161.438 154.922 161.217 155.07C160.995 155.216 160.885 155.405 160.885 155.637C160.885 155.837 160.959 155.999 161.107 156.121C161.256 156.243 161.495 156.344 161.826 156.422L162.779 156.641C163.331 156.768 163.743 156.965 164.014 157.23C164.285 157.496 164.42 157.841 164.42 158.266C164.42 158.625 164.316 158.945 164.107 159.227C163.902 159.505 163.614 159.724 163.244 159.883C162.877 160.042 162.451 160.121 161.967 160.121C161.295 160.121 160.747 159.978 160.322 159.691C159.898 159.402 159.637 158.992 159.541 158.461L160.67 158.289C160.74 158.583 160.885 158.806 161.104 158.957C161.322 159.105 161.607 159.18 161.959 159.18C162.342 159.18 162.648 159.1 162.877 158.941C163.106 158.78 163.221 158.583 163.221 158.352C163.221 158.164 163.15 158.007 163.01 157.879C162.872 157.751 162.66 157.655 162.373 157.59L161.357 157.367C160.798 157.24 160.383 157.036 160.115 156.758C159.85 156.479 159.717 156.126 159.717 155.699C159.717 155.345 159.816 155.035 160.014 154.77C160.212 154.504 160.485 154.297 160.834 154.148C161.183 153.997 161.583 153.922 162.033 153.922C162.682 153.922 163.192 154.062 163.564 154.344C163.937 154.622 164.183 154.996 164.303 155.465Z" fill="#373737"/>
<mask id="path-9-inside-1_1_749" fill="white">
<path d="M100.724 40.0117C91.4665 39.8348 82.281 41.6686 73.8014 45.3866C65.3217 49.1046 57.7497 54.6183 51.608 61.547C45.4662 68.4758 40.901 76.6546 38.2274 85.5192C35.5537 94.3837 34.9977 104 35 112.892H56.4066C55.5808 107.006 58.4524 97.8272 60.1687 92.1369C61.8849 86.4467 64.8154 81.1965 68.7579 76.7489C72.7003 72.3012 77.5609 68.762 83.0041 66.3753C88.4473 63.9887 94.3435 62.8115 100.286 62.9251L100.724 40.0117Z"/>
</mask>
<path d="M100.724 40.0117L210.704 42.1132L212.805 -67.8667L102.825 -69.9682L100.724 40.0117ZM35 112.892L-75 112.92L-74.9719 222.892H35V112.892ZM56.4066 112.892V222.892H182.917L165.34 97.6087L56.4066 112.892ZM100.286 62.9251L98.1844 172.905L208.164 175.007L210.266 65.0267L100.286 62.9251ZM102.825 -69.9682C77.6571 -70.4492 52.6842 -65.4634 29.6301 -55.3551L117.973 146.128C111.878 148.801 105.276 150.119 98.6222 149.992L102.825 -69.9682ZM29.6301 -55.3551C6.57597 -45.2468 -14.0104 -30.2566 -30.7082 -11.4191L133.924 134.513C129.51 139.493 124.067 143.456 117.973 146.128L29.6301 -55.3551ZM-30.7082 -11.4191C-47.406 7.41846 -59.8177 29.6548 -67.0867 53.7552L143.541 117.283C141.62 123.654 138.339 129.533 133.924 134.513L-30.7082 -11.4191ZM-67.0867 53.7552C-74.4849 78.2843 -75.0031 100.83 -75 112.92L145 112.864C144.999 110.553 145.083 109.965 145.039 110.388C145.011 110.667 144.926 111.408 144.717 112.523C144.508 113.638 144.151 115.264 143.541 117.283L-67.0867 53.7552ZM35 222.892H56.4066V2.89172H35V222.892ZM165.34 97.6087C166.781 107.88 166.184 115.695 165.845 119.045C165.46 122.852 164.908 125.431 164.729 126.241C164.482 127.354 164.268 127.929 165.483 123.901L-45.1454 60.373C-45.6466 62.0347 -48.1551 70.0451 -50.06 78.6408C-51.4116 84.7398 -55.822 104.686 -52.5265 128.175L165.34 97.6087ZM165.483 123.901C162.604 133.446 157.688 142.254 151.074 149.715L-13.5583 3.78281C-28.0569 20.1393 -38.8338 39.4468 -45.1454 60.373L165.483 123.901ZM151.074 149.715C144.46 157.176 136.307 163.113 127.175 167.117L38.8328 -34.3664C18.8152 -25.5895 0.940254 -12.5736 -13.5583 3.78281L151.074 149.715ZM127.175 167.117C118.044 171.121 108.153 173.095 98.1844 172.905L102.387 -47.0548C80.5342 -47.4724 58.8505 -43.1434 38.8328 -34.3664L127.175 167.117ZM210.266 65.0267L210.704 42.1132L-9.25618 37.9101L-9.69402 60.8235L210.266 65.0267Z" fill="#6A65FF" mask="url(#path-9-inside-1_1_749)"/>
<mask id="path-11-inside-2_1_749" fill="white">
<path d="M101.609 43.4023C110.539 44.0283 120.288 45.9476 128.194 50.145C136.1 54.3424 143.038 60.1516 148.559 67.1974C154.081 74.2432 158.063 82.3689 160.248 91.0495C162.433 99.7301 162.411 105.902 161.911 115.038L146.469 115.034C147.639 108.281 147.378 101.357 145.705 94.7103C144.032 88.0637 140.983 81.842 136.756 76.4471C132.528 71.0522 127.216 66.6042 121.162 63.3903C115.108 60.1765 108.448 58.2683 101.611 57.789L101.609 43.4023Z"/>
</mask>
<path d="M101.609 43.4023L107.204 -36.4018L21.6014 -42.4024L21.6094 43.4098L101.609 43.4023ZM161.911 115.038L161.893 195.038L237.65 195.055L241.791 119.411L161.911 115.038ZM146.469 115.034L67.6423 101.384L51.4297 195.012L146.451 195.034L146.469 115.034ZM101.611 57.789L21.6107 57.7964L21.6177 132.378L96.0165 137.593L101.611 57.789ZM96.0152 123.207C96.9592 123.273 97.2012 123.365 96.7331 123.253C96.4543 123.187 95.8049 123.019 94.8485 122.675C93.898 122.332 92.4606 121.749 90.6815 120.805L165.707 -20.5148C144.046 -32.0143 121.885 -35.3727 107.204 -36.4018L96.0152 123.207ZM90.6815 120.805C88.7049 119.755 86.9704 118.303 85.5901 116.542L211.529 17.8531C199.106 2.00005 183.496 -11.0707 165.707 -20.5148L90.6815 120.805ZM85.5901 116.542C84.2098 114.78 83.2143 112.749 82.6681 110.579L237.827 71.5203C232.911 51.9889 223.952 33.7062 211.529 17.8531L85.5901 116.542ZM82.6681 110.579C82.6628 110.558 82.6294 110.423 82.5818 110.19C82.5337 109.954 82.4774 109.649 82.422 109.287C82.3663 108.923 82.3185 108.548 82.2803 108.175C82.2423 107.802 82.2187 107.478 82.2047 107.221C82.1768 106.709 82.1943 106.591 82.1841 107.126C82.1789 107.4 82.1672 107.809 82.1423 108.407C82.1171 109.01 82.0814 109.738 82.0307 110.664L241.791 119.411C242.453 107.328 242.923 91.7603 237.827 71.5203L82.6681 110.579ZM161.93 35.0376L146.488 35.034L146.451 195.034L161.893 195.038L161.93 35.0376ZM225.296 128.684C228.375 110.905 227.69 92.6784 223.285 75.181L68.1256 114.24C67.0673 110.035 66.9027 105.656 67.6423 101.384L225.296 128.684ZM223.285 75.181C218.88 57.6836 210.854 41.3049 199.725 27.1028L73.7864 125.791C71.1124 122.379 69.1839 118.444 68.1256 114.24L223.285 75.181ZM199.725 27.1028C188.596 12.9007 174.611 1.19111 158.675 -7.26948L83.6497 134.05C79.8205 132.017 76.4604 129.204 73.7864 125.791L199.725 27.1028ZM158.675 -7.26948C142.738 -15.73 125.204 -20.7535 107.205 -22.0152L96.0165 137.593C91.6918 137.29 87.4788 136.083 83.6497 134.05L158.675 -7.26948ZM181.611 57.7815L181.609 43.3949L21.6094 43.4098L21.6107 57.7964L181.611 57.7815Z" fill="#DAD3FF" mask="url(#path-11-inside-2_1_749)"/>
<path d="M80.402 91.1307V89.3636H89.6861V91.1307H86.0895V101H83.9986V91.1307H80.402ZM93.9261 101.17C93.0739 101.17 92.3352 100.983 91.7102 100.608C91.0852 100.233 90.6004 99.7083 90.2557 99.0341C89.9148 98.3598 89.7443 97.572 89.7443 96.6705C89.7443 95.7689 89.9148 94.9792 90.2557 94.3011C90.6004 93.6231 91.0852 93.0966 91.7102 92.7216C92.3352 92.3466 93.0739 92.1591 93.9261 92.1591C94.7784 92.1591 95.517 92.3466 96.142 92.7216C96.767 93.0966 97.25 93.6231 97.5909 94.3011C97.9356 94.9792 98.108 95.7689 98.108 96.6705C98.108 97.572 97.9356 98.3598 97.5909 99.0341C97.25 99.7083 96.767 100.233 96.142 100.608C95.517 100.983 94.7784 101.17 93.9261 101.17ZM93.9375 99.5227C94.3996 99.5227 94.786 99.3958 95.0966 99.142C95.4072 98.8845 95.6383 98.5398 95.7898 98.108C95.9451 97.6761 96.0227 97.1951 96.0227 96.6648C96.0227 96.1307 95.9451 95.6477 95.7898 95.2159C95.6383 94.7803 95.4072 94.4337 95.0966 94.1761C94.786 93.9186 94.3996 93.7898 93.9375 93.7898C93.464 93.7898 93.0701 93.9186 92.7557 94.1761C92.4451 94.4337 92.2121 94.7803 92.0568 95.2159C91.9053 95.6477 91.8295 96.1307 91.8295 96.6648C91.8295 97.1951 91.9053 97.6761 92.0568 98.108C92.2121 98.5398 92.4451 98.8845 92.7557 99.142C93.0701 99.3958 93.464 99.5227 93.9375 99.5227ZM104.212 92.2727V93.8636H99.1946V92.2727H104.212ZM100.433 90.1818H102.49V98.375C102.49 98.6515 102.532 98.8636 102.615 99.0114C102.702 99.1553 102.816 99.2538 102.956 99.3068C103.096 99.3598 103.251 99.3864 103.422 99.3864C103.551 99.3864 103.668 99.3769 103.774 99.358C103.884 99.339 103.967 99.322 104.024 99.3068L104.371 100.915C104.261 100.953 104.104 100.994 103.899 101.04C103.698 101.085 103.452 101.112 103.161 101.119C102.645 101.134 102.181 101.057 101.768 100.886C101.356 100.712 101.028 100.443 100.786 100.08C100.547 99.7159 100.429 99.2614 100.433 98.7159V90.1818ZM108.443 101.176C107.89 101.176 107.392 101.078 106.949 100.881C106.509 100.68 106.161 100.384 105.903 99.9943C105.65 99.6042 105.523 99.1231 105.523 98.5511C105.523 98.0587 105.614 97.6515 105.795 97.3295C105.977 97.0076 106.225 96.75 106.54 96.5568C106.854 96.3636 107.208 96.2178 107.602 96.1193C108 96.017 108.411 95.9432 108.835 95.8977C109.347 95.8447 109.761 95.7973 110.08 95.7557C110.398 95.7102 110.629 95.642 110.773 95.5511C110.92 95.4564 110.994 95.3106 110.994 95.1136V95.0795C110.994 94.6515 110.867 94.3201 110.614 94.0852C110.36 93.8504 109.994 93.733 109.517 93.733C109.013 93.733 108.614 93.8428 108.318 94.0625C108.027 94.2822 107.83 94.5417 107.727 94.8409L105.807 94.5682C105.958 94.0379 106.208 93.5947 106.557 93.2386C106.905 92.8788 107.331 92.6098 107.835 92.4318C108.339 92.25 108.896 92.1591 109.506 92.1591C109.926 92.1591 110.345 92.2083 110.761 92.3068C111.178 92.4053 111.559 92.5682 111.903 92.7955C112.248 93.0189 112.525 93.3239 112.733 93.7102C112.945 94.0966 113.051 94.5795 113.051 95.1591V101H111.074V99.8011H111.006C110.881 100.044 110.705 100.271 110.477 100.483C110.254 100.691 109.972 100.86 109.631 100.989C109.294 101.114 108.898 101.176 108.443 101.176ZM108.977 99.6648C109.39 99.6648 109.748 99.5833 110.051 99.4205C110.354 99.2538 110.587 99.0341 110.75 98.7614C110.917 98.4886 111 98.1913 111 97.8693V96.8409C110.936 96.8939 110.826 96.9432 110.67 96.9886C110.519 97.0341 110.348 97.0739 110.159 97.108C109.97 97.142 109.782 97.1723 109.597 97.1989C109.411 97.2254 109.25 97.2481 109.114 97.267C108.807 97.3087 108.532 97.3769 108.29 97.4716C108.047 97.5663 107.856 97.6989 107.716 97.8693C107.576 98.036 107.506 98.2519 107.506 98.517C107.506 98.8958 107.644 99.1818 107.92 99.375C108.197 99.5682 108.549 99.6648 108.977 99.6648ZM117.176 89.3636V101H115.119V89.3636H117.176Z" fill="#373737"/>
<path d="M71.5263 121.455V106.909H72.4581V121.455H71.5263ZM74.2138 111.562C74.1607 111.066 73.9373 110.68 73.5433 110.403C73.1532 110.127 72.6456 109.989 72.0206 109.989C71.5812 109.989 71.2043 110.055 70.8899 110.188C70.5755 110.32 70.335 110.5 70.1683 110.727C70.0017 110.955 69.9164 111.214 69.9126 111.506C69.9126 111.748 69.9676 111.958 70.0774 112.136C70.1911 112.314 70.3445 112.466 70.5376 112.591C70.7308 112.712 70.9448 112.814 71.1797 112.898C71.4145 112.981 71.6513 113.051 71.8899 113.108L72.9808 113.381C73.4202 113.483 73.8426 113.621 74.2479 113.795C74.657 113.97 75.0225 114.189 75.3445 114.455C75.6702 114.72 75.9278 115.04 76.1172 115.415C76.3066 115.79 76.4013 116.229 76.4013 116.733C76.4013 117.415 76.227 118.015 75.8786 118.534C75.5301 119.049 75.0263 119.453 74.3672 119.744C73.7119 120.032 72.9183 120.176 71.9865 120.176C71.0812 120.176 70.2952 120.036 69.6286 119.756C68.9657 119.475 68.4467 119.066 68.0717 118.528C67.7005 117.991 67.4998 117.335 67.4695 116.562H69.5433C69.5736 116.968 69.6986 117.305 69.9183 117.574C70.138 117.843 70.424 118.044 70.7763 118.176C71.1323 118.309 71.5301 118.375 71.9695 118.375C72.4278 118.375 72.8293 118.307 73.174 118.17C73.5225 118.03 73.7952 117.837 73.9922 117.591C74.1892 117.341 74.2895 117.049 74.2933 116.716C74.2895 116.413 74.2005 116.163 74.0263 115.966C73.852 115.765 73.6077 115.598 73.2933 115.466C72.9827 115.33 72.6191 115.208 72.2024 115.102L70.8786 114.761C69.9202 114.515 69.1626 114.142 68.6058 113.642C68.0528 113.138 67.7763 112.47 67.7763 111.636C67.7763 110.951 67.9619 110.35 68.3331 109.835C68.7081 109.32 69.2176 108.92 69.8615 108.636C70.5054 108.348 71.2346 108.205 72.049 108.205C72.8748 108.205 73.5982 108.348 74.2195 108.636C74.8445 108.92 75.335 109.316 75.6911 109.824C76.0471 110.328 76.2308 110.907 76.2422 111.562H74.2138ZM86.8686 108.364V120H84.7607V110.415H84.6925L81.9709 112.153V110.222L84.8629 108.364H86.8686ZM94.5561 108.364V120H92.4482V110.415H92.38L89.6584 112.153V110.222L92.5504 108.364H94.5561ZM98.1598 120.125C97.8151 120.125 97.5196 120.004 97.2734 119.761C97.0272 119.519 96.906 119.223 96.9098 118.875C96.906 118.534 97.0272 118.242 97.2734 118C97.5196 117.758 97.8151 117.636 98.1598 117.636C98.4931 117.636 98.7829 117.758 99.0291 118C99.2791 118.242 99.406 118.534 99.4098 118.875C99.406 119.106 99.3454 119.316 99.228 119.506C99.1143 119.695 98.9628 119.847 98.7734 119.96C98.5878 120.07 98.3833 120.125 98.1598 120.125ZM105.415 120.159C104.658 120.159 103.98 120.017 103.381 119.733C102.783 119.445 102.308 119.051 101.955 118.551C101.607 118.051 101.421 117.479 101.398 116.835H103.444C103.482 117.312 103.688 117.703 104.063 118.006C104.438 118.305 104.889 118.455 105.415 118.455C105.828 118.455 106.196 118.36 106.518 118.17C106.84 117.981 107.094 117.718 107.279 117.381C107.465 117.044 107.556 116.659 107.552 116.227C107.556 115.788 107.463 115.398 107.273 115.057C107.084 114.716 106.825 114.449 106.495 114.256C106.165 114.059 105.787 113.96 105.359 113.96C105.01 113.956 104.667 114.021 104.33 114.153C103.993 114.286 103.726 114.46 103.529 114.676L101.626 114.364L102.234 108.364H108.984V110.125H103.978L103.643 113.21H103.711C103.927 112.956 104.232 112.746 104.626 112.58C105.02 112.409 105.451 112.324 105.921 112.324C106.626 112.324 107.254 112.491 107.808 112.824C108.361 113.153 108.796 113.608 109.114 114.188C109.433 114.767 109.592 115.43 109.592 116.176C109.592 116.945 109.414 117.631 109.058 118.233C108.705 118.831 108.215 119.303 107.586 119.648C106.961 119.989 106.237 120.159 105.415 120.159ZM115.54 120.159C114.783 120.159 114.105 120.017 113.506 119.733C112.908 119.445 112.433 119.051 112.08 118.551C111.732 118.051 111.546 117.479 111.523 116.835H113.569C113.607 117.312 113.813 117.703 114.188 118.006C114.563 118.305 115.014 118.455 115.54 118.455C115.953 118.455 116.321 118.36 116.643 118.17C116.965 117.981 117.219 117.718 117.404 117.381C117.59 117.044 117.681 116.659 117.677 116.227C117.681 115.788 117.588 115.398 117.398 115.057C117.209 114.716 116.95 114.449 116.62 114.256C116.29 114.059 115.912 113.96 115.484 113.96C115.135 113.956 114.792 114.021 114.455 114.153C114.118 114.286 113.851 114.46 113.654 114.676L111.751 114.364L112.359 108.364H119.109V110.125H114.103L113.768 113.21H113.836C114.052 112.956 114.357 112.746 114.751 112.58C115.145 112.409 115.576 112.324 116.046 112.324C116.751 112.324 117.379 112.491 117.933 112.824C118.486 113.153 118.921 113.608 119.239 114.188C119.558 114.767 119.717 115.43 119.717 116.176C119.717 116.945 119.539 117.631 119.183 118.233C118.83 118.831 118.34 119.303 117.711 119.648C117.086 119.989 116.362 120.159 115.54 120.159ZM125.921 120.222C124.986 120.222 124.183 119.985 123.512 119.511C122.845 119.034 122.332 118.347 121.972 117.449C121.616 116.547 121.438 115.462 121.438 114.193C121.442 112.924 121.622 111.845 121.978 110.955C122.338 110.061 122.851 109.379 123.518 108.909C124.188 108.439 124.989 108.205 125.921 108.205C126.853 108.205 127.654 108.439 128.325 108.909C128.995 109.379 129.508 110.061 129.864 110.955C130.224 111.848 130.404 112.928 130.404 114.193C130.404 115.466 130.224 116.553 129.864 117.455C129.508 118.352 128.995 119.038 128.325 119.511C127.658 119.985 126.857 120.222 125.921 120.222ZM125.921 118.443C126.648 118.443 127.222 118.085 127.643 117.369C128.067 116.65 128.279 115.591 128.279 114.193C128.279 113.269 128.183 112.492 127.989 111.864C127.796 111.235 127.523 110.761 127.171 110.443C126.819 110.121 126.402 109.96 125.921 109.96C125.198 109.96 124.626 110.32 124.205 111.04C123.785 111.756 123.573 112.807 123.569 114.193C123.565 115.121 123.658 115.902 123.847 116.534C124.04 117.167 124.313 117.644 124.665 117.966C125.018 118.284 125.436 118.443 125.921 118.443Z" fill="#54C447"/>
</svg>
