<svg width="198" height="236" viewBox="0 0 198 236" fill="none" xmlns="http://www.w3.org/2000/svg">
<path d="M15 0.5C6.99187 0.5 0.5 6.99187 0.5 15V221C0.5 229.008 6.99188 235.5 15 235.5H183C191.008 235.5 197.5 229.008 197.5 221V15C197.5 6.99187 191.008 0.5 183 0.5H15Z" fill="white" stroke="#F1F1F4"/>
<path d="M33.0327 24.2727V33H31.6264L27.5142 27.0554H27.4418V33H25.8608V24.2727H27.2756L31.3835 30.2216H31.4602V24.2727H33.0327ZM38.859 30.2472V26.4545H40.4016V33H38.9059V31.8366H38.8377C38.69 32.2031 38.4471 32.5028 38.109 32.7358C37.7738 32.9687 37.3604 33.0852 36.869 33.0852C36.44 33.0852 36.0607 32.9901 35.7312 32.7997C35.4045 32.6065 35.1488 32.3267 34.9641 31.9602C34.7795 31.5909 34.6871 31.1449 34.6871 30.6222V26.4545H36.2298V30.3835C36.2298 30.7983 36.3434 31.1278 36.5707 31.3722C36.7979 31.6165 37.0962 31.7386 37.4656 31.7386C37.6928 31.7386 37.913 31.6832 38.1261 31.5724C38.3391 31.4616 38.5138 31.2969 38.6502 31.0781C38.7894 30.8565 38.859 30.5795 38.859 30.2472ZM41.9879 33V26.4545H43.4624V27.5668H43.5391C43.6754 27.1918 43.9013 26.8991 44.2166 26.6889C44.532 26.4759 44.9084 26.3693 45.3459 26.3693C45.7891 26.3693 46.1626 26.4773 46.4666 26.6932C46.7734 26.9062 46.9893 27.1974 47.1143 27.5668H47.1825C47.3274 27.2031 47.5717 26.9134 47.9155 26.6974C48.2621 26.4787 48.6726 26.3693 49.147 26.3693C49.7493 26.3693 50.2408 26.5597 50.6214 26.9403C51.0021 27.321 51.1925 27.8764 51.1925 28.6065V33H49.6456V28.8452C49.6456 28.4389 49.5376 28.142 49.3217 27.9545C49.1058 27.7642 48.8416 27.669 48.5291 27.669C48.157 27.669 47.8658 27.7855 47.6555 28.0185C47.4482 28.2486 47.3445 28.5483 47.3445 28.9176V33H45.8317V28.7812C45.8317 28.4432 45.7294 28.1733 45.5249 27.9716C45.3232 27.7699 45.0589 27.669 44.7322 27.669C44.5107 27.669 44.3089 27.7259 44.1271 27.8395C43.9453 27.9503 43.8004 28.108 43.6925 28.3125C43.5845 28.5142 43.5305 28.75 43.5305 29.0199V33H41.9879ZM52.8256 33V24.2727H54.3683V27.5369H54.4322C54.5117 27.3778 54.6239 27.2088 54.7688 27.0298C54.9137 26.848 55.1097 26.6932 55.3569 26.5653C55.604 26.4347 55.9194 26.3693 56.3029 26.3693C56.8086 26.3693 57.2646 26.4986 57.6708 26.7571C58.0799 27.0128 58.4038 27.392 58.6424 27.8949C58.8839 28.3949 59.0046 29.0085 59.0046 29.7358C59.0046 30.4545 58.8867 31.0653 58.6509 31.5682C58.4151 32.071 58.0941 32.4545 57.6879 32.7188C57.2816 32.983 56.8214 33.1151 56.3072 33.1151C55.9322 33.1151 55.6211 33.0526 55.3739 32.9276C55.1268 32.8026 54.9279 32.652 54.7773 32.4759C54.6296 32.2969 54.5146 32.1278 54.4322 31.9688H54.3427V33H52.8256ZM54.3384 29.7273C54.3384 30.1506 54.3981 30.5213 54.5174 30.8395C54.6396 31.1577 54.8143 31.4062 55.0415 31.5852C55.2717 31.7614 55.5501 31.8494 55.8768 31.8494C56.2177 31.8494 56.5032 31.7585 56.7333 31.5767C56.9634 31.392 57.1367 31.1406 57.2532 30.8224C57.3725 30.5014 57.4322 30.1364 57.4322 29.7273C57.4322 29.321 57.3739 28.9602 57.2575 28.6449C57.141 28.3295 56.9677 28.0824 56.7376 27.9034C56.5075 27.7244 56.2205 27.6349 55.8768 27.6349C55.5472 27.6349 55.2674 27.7216 55.0373 27.8949C54.8072 28.0682 54.6325 28.3111 54.5131 28.6236C54.3967 28.9361 54.3384 29.304 54.3384 29.7273ZM63.2138 33.1278C62.5575 33.1278 61.9908 32.9915 61.5135 32.7188C61.0391 32.4432 60.674 32.054 60.4183 31.5511C60.1626 31.0455 60.0348 30.4503 60.0348 29.7656C60.0348 29.0923 60.1626 28.5014 60.4183 27.9929C60.6768 27.4815 61.0376 27.0838 61.5007 26.7997C61.9638 26.5128 62.5078 26.3693 63.1328 26.3693C63.5362 26.3693 63.9169 26.4347 64.2749 26.5653C64.6357 26.6932 64.9538 26.892 65.2294 27.1619C65.5078 27.4318 65.7266 27.7756 65.8857 28.1932C66.0447 28.608 66.1243 29.1023 66.1243 29.6761V30.1491H60.7592V29.1094H64.6456C64.6428 28.8139 64.5788 28.5511 64.4538 28.321C64.3288 28.0881 64.1541 27.9048 63.9297 27.7713C63.7081 27.6378 63.4496 27.571 63.1541 27.571C62.8388 27.571 62.5618 27.6477 62.3232 27.8011C62.0845 27.9517 61.8984 28.1506 61.7649 28.3977C61.6342 28.642 61.5675 28.9105 61.5646 29.2031V30.1108C61.5646 30.4915 61.6342 30.8182 61.7734 31.0909C61.9126 31.3608 62.1072 31.5682 62.3572 31.7131C62.6072 31.8551 62.8999 31.9261 63.2351 31.9261C63.4595 31.9261 63.6626 31.8949 63.8445 31.8324C64.0263 31.767 64.1839 31.6719 64.3175 31.5469C64.451 31.4219 64.5518 31.267 64.62 31.0824L66.0604 31.2443C65.9695 31.625 65.7962 31.9574 65.5405 32.2415C65.2876 32.5227 64.9638 32.7415 64.5689 32.8977C64.174 33.0511 63.7223 33.1278 63.2138 33.1278ZM67.4293 33V26.4545H68.9251V27.5455H68.9933C69.1126 27.1676 69.3171 26.8764 69.6069 26.6719C69.8995 26.4645 70.2333 26.3608 70.6083 26.3608C70.6935 26.3608 70.7887 26.3651 70.8938 26.3736C71.0018 26.3793 71.0913 26.3892 71.1623 26.4034V27.8224C71.0969 27.7997 70.9933 27.7798 70.8512 27.7628C70.712 27.7429 70.5771 27.733 70.4464 27.733C70.1651 27.733 69.9123 27.794 69.6879 27.9162C69.4663 28.0355 69.2915 28.2017 69.1637 28.4148C69.0359 28.6278 68.9719 28.8736 68.9719 29.152V33H67.4293ZM78.0188 33.1278C77.3796 33.1278 76.8256 32.9872 76.3569 32.706C75.8881 32.4247 75.5245 32.0312 75.266 31.5256C75.0103 31.0199 74.8825 30.429 74.8825 29.7528C74.8825 29.0767 75.0103 28.4844 75.266 27.9759C75.5245 27.4673 75.8881 27.0724 76.3569 26.7912C76.8256 26.5099 77.3796 26.3693 78.0188 26.3693C78.658 26.3693 79.212 26.5099 79.6808 26.7912C80.1495 27.0724 80.5117 27.4673 80.7674 27.9759C81.0259 28.4844 81.1552 29.0767 81.1552 29.7528C81.1552 30.429 81.0259 31.0199 80.7674 31.5256C80.5117 32.0312 80.1495 32.4247 79.6808 32.706C79.212 32.9872 78.658 33.1278 78.0188 33.1278ZM78.0273 31.892C78.3739 31.892 78.6637 31.7969 78.8967 31.6065C79.1296 31.4134 79.3029 31.1548 79.4165 30.831C79.533 30.5071 79.5913 30.1463 79.5913 29.7486C79.5913 29.348 79.533 28.9858 79.4165 28.6619C79.3029 28.3352 79.1296 28.0753 78.8967 27.8821C78.6637 27.6889 78.3739 27.5923 78.0273 27.5923C77.6722 27.5923 77.3768 27.6889 77.141 27.8821C76.908 28.0753 76.7333 28.3352 76.6168 28.6619C76.5032 28.9858 76.4464 29.348 76.4464 29.7486C76.4464 30.1463 76.5032 30.5071 76.6168 30.831C76.7333 31.1548 76.908 31.4134 77.141 31.6065C77.3768 31.7969 77.6722 31.892 78.0273 31.892ZM85.7798 26.4545V27.6477H81.9105V26.4545H85.7798ZM82.8778 33V25.8366C82.8778 25.3963 82.9688 25.0298 83.1506 24.7372C83.3352 24.4446 83.5824 24.2259 83.892 24.081C84.2017 23.9361 84.5455 23.8636 84.9233 23.8636C85.1903 23.8636 85.4276 23.8849 85.6349 23.9276C85.8423 23.9702 85.9957 24.0085 86.0952 24.0426L85.7884 25.2358C85.723 25.2159 85.6406 25.196 85.5412 25.1761C85.4418 25.1534 85.331 25.142 85.2088 25.142C84.9219 25.142 84.7188 25.2116 84.5994 25.3509C84.483 25.4872 84.4247 25.6832 84.4247 25.9389V33H82.8778ZM94.3324 35.4545V31.9688H94.2685C94.1889 32.1278 94.0739 32.2969 93.9233 32.4759C93.7727 32.652 93.5739 32.8026 93.3267 32.9276C93.0795 33.0526 92.7685 33.1151 92.3935 33.1151C91.8793 33.1151 91.419 32.983 91.0128 32.7188C90.6065 32.4545 90.2855 32.071 90.0497 31.5682C89.8139 31.0653 89.696 30.4545 89.696 29.7358C89.696 29.0085 89.8153 28.3949 90.054 27.8949C90.2955 27.392 90.6207 27.0128 91.0298 26.7571C91.4389 26.4986 91.8949 26.3693 92.3977 26.3693C92.7813 26.3693 93.0966 26.4347 93.3438 26.5653C93.5909 26.6932 93.7869 26.848 93.9318 27.0298C94.0767 27.2088 94.1889 27.3778 94.2685 27.5369H94.3622V26.4545H95.8793V35.4545H94.3324ZM92.8239 31.8494C93.1506 31.8494 93.429 31.7614 93.6591 31.5852C93.8892 31.4062 94.0639 31.1577 94.1832 30.8395C94.3026 30.5213 94.3622 30.1506 94.3622 29.7273C94.3622 29.304 94.3026 28.9361 94.1832 28.6236C94.0668 28.3111 93.8935 28.0682 93.6634 27.8949C93.4361 27.7216 93.1563 27.6349 92.8239 27.6349C92.4801 27.6349 92.1932 27.7244 91.9631 27.9034C91.733 28.0824 91.5597 28.3295 91.4432 28.6449C91.3267 28.9602 91.2685 29.321 91.2685 29.7273C91.2685 30.1364 91.3267 30.5014 91.4432 30.8224C91.5625 31.1406 91.7372 31.392 91.9673 31.5767C92.2003 31.7585 92.4858 31.8494 92.8239 31.8494ZM101.636 30.2472V26.4545H103.179V33H101.683V31.8366H101.615C101.467 32.2031 101.224 32.5028 100.886 32.7358C100.551 32.9687 100.138 33.0852 99.6463 33.0852C99.2173 33.0852 98.8381 32.9901 98.5085 32.7997C98.1818 32.6065 97.9261 32.3267 97.7415 31.9602C97.5568 31.5909 97.4645 31.1449 97.4645 30.6222V26.4545H99.0071V30.3835C99.0071 30.7983 99.1207 31.1278 99.348 31.3722C99.5753 31.6165 99.8736 31.7386 100.243 31.7386C100.47 31.7386 100.69 31.6832 100.903 31.5724C101.116 31.4616 101.291 31.2969 101.428 31.0781C101.567 30.8565 101.636 30.5795 101.636 30.2472ZM106.649 33.1321C106.234 33.1321 105.86 33.0582 105.528 32.9105C105.199 32.7599 104.937 32.5384 104.744 32.2457C104.554 31.9531 104.458 31.5923 104.458 31.1634C104.458 30.794 104.527 30.4886 104.663 30.2472C104.799 30.0057 104.985 29.8125 105.221 29.6676C105.457 29.5227 105.723 29.4134 106.018 29.3395C106.316 29.2628 106.625 29.2074 106.943 29.1733C107.326 29.1335 107.637 29.098 107.876 29.0668C108.115 29.0327 108.288 28.9815 108.396 28.9134C108.507 28.8423 108.562 28.733 108.562 28.5852V28.5597C108.562 28.2386 108.467 27.9901 108.277 27.8139C108.086 27.6378 107.812 27.5497 107.454 27.5497C107.076 27.5497 106.777 27.6321 106.555 27.7969C106.336 27.9616 106.189 28.1562 106.112 28.3807L104.672 28.1761C104.785 27.7784 104.973 27.446 105.234 27.179C105.495 26.9091 105.815 26.7074 106.193 26.5739C106.571 26.4375 106.988 26.3693 107.446 26.3693C107.761 26.3693 108.075 26.4062 108.387 26.4801C108.7 26.554 108.985 26.6761 109.244 26.8466C109.502 27.0142 109.71 27.2429 109.866 27.5327C110.025 27.8224 110.105 28.1847 110.105 28.6193V33H108.622V32.1009H108.571C108.477 32.2827 108.345 32.4531 108.174 32.6122C108.007 32.7685 107.795 32.8949 107.539 32.9915C107.287 33.0852 106.99 33.1321 106.649 33.1321ZM107.049 31.9986C107.359 31.9986 107.627 31.9375 107.855 31.8153C108.082 31.6903 108.257 31.5256 108.379 31.321C108.504 31.1165 108.566 30.8935 108.566 30.652V29.8807C108.518 29.9205 108.436 29.9574 108.319 29.9915C108.206 30.0256 108.078 30.0554 107.936 30.081C107.794 30.1065 107.653 30.1293 107.514 30.1491C107.375 30.169 107.254 30.1861 107.152 30.2003C106.922 30.2315 106.716 30.2827 106.534 30.3537C106.352 30.4247 106.208 30.5241 106.103 30.652C105.998 30.777 105.946 30.9389 105.946 31.1378C105.946 31.4219 106.049 31.6364 106.257 31.7812C106.464 31.9261 106.728 31.9986 107.049 31.9986ZM113.199 24.2727V33H111.656V24.2727H113.199ZM114.785 33V26.4545H116.327V33H114.785ZM115.56 25.5256C115.316 25.5256 115.106 25.4446 114.93 25.2827C114.754 25.1179 114.665 24.9205 114.665 24.6903C114.665 24.4574 114.754 24.2599 114.93 24.098C115.106 23.9332 115.316 23.8509 115.56 23.8509C115.808 23.8509 116.018 23.9332 116.191 24.098C116.367 24.2599 116.455 24.4574 116.455 24.6903C116.455 24.9205 116.367 25.1179 116.191 25.2827C116.018 25.4446 115.808 25.5256 115.56 25.5256ZM121.229 26.4545V27.6477H117.36V26.4545H121.229ZM118.327 33V25.8366C118.327 25.3963 118.418 25.0298 118.6 24.7372C118.784 24.4446 119.032 24.2259 119.341 24.081C119.651 23.9361 119.995 23.8636 120.373 23.8636C120.64 23.8636 120.877 23.8849 121.084 23.9276C121.292 23.9702 121.445 24.0085 121.544 24.0426L121.238 25.2358C121.172 25.2159 121.09 25.196 120.99 25.1761C120.891 25.1534 120.78 25.142 120.658 25.142C120.371 25.142 120.168 25.2116 120.049 25.3509C119.932 25.4872 119.874 25.6832 119.874 25.9389V33H118.327ZM122.437 33V26.4545H123.98V33H122.437ZM123.213 25.5256C122.968 25.5256 122.758 25.4446 122.582 25.2827C122.406 25.1179 122.318 24.9205 122.318 24.6903C122.318 24.4574 122.406 24.2599 122.582 24.098C122.758 23.9332 122.968 23.8509 123.213 23.8509C123.46 23.8509 123.67 23.9332 123.843 24.098C124.02 24.2599 124.108 24.4574 124.108 24.6903C124.108 24.9205 124.02 25.1179 123.843 25.2827C123.67 25.4446 123.46 25.5256 123.213 25.5256ZM128.464 33.1278C127.808 33.1278 127.241 32.9915 126.763 32.7188C126.289 32.4432 125.924 32.054 125.668 31.5511C125.413 31.0455 125.285 30.4503 125.285 29.7656C125.285 29.0923 125.413 28.5014 125.668 27.9929C125.927 27.4815 126.288 27.0838 126.751 26.7997C127.214 26.5128 127.758 26.3693 128.383 26.3693C128.786 26.3693 129.167 26.4347 129.525 26.5653C129.886 26.6932 130.204 26.892 130.479 27.1619C130.758 27.4318 130.977 27.7756 131.136 28.1932C131.295 28.608 131.374 29.1023 131.374 29.6761V30.1491H126.009V29.1094H129.896C129.893 28.8139 129.829 28.5511 129.704 28.321C129.579 28.0881 129.404 27.9048 129.18 27.7713C128.958 27.6378 128.7 27.571 128.404 27.571C128.089 27.571 127.812 27.6477 127.573 27.8011C127.335 27.9517 127.148 28.1506 127.015 28.3977C126.884 28.642 126.817 28.9105 126.815 29.2031V30.1108C126.815 30.4915 126.884 30.8182 127.023 31.0909C127.163 31.3608 127.357 31.5682 127.607 31.7131C127.857 31.8551 128.15 31.9261 128.485 31.9261C128.71 31.9261 128.913 31.8949 129.094 31.8324C129.276 31.767 129.434 31.6719 129.567 31.5469C129.701 31.4219 129.802 31.267 129.87 31.0824L131.31 31.2443C131.219 31.625 131.046 31.9574 130.79 32.2415C130.538 32.5227 130.214 32.7415 129.819 32.8977C129.424 33.0511 128.972 33.1278 128.464 33.1278ZM135.108 33.1151C134.594 33.1151 134.134 32.983 133.728 32.7188C133.321 32.4545 133 32.071 132.765 31.5682C132.529 31.0653 132.411 30.4545 132.411 29.7358C132.411 29.0085 132.53 28.3949 132.769 27.8949C133.01 27.392 133.336 27.0128 133.745 26.7571C134.154 26.4986 134.61 26.3693 135.113 26.3693C135.496 26.3693 135.811 26.4347 136.059 26.5653C136.306 26.6932 136.502 26.848 136.647 27.0298C136.792 27.2088 136.904 27.3778 136.983 27.5369H137.047V24.2727H138.594V33H137.077V31.9688H136.983C136.904 32.1278 136.789 32.2969 136.638 32.4759C136.488 32.652 136.289 32.8026 136.042 32.9276C135.794 33.0526 135.483 33.1151 135.108 33.1151ZM135.539 31.8494C135.865 31.8494 136.144 31.7614 136.374 31.5852C136.604 31.4062 136.779 31.1577 136.898 30.8395C137.017 30.5213 137.077 30.1506 137.077 29.7273C137.077 29.304 137.017 28.9361 136.898 28.6236C136.782 28.3111 136.608 28.0682 136.378 27.8949C136.151 27.7216 135.871 27.6349 135.539 27.6349C135.195 27.6349 134.908 27.7244 134.678 27.9034C134.448 28.0824 134.275 28.3295 134.158 28.6449C134.042 28.9602 133.983 29.321 133.983 29.7273C133.983 30.1364 134.042 30.5014 134.158 30.8224C134.277 31.1406 134.452 31.392 134.682 31.5767C134.915 31.7585 135.201 31.8494 135.539 31.8494ZM144.757 24.2727V33H143.214V24.2727H144.757ZM149.241 33.1278C148.585 33.1278 148.018 32.9915 147.541 32.7188C147.066 32.4432 146.701 32.054 146.446 31.5511C146.19 31.0455 146.062 30.4503 146.062 29.7656C146.062 29.0923 146.19 28.5014 146.446 27.9929C146.704 27.4815 147.065 27.0838 147.528 26.7997C147.991 26.5128 148.535 26.3693 149.16 26.3693C149.564 26.3693 149.944 26.4347 150.302 26.5653C150.663 26.6932 150.981 26.892 151.257 27.1619C151.535 27.4318 151.754 27.7756 151.913 28.1932C152.072 28.608 152.152 29.1023 152.152 29.6761V30.1491H146.787V29.1094H150.673C150.67 28.8139 150.606 28.5511 150.481 28.321C150.356 28.0881 150.181 27.9048 149.957 27.7713C149.735 27.6378 149.477 27.571 149.181 27.571C148.866 27.571 148.589 27.6477 148.35 27.8011C148.112 27.9517 147.926 28.1506 147.792 28.3977C147.662 28.642 147.595 28.9105 147.592 29.2031V30.1108C147.592 30.4915 147.662 30.8182 147.801 31.0909C147.94 31.3608 148.135 31.5682 148.385 31.7131C148.635 31.8551 148.927 31.9261 149.262 31.9261C149.487 31.9261 149.69 31.8949 149.872 31.8324C150.054 31.767 150.211 31.6719 150.345 31.5469C150.478 31.4219 150.579 31.267 150.647 31.0824L152.088 31.2443C151.997 31.625 151.824 31.9574 151.568 32.2415C151.315 32.5227 150.991 32.7415 150.596 32.8977C150.201 33.0511 149.75 33.1278 149.241 33.1278ZM155.34 33.1321C154.925 33.1321 154.552 33.0582 154.219 32.9105C153.89 32.7599 153.629 32.5384 153.435 32.2457C153.245 31.9531 153.15 31.5923 153.15 31.1634C153.15 30.794 153.218 30.4886 153.354 30.2472C153.491 30.0057 153.677 29.8125 153.913 29.6676C154.148 29.5227 154.414 29.4134 154.71 29.3395C155.008 29.2628 155.316 29.2074 155.634 29.1733C156.018 29.1335 156.329 29.098 156.567 29.0668C156.806 29.0327 156.979 28.9815 157.087 28.9134C157.198 28.8423 157.254 28.733 157.254 28.5852V28.5597C157.254 28.2386 157.158 27.9901 156.968 27.8139C156.778 27.6378 156.504 27.5497 156.146 27.5497C155.768 27.5497 155.468 27.6321 155.246 27.7969C155.028 27.9616 154.88 28.1562 154.803 28.3807L153.363 28.1761C153.477 27.7784 153.664 27.446 153.925 27.179C154.187 26.9091 154.506 26.7074 154.884 26.5739C155.262 26.4375 155.68 26.3693 156.137 26.3693C156.452 26.3693 156.766 26.4062 157.079 26.4801C157.391 26.554 157.677 26.6761 157.935 26.8466C158.194 27.0142 158.401 27.2429 158.558 27.5327C158.717 27.8224 158.796 28.1847 158.796 28.6193V33H157.313V32.1009H157.262C157.168 32.2827 157.036 32.4531 156.866 32.6122C156.698 32.7685 156.487 32.8949 156.231 32.9915C155.978 33.0852 155.681 33.1321 155.34 33.1321ZM155.741 31.9986C156.05 31.9986 156.319 31.9375 156.546 31.8153C156.773 31.6903 156.948 31.5256 157.07 31.321C157.195 31.1165 157.258 30.8935 157.258 30.652V29.8807C157.21 29.9205 157.127 29.9574 157.011 29.9915C156.897 30.0256 156.769 30.0554 156.627 30.081C156.485 30.1065 156.344 30.1293 156.205 30.1491C156.066 30.169 155.945 30.1861 155.843 30.2003C155.613 30.2315 155.407 30.2827 155.225 30.3537C155.043 30.4247 154.9 30.5241 154.795 30.652C154.69 30.777 154.637 30.9389 154.637 31.1378C154.637 31.4219 154.741 31.6364 154.948 31.7812C155.156 31.9261 155.42 31.9986 155.741 31.9986ZM162.776 33.1151C162.262 33.1151 161.802 32.983 161.396 32.7188C160.989 32.4545 160.668 32.071 160.433 31.5682C160.197 31.0653 160.079 30.4545 160.079 29.7358C160.079 29.0085 160.198 28.3949 160.437 27.8949C160.678 27.392 161.004 27.0128 161.413 26.7571C161.822 26.4986 162.278 26.3693 162.781 26.3693C163.164 26.3693 163.479 26.4347 163.727 26.5653C163.974 26.6932 164.17 26.848 164.315 27.0298C164.46 27.2088 164.572 27.3778 164.651 27.5369H164.715V24.2727H166.262V33H164.745V31.9688H164.651C164.572 32.1278 164.457 32.2969 164.306 32.4759C164.156 32.652 163.957 32.8026 163.71 32.9276C163.462 33.0526 163.151 33.1151 162.776 33.1151ZM163.207 31.8494C163.533 31.8494 163.812 31.7614 164.042 31.5852C164.272 31.4062 164.447 31.1577 164.566 30.8395C164.685 30.5213 164.745 30.1506 164.745 29.7273C164.745 29.304 164.685 28.9361 164.566 28.6236C164.45 28.3111 164.276 28.0682 164.046 27.8949C163.819 27.7216 163.539 27.6349 163.207 27.6349C162.863 27.6349 162.576 27.7244 162.346 27.9034C162.116 28.0824 161.942 28.3295 161.826 28.6449C161.71 28.9602 161.651 29.321 161.651 29.7273C161.651 30.1364 161.71 30.5014 161.826 30.8224C161.945 31.1406 162.12 31.392 162.35 31.5767C162.583 31.7585 162.869 31.8494 163.207 31.8494ZM173.079 28.1847L171.673 28.3381C171.633 28.196 171.564 28.0625 171.464 27.9375C171.368 27.8125 171.237 27.7116 171.072 27.6349C170.907 27.5582 170.706 27.5199 170.467 27.5199C170.146 27.5199 169.876 27.5895 169.657 27.7287C169.441 27.8679 169.335 28.0483 169.338 28.2699C169.335 28.4602 169.404 28.6151 169.547 28.7344C169.691 28.8537 169.93 28.9517 170.262 29.0284L171.379 29.267C171.998 29.4006 172.458 29.6122 172.76 29.902C173.064 30.1918 173.217 30.571 173.22 31.0398C173.217 31.4517 173.096 31.8153 172.858 32.1307C172.622 32.4432 172.294 32.6875 171.873 32.8636C171.453 33.0398 170.97 33.1278 170.424 33.1278C169.623 33.1278 168.978 32.9602 168.49 32.625C168.001 32.2869 167.71 31.8168 167.616 31.2145L169.12 31.0696C169.189 31.3651 169.333 31.5881 169.555 31.7386C169.777 31.8892 170.065 31.9645 170.42 31.9645C170.787 31.9645 171.081 31.8892 171.302 31.7386C171.527 31.5881 171.639 31.402 171.639 31.1804C171.639 30.9929 171.566 30.8381 171.422 30.7159C171.279 30.5937 171.058 30.5 170.757 30.4347L169.64 30.2003C169.012 30.0696 168.548 29.8494 168.247 29.5398C167.946 29.2273 167.797 28.8324 167.799 28.3551C167.797 27.9517 167.906 27.6023 168.127 27.3068C168.352 27.0085 168.663 26.7784 169.061 26.6165C169.461 26.4517 169.923 26.3693 170.446 26.3693C171.213 26.3693 171.816 26.5327 172.257 26.8594C172.7 27.1861 172.974 27.6278 173.079 28.1847Z" fill="#373737"/>
<path d="M13.7045 74.5V68.6818H15.6705C16.1269 68.6818 16.5 68.7642 16.7898 68.929C17.0814 69.0919 17.2973 69.3125 17.4375 69.5909C17.5777 69.8693 17.6477 70.1799 17.6477 70.5227C17.6477 70.8655 17.5777 71.1771 17.4375 71.4574C17.2992 71.7377 17.0852 71.9612 16.7955 72.1278C16.5057 72.2926 16.1345 72.375 15.6818 72.375H14.2727V71.75H15.6591C15.9716 71.75 16.2225 71.696 16.4119 71.5881C16.6013 71.4801 16.7386 71.3343 16.8239 71.1506C16.911 70.965 16.9545 70.7557 16.9545 70.5227C16.9545 70.2898 16.911 70.0814 16.8239 69.8977C16.7386 69.714 16.6004 69.5701 16.4091 69.4659C16.2178 69.3598 15.964 69.3068 15.6477 69.3068H14.4091V74.5H13.7045ZM20.4744 74.5909C20.054 74.5909 19.6913 74.4981 19.3864 74.3125C19.0833 74.125 18.8494 73.8636 18.6847 73.5284C18.5218 73.1913 18.4403 72.7992 18.4403 72.3523C18.4403 71.9053 18.5218 71.5114 18.6847 71.1705C18.8494 70.8277 19.0786 70.5606 19.3722 70.3693C19.6676 70.1761 20.0123 70.0795 20.4062 70.0795C20.6335 70.0795 20.858 70.1174 21.0795 70.1932C21.3011 70.2689 21.5028 70.392 21.6847 70.5625C21.8665 70.7311 22.0114 70.9545 22.1193 71.233C22.2273 71.5114 22.2812 71.8542 22.2812 72.2614V72.5455H18.9176V71.9659H21.5994C21.5994 71.7197 21.5502 71.5 21.4517 71.3068C21.3551 71.1136 21.2169 70.9612 21.0369 70.8494C20.8589 70.7377 20.6487 70.6818 20.4062 70.6818C20.1392 70.6818 19.9081 70.7481 19.7131 70.8807C19.5199 71.0114 19.3712 71.1818 19.267 71.392C19.1629 71.6023 19.1108 71.8277 19.1108 72.0682V72.4545C19.1108 72.7841 19.1676 73.0634 19.2812 73.2926C19.3968 73.5199 19.5568 73.6932 19.7614 73.8125C19.9659 73.9299 20.2036 73.9886 20.4744 73.9886C20.6506 73.9886 20.8097 73.964 20.9517 73.9148C21.0956 73.8636 21.2197 73.7879 21.3239 73.6875C21.428 73.5852 21.5085 73.4583 21.5653 73.3068L22.2131 73.4886C22.1449 73.7083 22.0303 73.9015 21.8693 74.0682C21.7083 74.233 21.5095 74.3617 21.2727 74.4545C21.036 74.5455 20.7699 74.5909 20.4744 74.5909ZM23.3011 74.5V70.1364H23.9489V70.7955H23.9943C24.0739 70.5795 24.2178 70.4044 24.4261 70.2699C24.6345 70.1354 24.8693 70.0682 25.1307 70.0682C25.1799 70.0682 25.2415 70.0691 25.3153 70.071C25.3892 70.0729 25.4451 70.0758 25.483 70.0795V70.7614C25.4602 70.7557 25.4081 70.7472 25.3267 70.7358C25.2472 70.7225 25.1629 70.7159 25.0739 70.7159C24.8617 70.7159 24.6723 70.7604 24.5057 70.8494C24.3409 70.9366 24.2102 71.0578 24.1136 71.2131C24.0189 71.3665 23.9716 71.5417 23.9716 71.7386V74.5H23.3011ZM26.2663 74.5455C26.1262 74.5455 26.0059 74.4953 25.9055 74.3949C25.8052 74.2945 25.755 74.1742 25.755 74.0341C25.755 73.8939 25.8052 73.7737 25.9055 73.6733C26.0059 73.5729 26.1262 73.5227 26.2663 73.5227C26.4065 73.5227 26.5268 73.5729 26.6271 73.6733C26.7275 73.7737 26.7777 73.8939 26.7777 74.0341C26.7777 74.1269 26.754 74.2121 26.7067 74.2898C26.6612 74.3674 26.5997 74.4299 26.522 74.4773C26.4463 74.5227 26.361 74.5455 26.2663 74.5455ZM29.6705 74.5795C29.3371 74.5795 29.0369 74.5133 28.7699 74.3807C28.5028 74.2481 28.2888 74.0663 28.1278 73.8352C27.9669 73.6042 27.8788 73.3409 27.8636 73.0455H28.5455C28.572 73.3087 28.6913 73.5265 28.9034 73.6989C29.1174 73.8693 29.3731 73.9545 29.6705 73.9545C29.9091 73.9545 30.1212 73.8987 30.3068 73.7869C30.4943 73.6752 30.6411 73.5218 30.7472 73.3267C30.8551 73.1297 30.9091 72.9072 30.9091 72.6591C30.9091 72.4053 30.8532 72.179 30.7415 71.9801C30.6316 71.7794 30.4801 71.6212 30.2869 71.5057C30.0938 71.3902 29.8731 71.3314 29.625 71.3295C29.447 71.3277 29.2642 71.3551 29.0767 71.4119C28.8892 71.4669 28.7348 71.5379 28.6136 71.625L27.9545 71.5455L28.3068 68.6818H31.3295V69.3068H28.8977L28.6932 71.0227H28.7273C28.8466 70.928 28.9962 70.8494 29.1761 70.7869C29.3561 70.7244 29.5436 70.6932 29.7386 70.6932C30.0947 70.6932 30.4119 70.7784 30.6903 70.9489C30.9706 71.1174 31.1903 71.3485 31.3494 71.642C31.5104 71.9356 31.5909 72.2708 31.5909 72.6477C31.5909 73.0189 31.5076 73.3504 31.3409 73.642C31.1761 73.9318 30.9489 74.161 30.6591 74.3295C30.3693 74.4962 30.0398 74.5795 29.6705 74.5795Z" fill="#757A88" fill-opacity="0.7"/>
<path d="M13.7045 105.5V99.6818H15.6705C16.1269 99.6818 16.5 99.7642 16.7898 99.929C17.0814 100.092 17.2973 100.312 17.4375 100.591C17.5777 100.869 17.6477 101.18 17.6477 101.523C17.6477 101.866 17.5777 102.177 17.4375 102.457C17.2992 102.738 17.0852 102.961 16.7955 103.128C16.5057 103.293 16.1345 103.375 15.6818 103.375H14.2727V102.75H15.6591C15.9716 102.75 16.2225 102.696 16.4119 102.588C16.6013 102.48 16.7386 102.334 16.8239 102.151C16.911 101.965 16.9545 101.756 16.9545 101.523C16.9545 101.29 16.911 101.081 16.8239 100.898C16.7386 100.714 16.6004 100.57 16.4091 100.466C16.2178 100.36 15.964 100.307 15.6477 100.307H14.4091V105.5H13.7045ZM20.4744 105.591C20.054 105.591 19.6913 105.498 19.3864 105.312C19.0833 105.125 18.8494 104.864 18.6847 104.528C18.5218 104.191 18.4403 103.799 18.4403 103.352C18.4403 102.905 18.5218 102.511 18.6847 102.17C18.8494 101.828 19.0786 101.561 19.3722 101.369C19.6676 101.176 20.0123 101.08 20.4062 101.08C20.6335 101.08 20.858 101.117 21.0795 101.193C21.3011 101.269 21.5028 101.392 21.6847 101.562C21.8665 101.731 22.0114 101.955 22.1193 102.233C22.2273 102.511 22.2812 102.854 22.2812 103.261V103.545H18.9176V102.966H21.5994C21.5994 102.72 21.5502 102.5 21.4517 102.307C21.3551 102.114 21.2169 101.961 21.0369 101.849C20.8589 101.738 20.6487 101.682 20.4062 101.682C20.1392 101.682 19.9081 101.748 19.7131 101.881C19.5199 102.011 19.3712 102.182 19.267 102.392C19.1629 102.602 19.1108 102.828 19.1108 103.068V103.455C19.1108 103.784 19.1676 104.063 19.2812 104.293C19.3968 104.52 19.5568 104.693 19.7614 104.812C19.9659 104.93 20.2036 104.989 20.4744 104.989C20.6506 104.989 20.8097 104.964 20.9517 104.915C21.0956 104.864 21.2197 104.788 21.3239 104.688C21.428 104.585 21.5085 104.458 21.5653 104.307L22.2131 104.489C22.1449 104.708 22.0303 104.902 21.8693 105.068C21.7083 105.233 21.5095 105.362 21.2727 105.455C21.036 105.545 20.7699 105.591 20.4744 105.591ZM23.3011 105.5V101.136H23.9489V101.795H23.9943C24.0739 101.58 24.2178 101.404 24.4261 101.27C24.6345 101.135 24.8693 101.068 25.1307 101.068C25.1799 101.068 25.2415 101.069 25.3153 101.071C25.3892 101.073 25.4451 101.076 25.483 101.08V101.761C25.4602 101.756 25.4081 101.747 25.3267 101.736C25.2472 101.723 25.1629 101.716 25.0739 101.716C24.8617 101.716 24.6723 101.76 24.5057 101.849C24.3409 101.937 24.2102 102.058 24.1136 102.213C24.0189 102.366 23.9716 102.542 23.9716 102.739V105.5H23.3011ZM26.2663 105.545C26.1262 105.545 26.0059 105.495 25.9055 105.395C25.8052 105.295 25.755 105.174 25.755 105.034C25.755 104.894 25.8052 104.774 25.9055 104.673C26.0059 104.573 26.1262 104.523 26.2663 104.523C26.4065 104.523 26.5268 104.573 26.6271 104.673C26.7275 104.774 26.7777 104.894 26.7777 105.034C26.7777 105.127 26.754 105.212 26.7067 105.29C26.6612 105.367 26.5997 105.43 26.522 105.477C26.4463 105.523 26.361 105.545 26.2663 105.545ZM27.8331 104.307V103.727L30.3899 99.6818H30.8104V100.58H30.5263L28.5945 103.636V103.682H32.0376V104.307H27.8331ZM30.5717 105.5V104.131V103.861V99.6818H31.2422V105.5H30.5717Z" fill="#757A88" fill-opacity="0.7"/>
<path d="M13.7045 136.5V130.682H15.6705C16.1269 130.682 16.5 130.764 16.7898 130.929C17.0814 131.092 17.2973 131.312 17.4375 131.591C17.5777 131.869 17.6477 132.18 17.6477 132.523C17.6477 132.866 17.5777 133.177 17.4375 133.457C17.2992 133.738 17.0852 133.961 16.7955 134.128C16.5057 134.293 16.1345 134.375 15.6818 134.375H14.2727V133.75H15.6591C15.9716 133.75 16.2225 133.696 16.4119 133.588C16.6013 133.48 16.7386 133.334 16.8239 133.151C16.911 132.965 16.9545 132.756 16.9545 132.523C16.9545 132.29 16.911 132.081 16.8239 131.898C16.7386 131.714 16.6004 131.57 16.4091 131.466C16.2178 131.36 15.964 131.307 15.6477 131.307H14.4091V136.5H13.7045ZM20.4744 136.591C20.054 136.591 19.6913 136.498 19.3864 136.312C19.0833 136.125 18.8494 135.864 18.6847 135.528C18.5218 135.191 18.4403 134.799 18.4403 134.352C18.4403 133.905 18.5218 133.511 18.6847 133.17C18.8494 132.828 19.0786 132.561 19.3722 132.369C19.6676 132.176 20.0123 132.08 20.4062 132.08C20.6335 132.08 20.858 132.117 21.0795 132.193C21.3011 132.269 21.5028 132.392 21.6847 132.562C21.8665 132.731 22.0114 132.955 22.1193 133.233C22.2273 133.511 22.2812 133.854 22.2812 134.261V134.545H18.9176V133.966H21.5994C21.5994 133.72 21.5502 133.5 21.4517 133.307C21.3551 133.114 21.2169 132.961 21.0369 132.849C20.8589 132.738 20.6487 132.682 20.4062 132.682C20.1392 132.682 19.9081 132.748 19.7131 132.881C19.5199 133.011 19.3712 133.182 19.267 133.392C19.1629 133.602 19.1108 133.828 19.1108 134.068V134.455C19.1108 134.784 19.1676 135.063 19.2812 135.293C19.3968 135.52 19.5568 135.693 19.7614 135.812C19.9659 135.93 20.2036 135.989 20.4744 135.989C20.6506 135.989 20.8097 135.964 20.9517 135.915C21.0956 135.864 21.2197 135.788 21.3239 135.688C21.428 135.585 21.5085 135.458 21.5653 135.307L22.2131 135.489C22.1449 135.708 22.0303 135.902 21.8693 136.068C21.7083 136.233 21.5095 136.362 21.2727 136.455C21.036 136.545 20.7699 136.591 20.4744 136.591ZM23.3011 136.5V132.136H23.9489V132.795H23.9943C24.0739 132.58 24.2178 132.404 24.4261 132.27C24.6345 132.135 24.8693 132.068 25.1307 132.068C25.1799 132.068 25.2415 132.069 25.3153 132.071C25.3892 132.073 25.4451 132.076 25.483 132.08V132.761C25.4602 132.756 25.4081 132.747 25.3267 132.736C25.2472 132.723 25.1629 132.716 25.0739 132.716C24.8617 132.716 24.6723 132.76 24.5057 132.849C24.3409 132.937 24.2102 133.058 24.1136 133.213C24.0189 133.366 23.9716 133.542 23.9716 133.739V136.5H23.3011ZM26.2663 136.545C26.1262 136.545 26.0059 136.495 25.9055 136.395C25.8052 136.295 25.755 136.174 25.755 136.034C25.755 135.894 25.8052 135.774 25.9055 135.673C26.0059 135.573 26.1262 135.523 26.2663 135.523C26.4065 135.523 26.5268 135.573 26.6271 135.673C26.7275 135.774 26.7777 135.894 26.7777 136.034C26.7777 136.127 26.754 136.212 26.7067 136.29C26.6612 136.367 26.5997 136.43 26.522 136.477C26.4463 136.523 26.361 136.545 26.2663 136.545ZM29.7166 136.58C29.3416 136.58 29.0073 136.515 28.7138 136.386C28.4221 136.258 28.1901 136.079 28.0178 135.849C27.8473 135.618 27.7545 135.35 27.7393 135.045H28.4553C28.4704 135.233 28.5348 135.395 28.6484 135.531C28.7621 135.666 28.9107 135.77 29.0945 135.844C29.2782 135.918 29.4818 135.955 29.7053 135.955C29.9553 135.955 30.1768 135.911 30.37 135.824C30.5632 135.737 30.7147 135.616 30.8246 135.46C30.9344 135.305 30.9893 135.125 30.9893 134.92C30.9893 134.706 30.9363 134.518 30.8303 134.355C30.7242 134.19 30.5689 134.062 30.3643 133.969C30.1598 133.876 29.9098 133.83 29.6143 133.83H29.1484V133.205H29.6143C29.8454 133.205 30.0481 133.163 30.2223 133.08C30.3984 132.996 30.5357 132.879 30.6342 132.727C30.7346 132.576 30.7848 132.398 30.7848 132.193C30.7848 131.996 30.7412 131.825 30.6541 131.679C30.567 131.533 30.4439 131.42 30.2848 131.338C30.1276 131.257 29.942 131.216 29.728 131.216C29.5272 131.216 29.3378 131.253 29.1598 131.327C28.9837 131.399 28.8397 131.504 28.728 131.642C28.6162 131.778 28.5556 131.943 28.5462 132.136H27.8643C27.8757 131.831 27.9676 131.564 28.1399 131.335C28.3123 131.104 28.5376 130.924 28.8161 130.795C29.0964 130.667 29.4041 130.602 29.7393 130.602C30.0992 130.602 30.4079 130.675 30.6655 130.821C30.9231 130.965 31.121 131.155 31.2592 131.392C31.3975 131.629 31.4666 131.884 31.4666 132.159C31.4666 132.487 31.3804 132.766 31.2081 132.997C31.0376 133.228 30.8056 133.388 30.5121 133.477V133.523C30.8795 133.583 31.1664 133.74 31.3729 133.991C31.5793 134.241 31.6825 134.551 31.6825 134.92C31.6825 135.237 31.5964 135.521 31.424 135.773C31.2536 136.023 31.0206 136.22 30.7251 136.364C30.4297 136.508 30.0935 136.58 29.7166 136.58Z" fill="#757A88" fill-opacity="0.7"/>
<path d="M13.7045 167.5V161.682H15.6705C16.1269 161.682 16.5 161.764 16.7898 161.929C17.0814 162.092 17.2973 162.312 17.4375 162.591C17.5777 162.869 17.6477 163.18 17.6477 163.523C17.6477 163.866 17.5777 164.177 17.4375 164.457C17.2992 164.738 17.0852 164.961 16.7955 165.128C16.5057 165.293 16.1345 165.375 15.6818 165.375H14.2727V164.75H15.6591C15.9716 164.75 16.2225 164.696 16.4119 164.588C16.6013 164.48 16.7386 164.334 16.8239 164.151C16.911 163.965 16.9545 163.756 16.9545 163.523C16.9545 163.29 16.911 163.081 16.8239 162.898C16.7386 162.714 16.6004 162.57 16.4091 162.466C16.2178 162.36 15.964 162.307 15.6477 162.307H14.4091V167.5H13.7045ZM20.4744 167.591C20.054 167.591 19.6913 167.498 19.3864 167.312C19.0833 167.125 18.8494 166.864 18.6847 166.528C18.5218 166.191 18.4403 165.799 18.4403 165.352C18.4403 164.905 18.5218 164.511 18.6847 164.17C18.8494 163.828 19.0786 163.561 19.3722 163.369C19.6676 163.176 20.0123 163.08 20.4062 163.08C20.6335 163.08 20.858 163.117 21.0795 163.193C21.3011 163.269 21.5028 163.392 21.6847 163.562C21.8665 163.731 22.0114 163.955 22.1193 164.233C22.2273 164.511 22.2812 164.854 22.2812 165.261V165.545H18.9176V164.966H21.5994C21.5994 164.72 21.5502 164.5 21.4517 164.307C21.3551 164.114 21.2169 163.961 21.0369 163.849C20.8589 163.738 20.6487 163.682 20.4062 163.682C20.1392 163.682 19.9081 163.748 19.7131 163.881C19.5199 164.011 19.3712 164.182 19.267 164.392C19.1629 164.602 19.1108 164.828 19.1108 165.068V165.455C19.1108 165.784 19.1676 166.063 19.2812 166.293C19.3968 166.52 19.5568 166.693 19.7614 166.812C19.9659 166.93 20.2036 166.989 20.4744 166.989C20.6506 166.989 20.8097 166.964 20.9517 166.915C21.0956 166.864 21.2197 166.788 21.3239 166.688C21.428 166.585 21.5085 166.458 21.5653 166.307L22.2131 166.489C22.1449 166.708 22.0303 166.902 21.8693 167.068C21.7083 167.233 21.5095 167.362 21.2727 167.455C21.036 167.545 20.7699 167.591 20.4744 167.591ZM23.3011 167.5V163.136H23.9489V163.795H23.9943C24.0739 163.58 24.2178 163.404 24.4261 163.27C24.6345 163.135 24.8693 163.068 25.1307 163.068C25.1799 163.068 25.2415 163.069 25.3153 163.071C25.3892 163.073 25.4451 163.076 25.483 163.08V163.761C25.4602 163.756 25.4081 163.747 25.3267 163.736C25.2472 163.723 25.1629 163.716 25.0739 163.716C24.8617 163.716 24.6723 163.76 24.5057 163.849C24.3409 163.937 24.2102 164.058 24.1136 164.213C24.0189 164.366 23.9716 164.542 23.9716 164.739V167.5H23.3011ZM26.2663 167.545C26.1262 167.545 26.0059 167.495 25.9055 167.395C25.8052 167.295 25.755 167.174 25.755 167.034C25.755 166.894 25.8052 166.774 25.9055 166.673C26.0059 166.573 26.1262 166.523 26.2663 166.523C26.4065 166.523 26.5268 166.573 26.6271 166.673C26.7275 166.774 26.7777 166.894 26.7777 167.034C26.7777 167.127 26.754 167.212 26.7067 167.29C26.6612 167.367 26.5997 167.43 26.522 167.477C26.4463 167.523 26.361 167.545 26.2663 167.545ZM27.9695 167.5V166.989L29.8899 164.886C30.1153 164.64 30.3009 164.426 30.4467 164.244C30.5926 164.061 30.7005 163.888 30.7706 163.727C30.8426 163.564 30.8786 163.394 30.8786 163.216C30.8786 163.011 30.8293 162.834 30.7308 162.685C30.6342 162.535 30.5017 162.42 30.3331 162.338C30.1645 162.257 29.9751 162.216 29.7649 162.216C29.5414 162.216 29.3464 162.262 29.1797 162.355C29.0149 162.446 28.8871 162.574 28.7962 162.739C28.7071 162.903 28.6626 163.097 28.6626 163.318H27.9922C27.9922 162.977 28.0708 162.678 28.228 162.42C28.3852 162.163 28.5992 161.962 28.87 161.818C29.1428 161.674 29.4486 161.602 29.7876 161.602C30.1286 161.602 30.4306 161.674 30.6939 161.818C30.9571 161.962 31.1636 162.156 31.3132 162.401C31.4628 162.645 31.5376 162.917 31.5376 163.216C31.5376 163.43 31.4988 163.639 31.4212 163.844C31.3454 164.046 31.2128 164.273 31.0234 164.523C30.8359 164.771 30.5755 165.074 30.2422 165.432L28.9354 166.83V166.875H31.6399V167.5H27.9695Z" fill="#757A88" fill-opacity="0.7"/>
<path d="M13.7045 198.5V192.682H15.6705C16.1269 192.682 16.5 192.764 16.7898 192.929C17.0814 193.092 17.2973 193.312 17.4375 193.591C17.5777 193.869 17.6477 194.18 17.6477 194.523C17.6477 194.866 17.5777 195.177 17.4375 195.457C17.2992 195.738 17.0852 195.961 16.7955 196.128C16.5057 196.293 16.1345 196.375 15.6818 196.375H14.2727V195.75H15.6591C15.9716 195.75 16.2225 195.696 16.4119 195.588C16.6013 195.48 16.7386 195.334 16.8239 195.151C16.911 194.965 16.9545 194.756 16.9545 194.523C16.9545 194.29 16.911 194.081 16.8239 193.898C16.7386 193.714 16.6004 193.57 16.4091 193.466C16.2178 193.36 15.964 193.307 15.6477 193.307H14.4091V198.5H13.7045ZM20.4744 198.591C20.054 198.591 19.6913 198.498 19.3864 198.312C19.0833 198.125 18.8494 197.864 18.6847 197.528C18.5218 197.191 18.4403 196.799 18.4403 196.352C18.4403 195.905 18.5218 195.511 18.6847 195.17C18.8494 194.828 19.0786 194.561 19.3722 194.369C19.6676 194.176 20.0123 194.08 20.4062 194.08C20.6335 194.08 20.858 194.117 21.0795 194.193C21.3011 194.269 21.5028 194.392 21.6847 194.562C21.8665 194.731 22.0114 194.955 22.1193 195.233C22.2273 195.511 22.2812 195.854 22.2812 196.261V196.545H18.9176V195.966H21.5994C21.5994 195.72 21.5502 195.5 21.4517 195.307C21.3551 195.114 21.2169 194.961 21.0369 194.849C20.8589 194.738 20.6487 194.682 20.4062 194.682C20.1392 194.682 19.9081 194.748 19.7131 194.881C19.5199 195.011 19.3712 195.182 19.267 195.392C19.1629 195.602 19.1108 195.828 19.1108 196.068V196.455C19.1108 196.784 19.1676 197.063 19.2812 197.293C19.3968 197.52 19.5568 197.693 19.7614 197.812C19.9659 197.93 20.2036 197.989 20.4744 197.989C20.6506 197.989 20.8097 197.964 20.9517 197.915C21.0956 197.864 21.2197 197.788 21.3239 197.688C21.428 197.585 21.5085 197.458 21.5653 197.307L22.2131 197.489C22.1449 197.708 22.0303 197.902 21.8693 198.068C21.7083 198.233 21.5095 198.362 21.2727 198.455C21.036 198.545 20.7699 198.591 20.4744 198.591ZM23.3011 198.5V194.136H23.9489V194.795H23.9943C24.0739 194.58 24.2178 194.404 24.4261 194.27C24.6345 194.135 24.8693 194.068 25.1307 194.068C25.1799 194.068 25.2415 194.069 25.3153 194.071C25.3892 194.073 25.4451 194.076 25.483 194.08V194.761C25.4602 194.756 25.4081 194.747 25.3267 194.736C25.2472 194.723 25.1629 194.716 25.0739 194.716C24.8617 194.716 24.6723 194.76 24.5057 194.849C24.3409 194.937 24.2102 195.058 24.1136 195.213C24.0189 195.366 23.9716 195.542 23.9716 195.739V198.5H23.3011ZM26.2663 198.545C26.1262 198.545 26.0059 198.495 25.9055 198.395C25.8052 198.295 25.755 198.174 25.755 198.034C25.755 197.894 25.8052 197.774 25.9055 197.673C26.0059 197.573 26.1262 197.523 26.2663 197.523C26.4065 197.523 26.5268 197.573 26.6271 197.673C26.7275 197.774 26.7777 197.894 26.7777 198.034C26.7777 198.127 26.754 198.212 26.7067 198.29C26.6612 198.367 26.5997 198.43 26.522 198.477C26.4463 198.523 26.361 198.545 26.2663 198.545ZM29.3196 192.682V198.5H28.6151V193.42H28.581L27.1605 194.364V193.648L28.6151 192.682H29.3196Z" fill="#757A88" fill-opacity="0.7"/>
<rect x="41" y="65" width="116" height="21" rx="4" fill="#54C447"/>
<rect x="41" y="94" width="105" height="21" rx="4" fill="#7A6CF0"/>
<rect x="41" y="123" width="86" height="21" rx="4" fill="#196FF1"/>
<rect x="41" y="152" width="92" height="21" rx="4" fill="#7A6CF0"/>
<rect x="41" y="181" width="80" height="21" rx="4" fill="#7A6CF0"/>
<path d="M166.56 73V72.3636L168.528 70.3239C168.739 70.1023 168.912 69.9081 169.048 69.7415C169.187 69.5729 169.29 69.4129 169.358 69.2614C169.426 69.1098 169.46 68.9489 169.46 68.7784C169.46 68.5852 169.415 68.4186 169.324 68.2784C169.233 68.1364 169.109 68.0275 168.952 67.9517C168.795 67.8741 168.617 67.8352 168.42 67.8352C168.212 67.8352 168.03 67.8778 167.875 67.9631C167.72 68.0483 167.6 68.1686 167.517 68.3239C167.434 68.4792 167.392 68.661 167.392 68.8693H166.554C166.554 68.5152 166.635 68.2055 166.798 67.9403C166.961 67.6752 167.185 67.4697 167.469 67.3239C167.753 67.1761 168.076 67.1023 168.438 67.1023C168.803 67.1023 169.125 67.1752 169.403 67.321C169.684 67.465 169.902 67.6619 170.06 67.9119C170.217 68.16 170.295 68.4403 170.295 68.7528C170.295 68.9688 170.255 69.1799 170.173 69.3864C170.094 69.5928 169.955 69.8229 169.756 70.0767C169.557 70.3286 169.28 70.6345 168.926 70.9943L167.77 72.2045V72.2472H170.389V73H166.56ZM173.491 73.0966C173.043 73.0947 172.659 72.9763 172.341 72.7415C172.023 72.5066 171.779 72.1648 171.611 71.7159C171.442 71.267 171.358 70.7263 171.358 70.0938C171.358 69.4631 171.442 68.9242 171.611 68.4773C171.781 68.0303 172.026 67.6894 172.344 67.4545C172.664 67.2197 173.046 67.1023 173.491 67.1023C173.937 67.1023 174.318 67.2206 174.636 67.4574C174.955 67.6922 175.198 68.0331 175.366 68.4801C175.537 68.9252 175.622 69.4631 175.622 70.0938C175.622 70.7282 175.538 71.2699 175.369 71.7188C175.201 72.1657 174.957 72.5076 174.639 72.7443C174.321 72.9792 173.938 73.0966 173.491 73.0966ZM173.491 72.3381C173.885 72.3381 174.193 72.1458 174.415 71.7614C174.638 71.3769 174.75 70.821 174.75 70.0938C174.75 69.6108 174.699 69.2027 174.597 68.8693C174.496 68.5341 174.351 68.2803 174.162 68.108C173.974 67.9337 173.751 67.8466 173.491 67.8466C173.099 67.8466 172.792 68.0398 172.568 68.4261C172.345 68.8125 172.232 69.3684 172.23 70.0938C172.23 70.5786 172.28 70.9886 172.381 71.3239C172.483 71.6572 172.628 71.91 172.815 72.0824C173.003 72.2528 173.228 72.3381 173.491 72.3381ZM178.656 73.0966C178.207 73.0947 177.823 72.9763 177.505 72.7415C177.187 72.5066 176.943 72.1648 176.775 71.7159C176.606 71.267 176.522 70.7263 176.522 70.0938C176.522 69.4631 176.606 68.9242 176.775 68.4773C176.945 68.0303 177.19 67.6894 177.508 67.4545C177.828 67.2197 178.21 67.1023 178.656 67.1023C179.101 67.1023 179.482 67.2206 179.8 67.4574C180.119 67.6922 180.362 68.0331 180.531 68.4801C180.701 68.9252 180.786 69.4631 180.786 70.0938C180.786 70.7282 180.702 71.2699 180.533 71.7188C180.365 72.1657 180.121 72.5076 179.803 72.7443C179.485 72.9792 179.103 73.0966 178.656 73.0966ZM178.656 72.3381C179.049 72.3381 179.357 72.1458 179.579 71.7614C179.802 71.3769 179.914 70.821 179.914 70.0938C179.914 69.6108 179.863 69.2027 179.761 68.8693C179.66 68.5341 179.515 68.2803 179.326 68.108C179.138 67.9337 178.915 67.8466 178.656 67.8466C178.263 67.8466 177.956 68.0398 177.732 68.4261C177.509 68.8125 177.396 69.3684 177.394 70.0938C177.394 70.5786 177.444 70.9886 177.545 71.3239C177.647 71.6572 177.792 71.91 177.979 72.0824C178.167 72.2528 178.392 72.3381 178.656 72.3381Z" fill="#7C8394"/>
<path d="M168.767 97.1818V103H167.886V98.0625H167.852L166.46 98.9716V98.1307L167.912 97.1818H168.767ZM172.307 103.08C171.9 103.08 171.54 103.009 171.227 102.869C170.917 102.729 170.673 102.536 170.497 102.29C170.321 102.044 170.234 101.763 170.236 101.449C170.234 101.203 170.284 100.976 170.386 100.77C170.491 100.562 170.632 100.388 170.81 100.25C170.988 100.11 171.187 100.021 171.406 99.983V99.9489C171.116 99.8788 170.884 99.7235 170.71 99.483C170.536 99.2424 170.45 98.9659 170.452 98.6534C170.45 98.3561 170.528 98.0909 170.688 97.858C170.848 97.6231 171.069 97.4384 171.349 97.304C171.63 97.1695 171.949 97.1023 172.307 97.1023C172.661 97.1023 172.977 97.1705 173.256 97.3068C173.536 97.4413 173.757 97.6259 173.918 97.8608C174.079 98.0937 174.16 98.358 174.162 98.6534C174.16 98.9659 174.071 99.2424 173.895 99.483C173.719 99.7235 173.49 99.8788 173.207 99.9489V99.983C173.425 100.021 173.621 100.11 173.795 100.25C173.972 100.388 174.112 100.562 174.216 100.77C174.322 100.976 174.376 101.203 174.378 101.449C174.376 101.763 174.287 102.044 174.111 102.29C173.935 102.536 173.69 102.729 173.378 102.869C173.067 103.009 172.71 103.08 172.307 103.08ZM172.307 102.361C172.547 102.361 172.756 102.321 172.932 102.241C173.108 102.16 173.244 102.047 173.341 101.903C173.438 101.758 173.487 101.587 173.489 101.392C173.487 101.189 173.434 101.01 173.33 100.855C173.227 100.7 173.088 100.578 172.912 100.489C172.736 100.4 172.534 100.355 172.307 100.355C172.078 100.355 171.874 100.4 171.696 100.489C171.518 100.578 171.378 100.7 171.276 100.855C171.173 101.01 171.123 101.189 171.125 101.392C171.123 101.587 171.17 101.758 171.264 101.903C171.361 102.047 171.498 102.16 171.676 102.241C171.854 102.321 172.064 102.361 172.307 102.361ZM172.307 99.6534C172.5 99.6534 172.671 99.6146 172.821 99.5369C172.971 99.4593 173.088 99.3513 173.173 99.2131C173.26 99.0748 173.305 98.9129 173.307 98.7273C173.305 98.5455 173.261 98.3864 173.176 98.25C173.093 98.1136 172.976 98.0085 172.827 97.9347C172.677 97.8589 172.504 97.821 172.307 97.821C172.106 97.821 171.93 97.8589 171.778 97.9347C171.629 98.0085 171.512 98.1136 171.429 98.25C171.346 98.3864 171.305 98.5455 171.307 98.7273C171.305 98.9129 171.347 99.0748 171.432 99.2131C171.517 99.3513 171.634 99.4593 171.784 99.5369C171.936 99.6146 172.11 99.6534 172.307 99.6534ZM177.421 103.097C176.972 103.095 176.589 102.976 176.271 102.741C175.952 102.507 175.709 102.165 175.54 101.716C175.372 101.267 175.288 100.726 175.288 100.094C175.288 99.4631 175.372 98.9242 175.54 98.4773C175.711 98.0303 175.955 97.6894 176.273 97.4545C176.594 97.2197 176.976 97.1023 177.421 97.1023C177.866 97.1023 178.248 97.2206 178.566 97.4574C178.884 97.6922 179.128 98.0331 179.296 98.4801C179.467 98.9252 179.552 99.4631 179.552 100.094C179.552 100.728 179.468 101.27 179.299 101.719C179.13 102.166 178.887 102.508 178.569 102.744C178.251 102.979 177.868 103.097 177.421 103.097ZM177.421 102.338C177.815 102.338 178.123 102.146 178.344 101.761C178.568 101.377 178.68 100.821 178.68 100.094C178.68 99.6108 178.629 99.2027 178.526 98.8693C178.426 98.5341 178.281 98.2803 178.092 98.108C177.904 97.9337 177.681 97.8466 177.421 97.8466C177.029 97.8466 176.721 98.0398 176.498 98.4261C176.274 98.8125 176.162 99.3684 176.16 100.094C176.16 100.579 176.21 100.989 176.31 101.324C176.413 101.657 176.558 101.91 176.745 102.082C176.933 102.253 177.158 102.338 177.421 102.338Z" fill="#7C8394"/>
<path d="M168.767 127.182V133H167.886V128.062H167.852L166.46 128.972V128.131L167.912 127.182H168.767ZM170.219 131.864V131.153L172.733 127.182H173.293V128.227H172.938L171.139 131.074V131.119H174.585V131.864H170.219ZM172.977 133V131.648L172.983 131.324V127.182H173.815V133H172.977ZM177.601 133.097C177.152 133.095 176.768 132.976 176.45 132.741C176.132 132.507 175.889 132.165 175.72 131.716C175.552 131.267 175.467 130.726 175.467 130.094C175.467 129.463 175.552 128.924 175.72 128.477C175.891 128.03 176.135 127.689 176.453 127.455C176.773 127.22 177.156 127.102 177.601 127.102C178.046 127.102 178.428 127.221 178.746 127.457C179.064 127.692 179.307 128.033 179.476 128.48C179.646 128.925 179.732 129.463 179.732 130.094C179.732 130.728 179.647 131.27 179.479 131.719C179.31 132.166 179.067 132.508 178.749 132.744C178.43 132.979 178.048 133.097 177.601 133.097ZM177.601 132.338C177.995 132.338 178.303 132.146 178.524 131.761C178.748 131.377 178.859 130.821 178.859 130.094C178.859 129.611 178.808 129.203 178.706 128.869C178.606 128.534 178.461 128.28 178.271 128.108C178.084 127.934 177.86 127.847 177.601 127.847C177.209 127.847 176.901 128.04 176.678 128.426C176.454 128.812 176.341 129.368 176.339 130.094C176.339 130.579 176.39 130.989 176.49 131.324C176.592 131.657 176.737 131.91 176.925 132.082C177.112 132.253 177.338 132.338 177.601 132.338Z" fill="#7C8394"/>
<path d="M168.767 157.182V163H167.886V158.062H167.852L166.46 158.972V158.131L167.912 157.182H168.767ZM172.261 163.08C171.905 163.08 171.585 163.011 171.301 162.875C171.019 162.737 170.794 162.547 170.625 162.307C170.456 162.066 170.366 161.792 170.355 161.483H171.207C171.228 161.733 171.339 161.938 171.54 162.099C171.741 162.26 171.981 162.341 172.261 162.341C172.485 162.341 172.683 162.29 172.855 162.188C173.029 162.083 173.166 161.94 173.264 161.759C173.365 161.577 173.415 161.369 173.415 161.136C173.415 160.9 173.364 160.688 173.261 160.503C173.159 160.317 173.018 160.171 172.838 160.065C172.66 159.959 172.455 159.905 172.224 159.903C172.048 159.903 171.871 159.934 171.693 159.994C171.515 160.055 171.371 160.134 171.261 160.233L170.457 160.114L170.784 157.182H173.983V157.935H171.514L171.33 159.562H171.364C171.477 159.453 171.628 159.361 171.815 159.287C172.005 159.213 172.207 159.176 172.423 159.176C172.777 159.176 173.093 159.26 173.369 159.429C173.648 159.598 173.866 159.828 174.026 160.119C174.187 160.409 174.266 160.742 174.264 161.119C174.266 161.496 174.181 161.832 174.009 162.128C173.838 162.423 173.601 162.656 173.298 162.827C172.997 162.995 172.652 163.08 172.261 163.08ZM177.327 163.097C176.879 163.095 176.495 162.976 176.177 162.741C175.859 162.507 175.615 162.165 175.447 161.716C175.278 161.267 175.194 160.726 175.194 160.094C175.194 159.463 175.278 158.924 175.447 158.477C175.617 158.03 175.862 157.689 176.18 157.455C176.5 157.22 176.882 157.102 177.327 157.102C177.772 157.102 178.154 157.221 178.472 157.457C178.79 157.692 179.034 158.033 179.202 158.48C179.373 158.925 179.458 159.463 179.458 160.094C179.458 160.728 179.374 161.27 179.205 161.719C179.037 162.166 178.793 162.508 178.475 162.744C178.157 162.979 177.774 163.097 177.327 163.097ZM177.327 162.338C177.721 162.338 178.029 162.146 178.251 161.761C178.474 161.377 178.586 160.821 178.586 160.094C178.586 159.611 178.535 159.203 178.433 158.869C178.332 158.534 178.187 158.28 177.998 158.108C177.81 157.934 177.587 157.847 177.327 157.847C176.935 157.847 176.628 158.04 176.404 158.426C176.181 158.812 176.068 159.368 176.066 160.094C176.066 160.579 176.116 160.989 176.217 161.324C176.319 161.657 176.464 161.91 176.651 162.082C176.839 162.253 177.064 162.338 177.327 162.338Z" fill="#7C8394"/>
<path d="M168.767 187.182V193H167.886V188.062H167.852L166.46 188.972V188.131L167.912 187.182H168.767ZM170.341 193V192.364L172.31 190.324C172.52 190.102 172.693 189.908 172.83 189.741C172.968 189.573 173.071 189.413 173.139 189.261C173.207 189.11 173.241 188.949 173.241 188.778C173.241 188.585 173.196 188.419 173.105 188.278C173.014 188.136 172.89 188.027 172.733 187.952C172.576 187.874 172.399 187.835 172.202 187.835C171.993 187.835 171.812 187.878 171.656 187.963C171.501 188.048 171.382 188.169 171.298 188.324C171.215 188.479 171.173 188.661 171.173 188.869H170.335C170.335 188.515 170.417 188.205 170.58 187.94C170.742 187.675 170.966 187.47 171.25 187.324C171.534 187.176 171.857 187.102 172.219 187.102C172.584 187.102 172.906 187.175 173.185 187.321C173.465 187.465 173.684 187.662 173.841 187.912C173.998 188.16 174.077 188.44 174.077 188.753C174.077 188.969 174.036 189.18 173.955 189.386C173.875 189.593 173.736 189.823 173.537 190.077C173.338 190.329 173.062 190.634 172.707 190.994L171.551 192.205V192.247H174.17V193H170.341ZM177.273 193.097C176.824 193.095 176.44 192.976 176.122 192.741C175.804 192.507 175.561 192.165 175.392 191.716C175.223 191.267 175.139 190.726 175.139 190.094C175.139 189.463 175.223 188.924 175.392 188.477C175.563 188.03 175.807 187.689 176.125 187.455C176.445 187.22 176.828 187.102 177.273 187.102C177.718 187.102 178.099 187.221 178.418 187.457C178.736 187.692 178.979 188.033 179.148 188.48C179.318 188.925 179.403 189.463 179.403 190.094C179.403 190.728 179.319 191.27 179.151 191.719C178.982 192.166 178.739 192.508 178.42 192.744C178.102 192.979 177.72 193.097 177.273 193.097ZM177.273 192.338C177.667 192.338 177.974 192.146 178.196 191.761C178.42 191.377 178.531 190.821 178.531 190.094C178.531 189.611 178.48 189.203 178.378 188.869C178.277 188.534 178.133 188.28 177.943 188.108C177.756 187.934 177.532 187.847 177.273 187.847C176.881 187.847 176.573 188.04 176.349 188.426C176.126 188.812 176.013 189.368 176.011 190.094C176.011 190.579 176.062 190.989 176.162 191.324C176.264 191.657 176.409 191.91 176.597 192.082C176.784 192.253 177.009 192.338 177.273 192.338Z" fill="#7C8394"/>
</svg>
