<svg width="54" height="54" viewBox="0 0 54 54" fill="none" xmlns="http://www.w3.org/2000/svg">
<g filter="url(#filter0_b_546_235)">
<rect width="54" height="54" rx="27" fill="#54C447"/>
<path d="M23.4714 10.543L23.2746 11.5715L22.5266 15.3298C21.326 15.8045 20.2435 16.4721 19.2593 17.2682L15.5984 16.0023L14.6143 15.6858L14.1025 16.5957L11.5832 20.9474L11.0714 21.8573L11.8193 22.5298L14.6536 25.0221C14.5503 25.6699 14.4174 26.3177 14.4174 27.0001C14.4174 27.6825 14.5503 28.3303 14.6536 28.9781L11.8193 31.4704L11.0714 32.143L11.5832 33.0529L14.1025 37.4045L14.6143 38.3144L15.5984 37.9979L19.2593 36.732C20.2435 37.5281 21.326 38.1957 22.5266 38.6704L23.2746 42.4287L23.4714 43.4573H30.5571L30.754 42.4287L31.5019 38.6704C32.7025 38.1957 33.7851 37.5281 34.7692 36.732L38.4301 37.9979L39.4143 38.3144L39.926 37.4045L42.4454 33.0529L42.9571 32.143L42.2092 31.4704L39.3749 28.9781C39.4782 28.3303 39.6111 27.6825 39.6111 27.0001C39.6111 26.3177 39.4782 25.6699 39.3749 25.0221L42.2092 22.5298L42.9571 21.8573L42.4454 20.9474L39.926 16.5957L39.4143 15.6858L38.4301 16.0023L34.7692 17.2682C33.7851 16.4721 32.7025 15.8045 31.5019 15.3298L30.754 11.5715L30.5571 10.543H23.4714ZM25.5184 13.0748H28.5101L29.14 16.3584L29.2974 17.11L30.006 17.3474C31.4379 17.7974 32.737 18.5589 33.8244 19.5627L34.3755 20.077L35.0841 19.8397L38.2727 18.732L39.7686 21.3034L37.2492 23.5584L36.6587 24.0331L36.8555 24.7847C37.0179 25.5067 37.0917 26.2435 37.0917 27.0001C37.0917 27.7567 37.0179 28.4935 36.8555 29.2155L36.6981 29.9671L37.2492 30.4419L39.7686 32.6968L38.2727 35.2682L35.0841 34.1606L34.3755 33.9232L33.8244 34.4375C32.737 35.4413 31.4379 36.2029 30.006 36.6529L29.2974 36.8902L29.14 37.6419L28.5101 40.9254H25.5184L24.8886 37.6419L24.7311 36.8902L24.0225 36.6529C22.5906 36.2029 21.2916 35.4413 20.2041 34.4375L19.653 33.9232L18.9444 34.1606L15.7559 35.2682L14.26 32.6968L16.7793 30.4419L17.3698 29.9671L17.173 29.2155C17.0106 28.4935 16.9368 27.7567 16.9368 27.0001C16.9368 26.2435 17.0106 25.5067 17.173 24.7847L17.3698 24.0331L16.7793 23.5584L14.26 21.3034L15.7559 18.732L18.9444 19.8397L19.653 20.077L20.2041 19.5627C21.2916 18.5589 22.5906 17.7974 24.0225 17.3474L24.7311 17.11L24.8886 16.3584L25.5184 13.0748ZM27.0143 20.6704C23.5501 20.6704 20.7159 23.5188 20.7159 27.0001C20.7159 30.4814 23.5501 33.3298 27.0143 33.3298C30.4784 33.3298 33.3127 30.4814 33.3127 27.0001C33.3127 23.5188 30.4784 20.6704 27.0143 20.6704ZM27.0143 23.2023C29.1154 23.2023 30.7933 24.8886 30.7933 27.0001C30.7933 29.1117 29.1154 30.7979 27.0143 30.7979C24.9132 30.7979 23.2352 29.1117 23.2352 27.0001C23.2352 24.8886 24.9132 23.2023 27.0143 23.2023Z" fill="white"/>
</g>
<defs>
<filter id="filter0_b_546_235" x="-20" y="-20" width="94" height="94" filterUnits="userSpaceOnUse" color-interpolation-filters="sRGB">
<feFlood flood-opacity="0" result="BackgroundImageFix"/>
<feGaussianBlur in="BackgroundImageFix" stdDeviation="10"/>
<feComposite in2="SourceAlpha" operator="in" result="effect1_backgroundBlur_546_235"/>
<feBlend mode="normal" in="SourceGraphic" in2="effect1_backgroundBlur_546_235" result="shape"/>
</filter>
</defs>
</svg>
