<svg width="54" height="54" viewBox="0 0 54 54" fill="none" xmlns="http://www.w3.org/2000/svg">
<g filter="url(#filter0_b_546_164)">
<rect width="54" height="54" rx="27" fill="#196FF1"/>
<path d="M49.2362 24.0977L44.6804 14.8967C44.5337 14.6002 44.3306 14.3358 44.0826 14.1186C43.8347 13.9013 43.5468 13.7355 43.2353 13.6306C42.9239 13.5257 42.595 13.4837 42.2675 13.507C41.94 13.5303 41.6202 13.6185 41.3265 13.7666L36.7617 16.07L27.2732 13.5359C27.094 13.489 26.906 13.489 26.7268 13.5359L17.2383 16.07L12.6753 13.7666C12.3815 13.6182 12.0616 13.5298 11.7338 13.5063C11.4061 13.4829 11.077 13.5248 10.7654 13.6297C10.4537 13.7347 10.1656 13.9006 9.91757 14.118C9.6695 14.3354 9.4663 14.6 9.31961 14.8967L4.76378 24.0977C4.46739 24.6962 4.41866 25.389 4.62831 26.0238C4.83796 26.6585 5.28882 27.1832 5.88176 27.4826L10.7305 29.9302L20.6618 37.0891C20.7695 37.1674 20.8906 37.2249 21.019 37.2586L32.4488 40.1423C32.5358 40.1644 32.6252 40.1753 32.7149 40.1748C32.999 40.1745 33.2713 40.0604 33.4721 39.8576L43.3499 29.8887L48.1182 27.4826C48.7112 27.1832 49.162 26.6585 49.3717 26.0238C49.5813 25.389 49.5326 24.6962 49.2362 24.0977ZM39.771 30.4348L33.3774 25.2656C33.1713 25.0991 32.9114 25.0153 32.6477 25.0302C32.384 25.0452 32.1351 25.1579 31.9487 25.3468C28.618 28.7334 24.8944 28.3062 22.521 26.7742C22.4743 26.7452 22.4349 26.7057 22.4058 26.6588C22.3767 26.6119 22.3586 26.5589 22.3531 26.5039C22.3468 26.4534 22.3517 26.4021 22.3674 26.3538C22.3832 26.3055 22.4094 26.2613 22.4442 26.2245L30.2914 18.5464H36.3385L41.4122 28.7875L39.771 30.4348ZM6.66041 25.3395C6.63087 25.2492 6.63794 25.1507 6.68005 25.0656L11.2377 15.8627C11.2676 15.8027 11.3136 15.7524 11.3704 15.7173C11.4272 15.6823 11.4926 15.664 11.5591 15.6645C11.6143 15.6645 11.6687 15.6775 11.7181 15.7023L15.6846 17.7029L10.8055 27.5582L6.839 25.5576C6.79619 25.5353 6.75831 25.5045 6.72762 25.467C6.69692 25.4295 6.67406 25.3862 6.66041 25.3395ZM32.3863 37.8966L21.7423 35.2111L12.6521 28.6577L17.8633 18.1409L27 15.7005L29.6431 16.407C29.441 16.4465 29.2547 16.5449 29.1074 16.69L20.9458 24.6835C20.6808 24.9508 20.4787 25.2747 20.3545 25.6314C20.2302 25.9881 20.187 26.3684 20.228 26.7443C20.2689 27.1201 20.3931 27.4818 20.5912 27.8027C20.7893 28.1236 21.0564 28.3955 21.3726 28.5982C24.9837 30.9269 29.3645 30.4889 32.7667 27.5366L38.2512 31.974L32.3863 37.8966ZM47.3396 25.3395C47.3249 25.3845 47.3016 25.4261 47.2709 25.462C47.2403 25.4979 47.2029 25.5273 47.161 25.5486L43.1945 27.5582L38.3154 17.7029L42.2819 15.7023C42.3239 15.681 42.3697 15.6683 42.4166 15.6649C42.4635 15.6615 42.5106 15.6675 42.5552 15.6825C42.5997 15.6973 42.641 15.7209 42.6765 15.7518C42.7121 15.7827 42.7412 15.8204 42.7623 15.8627L47.3199 25.0656C47.3621 25.1507 47.3691 25.2492 47.3396 25.3395ZM27.3375 43.6804C27.2688 43.9585 27.0934 44.1977 26.8499 44.3454C26.6065 44.4931 26.3148 44.5372 26.0392 44.468L18.5866 42.5881C18.4581 42.5549 18.3369 42.4974 18.2295 42.4187L13.52 39.0285C13.2887 38.8612 13.1326 38.608 13.0862 38.3245C13.0398 38.0411 13.1069 37.7507 13.2727 37.5172C13.4385 37.2837 13.6894 37.1262 13.9702 37.0794C14.251 37.0326 14.5388 37.1003 14.7702 37.2676L19.3046 40.5353L26.5571 42.3647C26.694 42.3992 26.8228 42.4606 26.936 42.5455C27.0493 42.6304 27.1449 42.737 27.2172 42.8593C27.2896 42.9815 27.3373 43.117 27.3576 43.2579C27.378 43.3988 27.3705 43.5424 27.3358 43.6804H27.3375Z" fill="#F6F6F6"/>
</g>
<defs>
<filter id="filter0_b_546_164" x="-20" y="-20" width="94" height="94" filterUnits="userSpaceOnUse" color-interpolation-filters="sRGB">
<feFlood flood-opacity="0" result="BackgroundImageFix"/>
<feGaussianBlur in="BackgroundImageFix" stdDeviation="10"/>
<feComposite in2="SourceAlpha" operator="in" result="effect1_backgroundBlur_546_164"/>
<feBlend mode="normal" in="SourceGraphic" in2="effect1_backgroundBlur_546_164" result="shape"/>
</filter>
</defs>
</svg>
