<svg width="54" height="54" viewBox="0 0 54 54" fill="none" xmlns="http://www.w3.org/2000/svg">
<g filter="url(#filter0_b_546_135)">
<rect width="54" height="54" rx="27" fill="#F45A69"/>
<mask id="path-2-outside-1_546_135" maskUnits="userSpaceOnUse" x="11" y="13" width="34" height="28" fill="black">
<rect fill="white" x="11" y="13" width="34" height="28"/>
<path d="M30.672 24.7628C30.5452 24.762 30.4233 24.8091 30.3328 24.8939C30.2422 24.9788 30.1905 25.0944 30.1888 25.2155V28.5987C30.1905 28.7201 30.2425 28.8359 30.3333 28.9208C30.4242 29.0057 30.5466 29.0526 30.6736 29.0514H41.3344C41.4614 29.0526 41.5838 29.0057 41.6747 28.9208C41.7655 28.8359 41.8175 28.7201 41.8192 28.5987V25.2155C41.8175 25.0941 41.7655 24.9782 41.6747 24.8934C41.5838 24.8085 41.4614 24.7616 41.3344 24.7628H30.672ZM37.2096 14.0015C38.6848 14.0688 39.7456 14.3472 40.4176 14.9376C41.0816 15.5218 41.4224 16.3676 41.4896 17.4872V20.6944C41.4862 20.9676 41.3696 21.2283 41.1653 21.4193C40.961 21.6102 40.6857 21.7159 40.4 21.7131C40.2584 21.7147 40.1178 21.6896 39.9863 21.6393C39.8548 21.589 39.735 21.5144 39.6337 21.4198C39.5324 21.3252 39.4515 21.2125 39.3958 21.088C39.34 20.9635 39.3105 20.8298 39.3088 20.6944L39.3104 17.5453C39.2752 16.9641 39.1296 16.6031 38.9216 16.4196C38.72 16.2422 38.1056 16.0831 37.1568 16.0372H16.2352C15.376 16.0678 14.8176 16.2238 14.5472 16.4456C14.3392 16.6154 14.1824 17.0834 14.1808 17.8925L14.176 35.8942C14.256 36.6803 14.4368 37.2049 14.6688 37.4665C14.8448 37.6653 15.3904 37.8641 16.1936 37.962H37.1792C38.1616 37.9804 38.7408 37.8397 38.936 37.6515C39.152 37.442 39.3088 36.8914 39.3088 35.9905V32.8628C39.3088 32.3015 39.7968 31.8442 40.4 31.8442C41.0016 31.8442 41.4896 32.3015 41.4896 32.8628V35.9905C41.4896 37.3671 41.1952 38.3964 40.5056 39.0648C39.7952 39.753 38.6656 40.0283 37.1568 39.9977L16.064 39.9931C14.6288 39.8341 13.6 39.4578 12.9872 38.765C12.432 38.1379 12.1232 37.2432 12 35.9921V17.8909C12.0032 16.5511 12.3392 15.5432 13.1104 14.9131C13.8176 14.3319 14.8384 14.0489 16.1936 14L37.2096 14.0015ZM41.3344 22.7256C42.8064 22.7256 44 23.8405 44 25.2155V28.5987C44 29.9737 42.8064 31.0886 41.3344 31.0886H30.6736C29.2016 31.0886 28.008 29.9721 28.008 28.5987V25.2155C28.008 23.8405 29.2016 22.7256 30.6736 22.7256H41.3344ZM33.3392 25.6927C32.6032 25.6927 32.0064 26.2433 32.0064 26.9209C32.0064 27.5984 32.6032 28.149 33.3392 28.149C34.0752 28.149 34.672 27.5984 34.672 26.9209C34.672 26.2433 34.0752 25.6912 33.3392 25.6912"/>
</mask>
<path d="M30.672 24.7628C30.5452 24.762 30.4233 24.8091 30.3328 24.8939C30.2422 24.9788 30.1905 25.0944 30.1888 25.2155V28.5987C30.1905 28.7201 30.2425 28.8359 30.3333 28.9208C30.4242 29.0057 30.5466 29.0526 30.6736 29.0514H41.3344C41.4614 29.0526 41.5838 29.0057 41.6747 28.9208C41.7655 28.8359 41.8175 28.7201 41.8192 28.5987V25.2155C41.8175 25.0941 41.7655 24.9782 41.6747 24.8934C41.5838 24.8085 41.4614 24.7616 41.3344 24.7628H30.672ZM37.2096 14.0015C38.6848 14.0688 39.7456 14.3472 40.4176 14.9376C41.0816 15.5218 41.4224 16.3676 41.4896 17.4872V20.6944C41.4862 20.9676 41.3696 21.2283 41.1653 21.4193C40.961 21.6102 40.6857 21.7159 40.4 21.7131C40.2584 21.7147 40.1178 21.6896 39.9863 21.6393C39.8548 21.589 39.735 21.5144 39.6337 21.4198C39.5324 21.3252 39.4515 21.2125 39.3958 21.088C39.34 20.9635 39.3105 20.8298 39.3088 20.6944L39.3104 17.5453C39.2752 16.9641 39.1296 16.6031 38.9216 16.4196C38.72 16.2422 38.1056 16.0831 37.1568 16.0372H16.2352C15.376 16.0678 14.8176 16.2238 14.5472 16.4456C14.3392 16.6154 14.1824 17.0834 14.1808 17.8925L14.176 35.8942C14.256 36.6803 14.4368 37.2049 14.6688 37.4665C14.8448 37.6653 15.3904 37.8641 16.1936 37.962H37.1792C38.1616 37.9804 38.7408 37.8397 38.936 37.6515C39.152 37.442 39.3088 36.8914 39.3088 35.9905V32.8628C39.3088 32.3015 39.7968 31.8442 40.4 31.8442C41.0016 31.8442 41.4896 32.3015 41.4896 32.8628V35.9905C41.4896 37.3671 41.1952 38.3964 40.5056 39.0648C39.7952 39.753 38.6656 40.0283 37.1568 39.9977L16.064 39.9931C14.6288 39.8341 13.6 39.4578 12.9872 38.765C12.432 38.1379 12.1232 37.2432 12 35.9921V17.8909C12.0032 16.5511 12.3392 15.5432 13.1104 14.9131C13.8176 14.3319 14.8384 14.0489 16.1936 14L37.2096 14.0015ZM41.3344 22.7256C42.8064 22.7256 44 23.8405 44 25.2155V28.5987C44 29.9737 42.8064 31.0886 41.3344 31.0886H30.6736C29.2016 31.0886 28.008 29.9721 28.008 28.5987V25.2155C28.008 23.8405 29.2016 22.7256 30.6736 22.7256H41.3344ZM33.3392 25.6927C32.6032 25.6927 32.0064 26.2433 32.0064 26.9209C32.0064 27.5984 32.6032 28.149 33.3392 28.149C34.0752 28.149 34.672 27.5984 34.672 26.9209C34.672 26.2433 34.0752 25.6912 33.3392 25.6912" fill="#FAFAFA"/>
<path d="M30.672 24.7628L30.6701 25.0628H30.672V24.7628ZM30.1888 25.2155L29.8888 25.2113V25.2155H30.1888ZM30.1888 28.5987H29.8888L29.8888 28.6028L30.1888 28.5987ZM30.6736 29.0514V28.7514L30.6707 28.7514L30.6736 29.0514ZM41.3344 29.0514L41.3373 28.7514H41.3344V29.0514ZM41.8192 28.5987L42.1192 28.6028V28.5987H41.8192ZM41.8192 25.2155H42.1192L42.1192 25.2113L41.8192 25.2155ZM41.3344 24.7628V25.0628L41.3373 25.0628L41.3344 24.7628ZM37.2096 14.0015L37.2233 13.7015L37.2096 13.7015L37.2096 14.0015ZM40.4176 14.9376L40.6158 14.7123L40.6156 14.7122L40.4176 14.9376ZM41.4896 17.4872H41.7896V17.4782L41.7891 17.4692L41.4896 17.4872ZM41.4896 20.6944L41.7896 20.6981V20.6944H41.4896ZM40.4 21.7131L40.403 21.413L40.3966 21.4131L40.4 21.7131ZM39.3088 20.6944L39.0088 20.6943L39.0088 20.6981L39.3088 20.6944ZM39.3104 17.5453L39.6104 17.5454L39.6104 17.5363L39.6099 17.5271L39.3104 17.5453ZM38.9216 16.4196L39.1201 16.1947L39.1198 16.1944L38.9216 16.4196ZM37.1568 16.0372L37.1713 15.7376L37.164 15.7372H37.1568V16.0372ZM16.2352 16.0372V15.737L16.2245 15.7374L16.2352 16.0372ZM14.5472 16.4456L14.7369 16.678L14.7374 16.6776L14.5472 16.4456ZM14.1808 17.8925L13.8808 17.8919L13.8808 17.8924L14.1808 17.8925ZM14.176 35.8942L13.876 35.8941L13.876 35.9094L13.8775 35.9246L14.176 35.8942ZM14.6688 37.4665L14.8934 37.2676L14.8932 37.2674L14.6688 37.4665ZM16.1936 37.962L16.1573 38.2598L16.1754 38.262H16.1936V37.962ZM37.1792 37.962L37.1848 37.662H37.1792V37.962ZM38.936 37.6515L39.1442 37.8675L39.1449 37.8669L38.936 37.6515ZM40.5056 39.0648L40.7143 39.2802L40.7144 39.2802L40.5056 39.0648ZM37.1568 39.9977L37.1629 39.6977L37.1569 39.6977L37.1568 39.9977ZM16.064 39.9931L16.031 40.2913L16.0474 40.2931L16.0639 40.2931L16.064 39.9931ZM12.9872 38.765L13.2119 38.5662L13.2118 38.5661L12.9872 38.765ZM12 35.9921H11.7V36.0068L11.7014 36.0215L12 35.9921ZM12 17.8909L11.7 17.8902V17.8909H12ZM13.1104 14.9131L13.3002 15.1454L13.3009 15.1449L13.1104 14.9131ZM16.1936 14L16.1936 13.6998L16.1828 13.7002L16.1936 14ZM30.6739 24.4628C30.4722 24.4615 30.2756 24.5364 30.1277 24.675L30.5379 25.1129C30.571 25.0819 30.6183 25.0625 30.6701 25.0628L30.6739 24.4628ZM30.1277 24.675C29.9792 24.8141 29.8917 25.0065 29.8888 25.2113L30.4888 25.2197C30.4893 25.1822 30.5052 25.1434 30.5379 25.1129L30.1277 24.675ZM29.8888 25.2155V28.5987H30.4888V25.2155H29.8888ZM29.8888 28.6028C29.8917 28.8081 29.9796 29.0009 30.1286 29.1401L30.5381 28.7015C30.5053 28.6709 30.4893 28.6321 30.4888 28.5945L29.8888 28.6028ZM30.1286 29.1401C30.2771 29.2787 30.4743 29.3533 30.6765 29.3514L30.6707 28.7514C30.6188 28.7519 30.5713 28.7326 30.5381 28.7015L30.1286 29.1401ZM30.6736 29.3514H41.3344V28.7514H30.6736V29.3514ZM41.3315 29.3514C41.5337 29.3533 41.7309 29.2787 41.8794 29.1401L41.4699 28.7015C41.4367 28.7326 41.3892 28.7519 41.3373 28.7514L41.3315 29.3514ZM41.8794 29.1401C42.0284 29.0009 42.1163 28.8081 42.1192 28.6028L41.5192 28.5945C41.5187 28.6321 41.5027 28.6709 41.4699 28.7015L41.8794 29.1401ZM42.1192 28.5987V25.2155H41.5192V28.5987H42.1192ZM42.1192 25.2113C42.1163 25.0061 42.0284 24.8132 41.8794 24.6741L41.4699 25.1127C41.5027 25.1433 41.5187 25.1821 41.5192 25.2197L42.1192 25.2113ZM41.8794 24.6741C41.7309 24.5354 41.5337 24.4609 41.3315 24.4628L41.3373 25.0628C41.3892 25.0623 41.4367 25.0816 41.4699 25.1127L41.8794 24.6741ZM41.3344 24.4628H30.672V25.0628H41.3344V24.4628ZM37.1959 14.3012C38.6546 14.3678 39.6274 14.6427 40.2196 15.1629L40.6156 14.7122C39.8638 14.0517 38.715 13.7699 37.2233 13.7018L37.1959 14.3012ZM40.2194 15.1628C40.8052 15.6782 41.1261 16.4375 41.1901 17.5051L41.7891 17.4692C41.7187 16.2977 41.358 15.3654 40.6158 14.7123L40.2194 15.1628ZM41.1896 17.4872V20.6944H41.7896V17.4872H41.1896ZM41.1896 20.6907C41.1873 20.8799 41.1066 21.0635 40.9604 21.2001L41.3702 21.6384C41.6326 21.3931 41.7852 21.0552 41.7896 20.6981L41.1896 20.6907ZM40.9604 21.2001C40.8138 21.3372 40.6135 21.4152 40.403 21.4131L40.397 22.013C40.758 22.0166 41.1082 21.8833 41.3702 21.6384L40.9604 21.2001ZM40.3966 21.4131C40.2925 21.4143 40.1895 21.3958 40.0936 21.3591L39.8791 21.9195C40.0461 21.9834 40.2242 22.0151 40.4034 22.013L40.3966 21.4131ZM40.0936 21.3591C39.9976 21.3224 39.911 21.2683 39.8384 21.2005L39.429 21.6391C39.559 21.7605 39.7121 21.8556 39.8791 21.9195L40.0936 21.3591ZM39.8384 21.2005C39.7658 21.1327 39.7087 21.0527 39.6696 20.9654L39.122 21.2106C39.1943 21.3722 39.2989 21.5177 39.429 21.6391L39.8384 21.2005ZM39.6696 20.9654C39.6305 20.8781 39.6099 20.7848 39.6088 20.6907L39.0088 20.6981C39.011 20.8748 39.0496 21.049 39.122 21.2106L39.6696 20.9654ZM39.6088 20.6946L39.6104 17.5454L39.0104 17.5451L39.0088 20.6943L39.6088 20.6946ZM39.6099 17.5271C39.5731 16.9196 39.4186 16.4581 39.1201 16.1947L38.7231 16.6446C38.8406 16.7482 38.9773 17.0086 39.011 17.5634L39.6099 17.5271ZM39.1198 16.1944C38.9585 16.0525 38.6896 15.9557 38.386 15.8866C38.0669 15.814 37.6579 15.7611 37.1713 15.7376L37.1423 16.3369C37.6045 16.3592 37.9771 16.4089 38.2528 16.4716C38.544 16.5379 38.6831 16.6093 38.7234 16.6448L39.1198 16.1944ZM37.1568 15.7372H16.2352V16.3372H37.1568V15.7372ZM16.2245 15.7374C15.7805 15.7532 15.4041 15.8017 15.0973 15.8788C14.7942 15.9549 14.5397 16.0637 14.357 16.2136L14.7374 16.6776C14.8251 16.6057 14.985 16.5256 15.2435 16.4607C15.4983 16.3967 15.8307 16.3518 16.2459 16.337L16.2245 15.7374ZM14.3575 16.2132C14.1834 16.3553 14.0697 16.585 13.9972 16.8502C13.9227 17.1228 13.8816 17.4702 13.8808 17.8919L14.4808 17.8931C14.4816 17.5057 14.5197 17.2145 14.576 17.0084C14.6343 16.7949 14.703 16.7057 14.7369 16.678L14.3575 16.2132ZM13.8808 17.8924L13.876 35.8941L14.476 35.8943L14.4808 17.8925L13.8808 17.8924ZM13.8775 35.9246C13.9589 36.7236 14.1466 37.3298 14.4444 37.6655L14.8932 37.2674C14.727 37.08 14.5531 36.637 14.4745 35.8638L13.8775 35.9246ZM14.4442 37.6653C14.5869 37.8265 14.8314 37.9462 15.1006 38.0365C15.3832 38.1313 15.741 38.2091 16.1573 38.2598L16.2299 37.6642C15.843 37.6171 15.5264 37.5465 15.2914 37.4677C15.043 37.3844 14.9267 37.3052 14.8934 37.2676L14.4442 37.6653ZM16.1936 38.262H37.1792V37.662H16.1936V38.262ZM37.1736 38.262C37.6784 38.2714 38.091 38.2403 38.4097 38.1788C38.7142 38.1199 38.9811 38.0247 39.1442 37.8675L38.7278 37.4355C38.6957 37.4665 38.5754 37.5357 38.2959 37.5896C38.0306 37.6409 37.6624 37.671 37.1848 37.6621L37.1736 38.262ZM39.1449 37.8669C39.3134 37.7034 39.424 37.4475 39.4952 37.1501C39.5684 36.8442 39.6088 36.4566 39.6088 35.9905H39.0088C39.0088 36.4254 38.9708 36.7635 38.9116 37.0104C38.8504 37.266 38.7746 37.3901 38.7271 37.4362L39.1449 37.8669ZM39.6088 35.9905V32.8628H39.0088V35.9905H39.6088ZM39.6088 32.8628C39.6088 32.486 39.9431 32.1442 40.4 32.1442V31.5442C39.6505 31.5442 39.0088 32.117 39.0088 32.8628H39.6088ZM40.4 32.1442C40.8551 32.1442 41.1896 32.4857 41.1896 32.8628H41.7896C41.7896 32.1173 41.1481 31.5442 40.4 31.5442V32.1442ZM41.1896 32.8628V35.9905H41.7896V32.8628H41.1896ZM41.1896 35.9905C41.1896 37.3336 40.901 38.2637 40.2968 38.8493L40.7144 39.2802C41.4894 38.529 41.7896 37.4006 41.7896 35.9905H41.1896ZM40.2969 38.8493C39.6738 39.4529 38.6461 39.7279 37.1629 39.6978L37.1507 40.2977C38.6851 40.3288 39.9166 40.0531 40.7143 39.2802L40.2969 38.8493ZM37.1569 39.6977L16.0641 39.6931L16.0639 40.2931L37.1567 40.2977L37.1569 39.6977ZM16.097 39.695C14.6846 39.5384 13.7495 39.174 13.2119 38.5662L12.7625 38.9637C13.4505 39.7416 14.573 40.1297 16.031 40.2913L16.097 39.695ZM13.2118 38.5661C12.7163 38.0064 12.4188 37.1842 12.2986 35.9627L11.7014 36.0215C11.8276 37.3021 12.1477 38.2694 12.7626 38.9638L13.2118 38.5661ZM12.3 35.9921V17.8909H11.7V35.9921H12.3ZM12.3 17.8917C12.3031 16.595 12.628 15.6946 13.3002 15.1454L12.9206 14.6808C12.0504 15.3918 11.7033 16.5073 11.7 17.8902L12.3 17.8917ZM13.3009 15.1449C13.9347 14.624 14.8781 14.3477 16.2044 14.2998L16.1828 13.7002C14.7987 13.7502 13.7005 14.0398 12.9199 14.6813L13.3009 15.1449ZM16.1936 14.3L37.2096 14.3015L37.2096 13.7015L16.1936 13.7L16.1936 14.3ZM41.3344 23.0256C42.6603 23.0256 43.7 24.0251 43.7 25.2155H44.3C44.3 23.6559 42.9525 22.4256 41.3344 22.4256V23.0256ZM43.7 25.2155V28.5987H44.3V25.2155H43.7ZM43.7 28.5987C43.7 29.789 42.6603 30.7886 41.3344 30.7886V31.3886C42.9525 31.3886 44.3 30.1583 44.3 28.5987H43.7ZM41.3344 30.7886H30.6736V31.3886H41.3344V30.7886ZM30.6736 30.7886C29.3478 30.7886 28.308 29.7876 28.308 28.5987H27.708C27.708 30.1566 29.0554 31.3886 30.6736 31.3886V30.7886ZM28.308 28.5987V25.2155H27.708V28.5987H28.308ZM28.308 25.2155C28.308 24.0251 29.3477 23.0256 30.6736 23.0256V22.4256C29.0555 22.4256 27.708 23.6559 27.708 25.2155H28.308ZM30.6736 23.0256H41.3344V22.4256H30.6736V23.0256ZM33.3392 25.3927C32.461 25.3927 31.7064 26.0551 31.7064 26.9209H32.3064C32.3064 26.4315 32.7454 25.9927 33.3392 25.9927V25.3927ZM31.7064 26.9209C31.7064 27.7866 32.461 28.449 33.3392 28.449V27.849C32.7454 27.849 32.3064 27.4102 32.3064 26.9209H31.7064ZM33.3392 28.449C34.2174 28.449 34.972 27.7866 34.972 26.9209H34.372C34.372 27.4102 33.933 27.849 33.3392 27.849V28.449ZM34.972 26.9209C34.972 26.0556 34.2179 25.3912 33.3392 25.3912V25.9912C33.9325 25.9912 34.372 26.4311 34.372 26.9209H34.972Z" fill="white" mask="url(#path-2-outside-1_546_135)"/>
</g>
<defs>
<filter id="filter0_b_546_135" x="-20" y="-20" width="94" height="94" filterUnits="userSpaceOnUse" color-interpolation-filters="sRGB">
<feFlood flood-opacity="0" result="BackgroundImageFix"/>
<feGaussianBlur in="BackgroundImageFix" stdDeviation="10"/>
<feComposite in2="SourceAlpha" operator="in" result="effect1_backgroundBlur_546_135"/>
<feBlend mode="normal" in="SourceGraphic" in2="effect1_backgroundBlur_546_135" result="shape"/>
</filter>
</defs>
</svg>
