<svg width="20" height="18" viewBox="0 0 20 18" fill="none" xmlns="http://www.w3.org/2000/svg">
<path d="M8.63236 17.401C8.78878 17.5426 8.99432 17.6174 9.20514 17.6096C9.41595 17.6017 9.61536 17.5118 9.76083 17.359C9.90629 17.2062 9.98631 17.0027 9.98382 16.7917C9.98132 16.5808 9.8965 16.3792 9.74746 16.2299L3.00618 9.80888H18.8958C19.1103 9.80888 19.316 9.72367 19.4677 9.57199C19.6194 9.4203 19.7046 9.21458 19.7046 9.00006C19.7046 8.78555 19.6194 8.57982 19.4677 8.42814C19.316 8.27645 19.1103 8.19124 18.8958 8.19124H3.00618L9.74746 1.76918C9.8965 1.61988 9.98132 1.41826 9.98382 1.20731C9.98631 0.996369 9.90629 0.792796 9.76083 0.640012C9.61536 0.487227 9.41595 0.397324 9.20514 0.389476C8.99432 0.381629 8.78878 0.456457 8.63236 0.598003L0.630399 8.21928C0.455603 8.3857 0.341683 8.60594 0.306869 8.84477C0.288305 8.94786 0.288671 9.05347 0.307948 9.15644C0.342991 9.39488 0.456893 9.61471 0.631477 9.78085L8.63236 17.401Z" fill="white"/>
</svg>
