<svg width="20" height="18" viewBox="0 0 20 18" fill="none" xmlns="http://www.w3.org/2000/svg">
<path d="M11.3642 17.4025C11.2078 17.5441 11.0023 17.6189 10.7914 17.611C10.5806 17.6032 10.3812 17.5133 10.2358 17.3605C10.0903 17.2077 10.0103 17.0041 10.0128 16.7932C10.0153 16.5823 10.1001 16.3806 10.2491 16.2313L16.9904 9.81035L1.10079 9.81035C0.88628 9.81035 0.680552 9.72513 0.528868 9.57345C0.377184 9.42177 0.291969 9.21604 0.291969 9.00153C0.291969 8.78701 0.377184 8.58129 0.528868 8.4296C0.680552 8.27792 0.88628 8.1927 1.10079 8.1927L16.9904 8.1927L10.2491 1.77064C10.1001 1.62135 10.0153 1.41972 10.0128 1.20878C10.0103 0.997834 10.0903 0.794261 10.2358 0.641477C10.3812 0.488692 10.5806 0.398789 10.7914 0.390941C11.0023 0.383093 11.2078 0.457922 11.3642 0.599468L19.3662 8.22074C19.541 8.38716 19.6549 8.60741 19.6897 8.84623C19.7083 8.94933 19.7079 9.05494 19.6886 9.1579C19.6536 9.39634 19.5397 9.61617 19.3651 9.78231L11.3642 17.4025Z" fill="white"/>
</svg>
