<svg width="158" height="28" viewBox="0 0 158 28" fill="none" xmlns="http://www.w3.org/2000/svg">
<g clip-path="url(#clip0_266_294)">
<path d="M8.59933 1.39431C11.7348 0.289527 15.3102 0.380083 18.3907 1.61165C20.3526 2.39043 22.0945 3.74878 23.2313 5.50557C24.2581 7.02691 24.6982 8.87426 24.8266 10.6854C22.7913 10.6854 20.7743 10.6854 18.7391 10.6854C18.7391 9.38138 18.3173 8.00492 17.2905 7.13558C16.007 6.03079 14.1918 5.77724 12.5232 5.90402C10.763 6.06702 9.03939 6.99069 8.1226 8.51204C6.6924 10.7397 6.52738 13.5289 6.9491 16.0825C7.31582 18.0204 8.30596 19.9946 10.1029 21.0088C11.5331 21.8781 13.2933 21.9506 14.9069 21.7151C16.5938 21.4978 18.2623 20.6828 19.2525 19.2882C19.3258 18.6724 19.2708 18.0386 19.2891 17.4228C17.2355 17.3866 15.2186 17.4047 13.1833 17.3866C13.1833 15.6298 13.1833 13.8911 13.1833 12.1343C17.1622 12.1343 21.1411 12.1343 25.1199 12.1343C25.1199 16.9519 25.1199 21.7695 25.1199 26.5871C23.5797 26.5871 22.0212 26.5871 20.481 26.6052C20.2976 26.2067 20.1509 25.8083 19.9309 25.4279C17.9873 26.5871 15.677 27.0942 13.4033 27.0217C10.7263 27.1304 7.99425 26.3516 5.79394 24.8303C3.33694 23.1097 1.76006 20.393 1.08163 17.5314C0.678242 15.9014 0.696578 14.199 0.73325 12.5327C0.824929 10.3413 1.50336 8.16792 2.58517 6.26624C3.9787 4.03856 6.10565 2.24554 8.59933 1.39431Z" fill="#FFC107"/>
<path d="M28.9489 1.17631C35.0914 1.14009 41.2522 1.17631 47.3947 1.1582C47.3947 2.87877 47.3947 4.59934 47.3947 6.31991C43.2141 6.31991 39.0519 6.31991 34.8713 6.31991C34.853 7.89559 34.8713 9.45316 34.8713 11.0288C38.5018 11.0469 42.1507 11.0107 45.7812 11.0469C45.7812 12.7675 45.7812 14.4881 45.7812 16.2087C42.1507 16.2268 38.5018 16.2087 34.8713 16.2087C34.8713 19.6679 34.8897 23.1272 34.8713 26.6045C32.9094 26.5864 30.9291 26.6045 28.9672 26.6045C28.9489 18.1284 28.9489 9.65238 28.9489 1.17631Z" fill="#252F4A"/>
<path d="M54.6427 26.6058V1.05078H60.8952V21.5889H71.6584V26.6058L54.6427 26.6058Z" fill="#252F4A"/>
<path d="M83.9665 26.9675C81.9312 26.9675 80.1893 26.569 78.7225 25.7721C77.2556 24.9752 76.1188 23.8342 75.3303 22.3672C74.5419 20.8821 74.1568 19.1253 74.1568 17.0968C74.1568 15.1227 74.5602 13.384 75.3487 11.8989C76.1371 10.4138 77.2556 9.25467 78.7041 8.42155C80.1526 7.58843 81.8395 7.17188 83.8015 7.17188C85.1767 7.17188 86.4418 7.38921 87.597 7.80577C88.7338 8.22233 89.724 8.85622 90.5674 9.68934C91.3925 10.5225 92.0526 11.5548 92.511 12.7683C92.9694 13.9817 93.2078 15.3763 93.2078 16.952V18.4733H76.3388V14.9597H87.4503C87.4503 14.3077 87.2853 13.7282 86.9919 13.221C86.6802 12.7139 86.2768 12.3155 85.7451 12.0257C85.2133 11.7359 84.6083 11.591 83.9298 11.591C83.2331 11.591 82.628 11.7359 82.0779 12.0438C81.5278 12.3517 81.0878 12.7683 80.7761 13.2754C80.4644 13.8006 80.281 14.3802 80.2627 15.0322V18.6544C80.2627 19.4332 80.4094 20.1214 80.7211 20.701C81.0328 21.2805 81.4728 21.7514 82.0412 22.0593C82.6097 22.3853 83.2881 22.5483 84.0949 22.5483C84.6449 22.5483 85.14 22.4759 85.5801 22.331C86.0201 22.1861 86.4052 21.9688 86.7352 21.6609C87.0469 21.3711 87.3036 21.0089 87.4503 20.5923L93.1161 20.7553C92.8777 22.005 92.3643 23.1098 91.5759 24.0335C90.7875 24.9571 89.7423 25.6816 88.4405 26.1887C87.1386 26.7139 85.6534 26.9675 83.9665 26.9675Z" fill="#252F4A"/>
<path d="M101.802 26.9318C100.556 26.9318 99.4738 26.7325 98.5204 26.316C97.5669 25.8994 96.8151 25.2836 96.2651 24.4505C95.715 23.6174 95.4399 22.567 95.4399 21.2992C95.4399 20.2306 95.6233 19.3431 96.0083 18.6006C96.3934 17.8761 96.9068 17.2785 97.5669 16.8076C98.227 16.3548 98.9971 16.0107 99.8589 15.7571C100.721 15.5217 101.656 15.3587 102.646 15.2681C103.746 15.1594 104.645 15.0689 105.305 14.9421C105.983 14.8334 106.46 14.6704 106.771 14.4531C107.083 14.2358 107.23 13.946 107.23 13.5475V13.4932C107.23 12.8593 107.01 12.3522 106.551 12.0081C106.111 11.664 105.506 11.4829 104.736 11.4829C103.911 11.4829 103.269 11.664 102.774 12.0081C102.279 12.3522 101.967 12.8412 101.821 13.457L96.1184 13.2578C96.2834 12.0986 96.7234 11.0482 97.4202 10.1245C98.117 9.20085 99.0888 8.4764 100.317 7.95117C101.546 7.42594 103.031 7.15427 104.773 7.15427C106.02 7.15427 107.157 7.29916 108.202 7.58894C109.247 7.87872 110.164 8.29528 110.934 8.83862C111.704 9.38196 112.309 10.0521 112.731 10.849C113.152 11.6459 113.372 12.5333 113.372 13.5475V26.5695H107.56V23.9072H107.413C107.065 24.5592 106.625 25.1025 106.093 25.5553C105.561 26.0081 104.938 26.3341 104.204 26.5695C103.471 26.805 102.701 26.9318 101.802 26.9318ZM103.709 22.9292C104.369 22.9292 104.975 22.8024 105.506 22.5307C106.038 22.2591 106.46 21.8968 106.79 21.4259C107.102 20.9551 107.267 20.4117 107.267 19.7778V17.9667C107.083 18.0573 106.882 18.1478 106.625 18.2203C106.368 18.2927 106.111 18.3651 105.818 18.4376C105.525 18.51 105.213 18.5644 104.901 18.6187C104.59 18.673 104.296 18.7093 104.003 18.7636C103.416 18.8541 102.921 18.999 102.518 19.1801C102.114 19.3794 101.802 19.6148 101.582 19.9227C101.362 20.2306 101.252 20.5928 101.252 21.0094C101.252 21.6433 101.491 22.1323 101.949 22.4583C102.426 22.7662 103.013 22.9292 103.709 22.9292Z" fill="#252F4A"/>
<path d="M124.243 26.8774C122.813 26.8774 121.511 26.5152 120.338 25.7726C119.164 25.0482 118.229 23.9434 117.532 22.4764C116.836 21.0094 116.487 19.1983 116.487 17.0249C116.487 14.7791 116.854 12.9137 117.569 11.4648C118.284 10.0159 119.238 8.92918 120.411 8.24095C121.585 7.53461 122.85 7.1905 124.207 7.1905C125.233 7.1905 126.095 7.37161 126.829 7.71572C127.562 8.05984 128.149 8.51262 128.626 9.03784C129.102 9.58118 129.451 10.1426 129.707 10.7222H129.836V1.05078H136.015V26.6058H129.909V23.4906H129.726C129.469 24.0883 129.102 24.6316 128.607 25.1569C128.131 25.664 127.525 26.0805 126.81 26.4065C126.077 26.7144 125.233 26.8774 124.243 26.8774ZM126.389 22.1323C127.14 22.1323 127.782 21.9149 128.314 21.4984C128.846 21.0818 129.249 20.4842 129.542 19.7235C129.836 18.9628 129.964 18.0572 129.964 17.0249C129.964 15.9745 129.817 15.0689 129.542 14.3263C129.267 13.5657 128.846 12.9861 128.314 12.5876C127.782 12.1892 127.14 11.9719 126.389 11.9719C125.618 11.9719 124.977 12.1711 124.445 12.5876C123.913 13.0042 123.51 13.5838 123.235 14.3444C122.96 15.1051 122.831 15.9926 122.831 17.0249C122.831 18.0572 122.978 18.9628 123.253 19.7235C123.528 20.4842 123.932 21.0818 124.463 21.4984C124.977 21.9149 125.637 22.1323 126.389 22.1323Z" fill="#252F4A"/>
<path d="M156.867 13.2949L151.201 13.4398C151.146 13.0413 150.981 12.6791 150.724 12.3712C150.467 12.0633 150.119 11.8098 149.716 11.6287C149.294 11.4476 148.817 11.357 148.267 11.357C147.552 11.357 146.947 11.5019 146.433 11.7736C145.938 12.0633 145.682 12.4437 145.7 12.9146C145.7 13.2949 145.847 13.6209 146.158 13.8926C146.47 14.1642 147.039 14.3816 147.864 14.5627L151.604 15.269C153.548 15.6313 154.978 16.247 155.931 17.0983C156.885 17.9495 157.362 19.0724 157.362 20.467C157.362 21.7891 156.958 22.9301 156.188 23.89C155.418 24.868 154.355 25.6106 152.998 26.1539C151.659 26.6972 150.101 26.9508 148.377 26.9508C145.608 26.9508 143.426 26.3893 141.831 25.2664C140.236 24.1435 139.319 22.6222 139.099 20.7386L145.205 20.5937C145.333 21.3001 145.682 21.8253 146.25 22.1875C146.819 22.5498 147.534 22.7309 148.414 22.7309C149.202 22.7309 149.844 22.586 150.339 22.2962C150.834 22.0064 151.091 21.6261 151.091 21.1371C151.091 20.7024 150.889 20.3583 150.504 20.0866C150.119 19.8331 149.532 19.6157 148.725 19.4708L145.333 18.8369C143.39 18.4928 141.941 17.8408 140.988 16.899C140.034 15.9573 139.558 14.7438 139.576 13.2949C139.576 12.009 139.906 10.9223 140.603 9.99865C141.299 9.09309 142.29 8.38675 143.591 7.91586C144.875 7.42685 146.397 7.19141 148.157 7.19141C150.779 7.19141 152.851 7.73474 154.373 8.82142C155.876 9.9081 156.702 11.3932 156.867 13.2949Z" fill="#252F4A"/>
</g>
<defs>
<clipPath id="clip0_266_294">
<rect width="158" height="28" fill="white"/>
</clipPath>
</defs>
</svg>
